<ttFont>
<head>
    <!-- Most of this table will be recalculated by the compiler -->
    <tableVersion value="1.0"/>
    <fontRevision value="1.0"/>
    <checkSumAdjustment value="0x4a0bd2f7"/>
    <magicNumber value="0x5f0f3cf5"/>
    <flags value="00000000 00001011"/>
    <unitsPerEm value="1000"/>
    <created value="Mon Apr  8 19:23:41 2019"/>
    <modified value="Mon Apr  8 19:23:42 2019"/>
    <xMin value="-153"/>
    <yMin value="-305"/>
    <xMax value="1134"/>
    <yMax value="1018"/>
    <macStyle value="00000000 00000011"/>
    <lowestRecPPEM value="6"/>
    <fontDirectionHint value="2"/>
    <indexToLocFormat value="0"/>
    <glyphDataFormat value="0"/>
  </head>
    <TTGlyph name=".notdef" xMin="60" yMin="-100" xMax="454" yMax="750">
      <contour>
        <pt x="60" y="-100" on="1"/>
        <pt x="60" y="750" on="1"/>
        <pt x="454" y="750" on="1"/>
        <pt x="454" y="-100" on="1"/>
      </contour>
    </TTGlyph>
    <TTGlyph name="A" xMin="-54" yMin="0" xMax="669" yMax="700">
      <contour>
        <pt x="-54" y="0" on="1"/>
        <pt x="359" y="700" on="1"/>
        <pt x="551" y="700" on="1"/>
        <pt x="669" y="0" on="1"/>
        <pt x="495" y="0" on="1"/>
        <pt x="472" y="167" on="1"/>
        <pt x="221" y="167" on="1"/>
        <pt x="130" y="0" on="1"/>
      </contour>
      <contour>
        <pt x="294" y="300" on="1"/>
        <pt x="453" y="300" on="1"/>
        <pt x="421" y="532" on="1"/>
      </contour>
    </TTGlyph>
    <TTGlyph name="AE" xMin="-54" yMin="0" xMax="1002" yMax="700">
      <contour>
        <pt x="-54" y="0" on="1"/>
        <pt x="361" y="700" on="1"/>
        <pt x="1002" y="700" on="1"/>
        <pt x="971" y="551" on="1"/>
        <pt x="592" y="551" on="1"/>
        <pt x="606" y="425" on="1"/>
        <pt x="829" y="425" on="1"/>
        <pt x="798" y="281" on="1"/>
        <pt x="622" y="281" on="1"/>
        <pt x="636" y="149" on="1"/>
        <pt x="885" y="149" on="1"/>
        <pt x="854" y="0" on="1"/>
        <pt x="484" y="0" on="1"/>
        <pt x="466" y="167" on="1"/>
        <pt x="216" y="167" on="1"/>
        <pt x="119" y="0" on="1"/>
      </contour>
      <contour>
        <pt x="293" y="300" on="1"/>
        <pt x="452" y="300" on="1"/>
        <pt x="428" y="532" on="1"/>
      </contour>
    </TTGlyph>
    <TTGlyph name="Aacute" xMin="-54" yMin="0" xMax="734" yMax="931">
      <component glyphName="A" x="0" y="0" flags="0x204"/>
      <component glyphName="acute" x="166" y="184" flags="0x4"/>
    </TTGlyph>
    <TTGlyph name="Abreve" xMin="-54" yMin="0" xMax="673" yMax="956">
      <component glyphName="A" x="0" y="0" flags="0x204"/>
      <component glyphName="breve" x="136" y="184" flags="0x4"/>
    </TTGlyph>
    <TTGlyph name="Acircumflex" xMin="-54" yMin="0" xMax="669" yMax="934">
      <component glyphName="A" x="0" y="0" flags="0x204"/>
      <component glyphName="circumflex" x="134" y="184" flags="0x4"/>
    </TTGlyph>
    <TTGlyph name="Adieresis" xMin="-54" yMin="0" xMax="672" yMax="950">
      <component glyphName="A" x="0" y="0" flags="0x204"/>
      <component glyphName="dieresis" x="93" y="184" flags="0x4"/>
    </TTGlyph>
    <TTGlyph name="Agrave" xMin="-54" yMin="0" xMax="669" yMax="931">
      <component glyphName="A" x="0" y="0" flags="0x204"/>
      <component glyphName="grave" x="108" y="184" flags="0x4"/>
    </TTGlyph>
    <TTGlyph name="Amacron" xMin="-54" yMin="0" xMax="669" yMax="910">
      <component glyphName="A" x="0" y="0" flags="0x204"/>
      <component glyphName="macron" x="136" y="184" flags="0x4"/>
    </TTGlyph>
    <TTGlyph name="Aogonek" xMin="-54" yMin="-231" xMax="669" yMax="700">
      <contour>
        <pt x="-54" y="0" on="1"/>
        <pt x="359" y="700" on="1"/>
        <pt x="551" y="700" on="1"/>
        <pt x="669" y="0" on="1"/>
        <pt x="617" y="-28" on="0"/>
        <pt x="564" y="-85" on="0"/>
        <pt x="564" y="-113" on="1"/>
        <pt x="564" y="-130" on="0"/>
        <pt x="585" y="-149" on="0"/>
        <pt x="604" y="-149" on="1"/>
        <pt x="617" y="-149" on="0"/>
        <pt x="643" y="-143" on="0"/>
        <pt x="651" y="-138" on="1"/>
        <pt x="656" y="-208" on="1"/>
        <pt x="637" y="-218" on="0"/>
        <pt x="586" y="-231" on="0"/>
        <pt x="560" y="-231" on="1"/>
        <pt x="520" y="-231" on="0"/>
        <pt x="472" y="-189" on="0"/>
        <pt x="472" y="-153" on="1"/>
        <pt x="472" y="-111" on="0"/>
        <pt x="530" y="-35" on="0"/>
        <pt x="588" y="0" on="1"/>
        <pt x="495" y="0" on="1"/>
        <pt x="472" y="167" on="1"/>
        <pt x="221" y="167" on="1"/>
        <pt x="130" y="0" on="1"/>
      </contour>
      <contour>
        <pt x="294" y="300" on="1"/>
        <pt x="453" y="300" on="1"/>
        <pt x="421" y="532" on="1"/>
      </contour>
    </TTGlyph>
    <TTGlyph name="Aring" xMin="-54" yMin="0" xMax="669" yMax="1018">
      <component glyphName="A" x="0" y="0" flags="0x204"/>
      <component glyphName="ring" x="136" y="184" flags="0x4"/>
    </TTGlyph>
    <TTGlyph name="Atilde" xMin="-54" yMin="0" xMax="692" yMax="944">
      <component glyphName="A" x="0" y="0" flags="0x204"/>
      <component glyphName="tilde" x="139" y="184" flags="0x4"/>
    </TTGlyph>
    <TTGlyph name="B" xMin="21" yMin="0" xMax="691" yMax="700">
      <contour>
        <pt x="170" y="700" on="1"/>
        <pt x="487" y="700" on="1"/>
        <pt x="578" y="700" on="0"/>
        <pt x="691" y="608" on="0"/>
        <pt x="691" y="534" on="1"/>
        <pt x="691" y="476" on="0"/>
        <pt x="620" y="380" on="0"/>
        <pt x="563" y="354" on="1"/>
        <pt x="606" y="333" on="0"/>
        <pt x="657" y="261" on="0"/>
        <pt x="657" y="215" on="1"/>
        <pt x="657" y="171" on="0"/>
        <pt x="616" y="92" on="0"/>
        <pt x="547" y="34" on="0"/>
        <pt x="452" y="0" on="0"/>
        <pt x="398" y="0" on="1"/>
        <pt x="21" y="0" on="1"/>
      </contour>
      <contour>
        <pt x="449" y="563" on="1"/>
        <pt x="309" y="563" on="1"/>
        <pt x="278" y="419" on="1"/>
        <pt x="429" y="419" on="1"/>
        <pt x="467" y="419" on="0"/>
        <pt x="518" y="466" on="0"/>
        <pt x="518" y="501" on="1"/>
        <pt x="518" y="530" on="0"/>
        <pt x="481" y="563" on="0"/>
      </contour>
      <contour>
        <pt x="393" y="137" on="1"/>
        <pt x="434" y="137" on="0"/>
        <pt x="488" y="187" on="0"/>
        <pt x="488" y="225" on="1"/>
        <pt x="488" y="256" on="0"/>
        <pt x="448" y="291" on="0"/>
        <pt x="413" y="291" on="1"/>
        <pt x="251" y="291" on="1"/>
        <pt x="218" y="137" on="1"/>
      </contour>
    </TTGlyph>
    <TTGlyph name="C" xMin="62" yMin="-10" xMax="725" yMax="709">
      <contour>
        <pt x="416" y="143" on="1"/>
        <pt x="459" y="143" on="0"/>
        <pt x="542" y="184" on="0"/>
        <pt x="579" y="224" on="1"/>
        <pt x="672" y="113" on="1"/>
        <pt x="619" y="56" on="0"/>
        <pt x="470" y="-10" on="0"/>
        <pt x="395" y="-10" on="1"/>
        <pt x="325" y="-10" on="0"/>
        <pt x="203" y="42" on="0"/>
        <pt x="114" y="131" on="0"/>
        <pt x="62" y="253" on="0"/>
        <pt x="62" y="323" on="1"/>
        <pt x="62" y="402" on="0"/>
        <pt x="123" y="544" on="0"/>
        <pt x="226" y="648" on="0"/>
        <pt x="366" y="709" on="0"/>
        <pt x="445" y="709" on="1"/>
        <pt x="539" y="709" on="0"/>
        <pt x="683" y="634" on="0"/>
        <pt x="725" y="563" on="1"/>
        <pt x="594" y="457" on="1"/>
        <pt x="569" y="506" on="0"/>
        <pt x="487" y="557" on="0"/>
        <pt x="436" y="557" on="1"/>
        <pt x="395" y="557" on="0"/>
        <pt x="321" y="521" on="0"/>
        <pt x="267" y="461" on="0"/>
        <pt x="236" y="378" on="0"/>
        <pt x="236" y="332" on="1"/>
        <pt x="236" y="251" on="0"/>
        <pt x="339" y="143" on="0"/>
      </contour>
    </TTGlyph>
    <TTGlyph name="Cacute" xMin="62" yMin="-10" xMax="733" yMax="931">
      <component glyphName="C" x="0" y="0" flags="0x204"/>
      <component glyphName="acute" x="165" y="184" flags="0x4"/>
    </TTGlyph>
    <TTGlyph name="Ccaron" xMin="62" yMin="-10" xMax="725" yMax="939">
      <component glyphName="C" x="0" y="0" flags="0x204"/>
      <component glyphName="caron" x="137" y="184" flags="0x4"/>
    </TTGlyph>
    <TTGlyph name="Ccedilla" xMin="62" yMin="-253" xMax="725" yMax="709">
      <contour>
        <pt x="416" y="143" on="1"/>
        <pt x="459" y="143" on="0"/>
        <pt x="542" y="184" on="0"/>
        <pt x="579" y="224" on="1"/>
        <pt x="672" y="113" on="1"/>
        <pt x="619" y="56" on="0"/>
        <pt x="471" y="-10" on="0"/>
        <pt x="400" y="-10" on="1"/>
        <pt x="378" y="-59" on="1"/>
        <pt x="418" y="-64" on="0"/>
        <pt x="463" y="-105" on="0"/>
        <pt x="463" y="-136" on="1"/>
        <pt x="463" y="-185" on="0"/>
        <pt x="382" y="-253" on="0"/>
        <pt x="325" y="-253" on="1"/>
        <pt x="280" y="-253" on="0"/>
        <pt x="213" y="-230" on="0"/>
        <pt x="191" y="-205" on="1"/>
        <pt x="246" y="-150" on="1"/>
        <pt x="260" y="-165" on="0"/>
        <pt x="301" y="-182" on="0"/>
        <pt x="323" y="-182" on="1"/>
        <pt x="347" y="-182" on="0"/>
        <pt x="376" y="-161" on="0"/>
        <pt x="376" y="-144" on="1"/>
        <pt x="376" y="-128" on="0"/>
        <pt x="348" y="-109" on="0"/>
        <pt x="325" y="-109" on="1"/>
        <pt x="284" y="-109" on="1"/>
        <pt x="329" y="-4" on="1"/>
        <pt x="272" y="7" on="0"/>
        <pt x="173" y="66" on="0"/>
        <pt x="102" y="152" on="0"/>
        <pt x="62" y="262" on="0"/>
        <pt x="62" y="323" on="1"/>
        <pt x="62" y="402" on="0"/>
        <pt x="123" y="544" on="0"/>
        <pt x="226" y="648" on="0"/>
        <pt x="366" y="709" on="0"/>
        <pt x="445" y="709" on="1"/>
        <pt x="539" y="709" on="0"/>
        <pt x="683" y="634" on="0"/>
        <pt x="725" y="563" on="1"/>
        <pt x="594" y="457" on="1"/>
        <pt x="569" y="506" on="0"/>
        <pt x="487" y="557" on="0"/>
        <pt x="436" y="557" on="1"/>
        <pt x="395" y="557" on="0"/>
        <pt x="321" y="521" on="0"/>
        <pt x="267" y="461" on="0"/>
        <pt x="236" y="378" on="0"/>
        <pt x="236" y="332" on="1"/>
        <pt x="236" y="251" on="0"/>
        <pt x="339" y="143" on="0"/>
      </contour>
    </TTGlyph>
    <TTGlyph name="Ccircumflex" xMin="62" yMin="-10" xMax="725" yMax="934">
      <component glyphName="C" x="0" y="0" flags="0x204"/>
      <component glyphName="circumflex" x="133" y="184" flags="0x4"/>
    </TTGlyph>
    <TTGlyph name="Cdotaccent" xMin="62" yMin="-10" xMax="725" yMax="950">
      <component glyphName="C" x="0" y="0" flags="0x204"/>
      <component glyphName="dotaccent" x="236" y="184" flags="0x4"/>
    </TTGlyph>
    <TTGlyph name="D" xMin="21" yMin="0" xMax="721" yMax="700">
      <contour>
        <pt x="21" y="0" on="1"/>
        <pt x="170" y="700" on="1"/>
        <pt x="412" y="700" on="1"/>
        <pt x="478" y="700" on="0"/>
        <pt x="591" y="652" on="0"/>
        <pt x="674" y="569" on="0"/>
        <pt x="721" y="454" on="0"/>
        <pt x="721" y="387" on="1"/>
        <pt x="721" y="309" on="0"/>
        <pt x="659" y="168" on="0"/>
        <pt x="555" y="62" on="0"/>
        <pt x="415" y="0" on="0"/>
        <pt x="337" y="0" on="1"/>
      </contour>
      <contour>
        <pt x="395" y="553" on="1"/>
        <pt x="307" y="553" on="1"/>
        <pt x="220" y="147" on="1"/>
        <pt x="353" y="147" on="1"/>
        <pt x="392" y="147" on="0"/>
        <pt x="462" y="183" on="0"/>
        <pt x="514" y="244" on="0"/>
        <pt x="544" y="326" on="0"/>
        <pt x="544" y="373" on="1"/>
        <pt x="544" y="450" on="0"/>
        <pt x="458" y="553" on="0"/>
      </contour>
    </TTGlyph>
    <TTGlyph name="Dcaron" xMin="21" yMin="0" xMax="721" yMax="939">
      <component glyphName="D" x="0" y="0" flags="0x204"/>
      <component glyphName="caron" x="158" y="184" flags="0x4"/>
    </TTGlyph>
    <TTGlyph name="Dcroat" xMin="18" yMin="0" xMax="736" yMax="700">
      <contour>
        <pt x="36" y="0" on="1"/>
        <pt x="96" y="283" on="1"/>
        <pt x="18" y="283" on="1"/>
        <pt x="46" y="418" on="1"/>
        <pt x="125" y="418" on="1"/>
        <pt x="185" y="700" on="1"/>
        <pt x="427" y="700" on="1"/>
        <pt x="493" y="700" on="0"/>
        <pt x="606" y="652" on="0"/>
        <pt x="689" y="569" on="0"/>
        <pt x="736" y="454" on="0"/>
        <pt x="736" y="387" on="1"/>
        <pt x="736" y="309" on="0"/>
        <pt x="674" y="168" on="0"/>
        <pt x="570" y="62" on="0"/>
        <pt x="430" y="0" on="0"/>
        <pt x="352" y="0" on="1"/>
      </contour>
      <contour>
        <pt x="410" y="553" on="1"/>
        <pt x="322" y="553" on="1"/>
        <pt x="293" y="418" on="1"/>
        <pt x="439" y="418" on="1"/>
        <pt x="411" y="283" on="1"/>
        <pt x="264" y="283" on="1"/>
        <pt x="235" y="147" on="1"/>
        <pt x="368" y="147" on="1"/>
        <pt x="407" y="147" on="0"/>
        <pt x="477" y="183" on="0"/>
        <pt x="529" y="244" on="0"/>
        <pt x="559" y="326" on="0"/>
        <pt x="559" y="373" on="1"/>
        <pt x="559" y="450" on="0"/>
        <pt x="473" y="553" on="0"/>
      </contour>
    </TTGlyph>
    <TTGlyph name="E" xMin="21" yMin="0" xMax="688" yMax="700">
      <contour>
        <pt x="21" y="0" on="1"/>
        <pt x="170" y="700" on="1"/>
        <pt x="688" y="700" on="1"/>
        <pt x="656" y="556" on="1"/>
        <pt x="307" y="556" on="1"/>
        <pt x="279" y="423" on="1"/>
        <pt x="526" y="423" on="1"/>
        <pt x="496" y="283" on="1"/>
        <pt x="249" y="283" on="1"/>
        <pt x="220" y="144" on="1"/>
        <pt x="575" y="144" on="1"/>
        <pt x="543" y="0" on="1"/>
      </contour>
    </TTGlyph>
    <TTGlyph name="Eacute" xMin="21" yMin="0" xMax="712" yMax="931">
      <component glyphName="E" x="0" y="0" flags="0x204"/>
      <component glyphName="acute" x="144" y="184" flags="0x4"/>
    </TTGlyph>
    <TTGlyph name="Ebreve" xMin="21" yMin="0" xMax="688" yMax="956">
      <component glyphName="E" x="0" y="0" flags="0x204"/>
      <component glyphName="breve" x="114" y="184" flags="0x4"/>
    </TTGlyph>
    <TTGlyph name="Ecaron" xMin="21" yMin="0" xMax="688" yMax="939">
      <component glyphName="E" x="0" y="0" flags="0x204"/>
      <component glyphName="caron" x="116" y="184" flags="0x4"/>
    </TTGlyph>
    <TTGlyph name="Ecircumflex" xMin="21" yMin="0" xMax="688" yMax="934">
      <component glyphName="E" x="0" y="0" flags="0x204"/>
      <component glyphName="circumflex" x="112" y="184" flags="0x4"/>
    </TTGlyph>
    <TTGlyph name="Edieresis" xMin="21" yMin="0" xMax="688" yMax="950">
      <component glyphName="E" x="0" y="0" flags="0x204"/>
      <component glyphName="dieresis" x="71" y="184" flags="0x4"/>
    </TTGlyph>
    <TTGlyph name="Edotaccent" xMin="21" yMin="0" xMax="688" yMax="950">
      <component glyphName="E" x="0" y="0" flags="0x204"/>
      <component glyphName="dotaccent" x="215" y="184" flags="0x4"/>
    </TTGlyph>
    <TTGlyph name="Egrave" xMin="21" yMin="0" xMax="688" yMax="931">
      <component glyphName="E" x="0" y="0" flags="0x204"/>
      <component glyphName="grave" x="86" y="184" flags="0x4"/>
    </TTGlyph>
    <TTGlyph name="Emacron" xMin="21" yMin="0" xMax="688" yMax="910">
      <component glyphName="E" x="0" y="0" flags="0x204"/>
      <component glyphName="macron" x="114" y="184" flags="0x4"/>
    </TTGlyph>
    <TTGlyph name="Eng" xMin="21" yMin="-218" xMax="789" yMax="700">
      <contour>
        <pt x="492" y="10" on="1"/>
        <pt x="272" y="443" on="1"/>
        <pt x="180" y="0" on="1"/>
        <pt x="21" y="0" on="1"/>
        <pt x="170" y="700" on="1"/>
        <pt x="334" y="700" on="1"/>
        <pt x="542" y="283" on="1"/>
        <pt x="630" y="700" on="1"/>
        <pt x="789" y="700" on="1"/>
        <pt x="627" y="-61" on="1"/>
        <pt x="611" y="-137" on="0"/>
        <pt x="512" y="-218" on="0"/>
        <pt x="438" y="-218" on="1"/>
        <pt x="410" y="-218" on="0"/>
        <pt x="362" y="-208" on="0"/>
        <pt x="349" y="-203" on="1"/>
        <pt x="375" y="-82" on="1"/>
        <pt x="385" y="-84" on="0"/>
        <pt x="409" y="-88" on="0"/>
        <pt x="426" y="-88" on="1"/>
        <pt x="448" y="-88" on="0"/>
        <pt x="476" y="-66" on="0"/>
        <pt x="480" y="-44" on="1"/>
      </contour>
    </TTGlyph>
    <TTGlyph name="Eogonek" xMin="21" yMin="-231" xMax="688" yMax="700">
      <contour>
        <pt x="21" y="0" on="1"/>
        <pt x="170" y="700" on="1"/>
        <pt x="688" y="700" on="1"/>
        <pt x="656" y="556" on="1"/>
        <pt x="307" y="556" on="1"/>
        <pt x="279" y="423" on="1"/>
        <pt x="526" y="423" on="1"/>
        <pt x="496" y="283" on="1"/>
        <pt x="249" y="283" on="1"/>
        <pt x="220" y="144" on="1"/>
        <pt x="575" y="144" on="1"/>
        <pt x="543" y="0" on="1"/>
        <pt x="491" y="-28" on="0"/>
        <pt x="438" y="-85" on="0"/>
        <pt x="438" y="-113" on="1"/>
        <pt x="438" y="-130" on="0"/>
        <pt x="459" y="-149" on="0"/>
        <pt x="478" y="-149" on="1"/>
        <pt x="491" y="-149" on="0"/>
        <pt x="517" y="-143" on="0"/>
        <pt x="525" y="-138" on="1"/>
        <pt x="530" y="-208" on="1"/>
        <pt x="511" y="-218" on="0"/>
        <pt x="460" y="-231" on="0"/>
        <pt x="434" y="-231" on="1"/>
        <pt x="394" y="-231" on="0"/>
        <pt x="346" y="-189" on="0"/>
        <pt x="346" y="-153" on="1"/>
        <pt x="346" y="-111" on="0"/>
        <pt x="404" y="-35" on="0"/>
        <pt x="462" y="0" on="1"/>
      </contour>
    </TTGlyph>
    <TTGlyph name="Eth" xMin="18" yMin="0" xMax="736" yMax="700">
      <contour>
        <pt x="36" y="0" on="1"/>
        <pt x="96" y="283" on="1"/>
        <pt x="18" y="283" on="1"/>
        <pt x="46" y="418" on="1"/>
        <pt x="125" y="418" on="1"/>
        <pt x="185" y="700" on="1"/>
        <pt x="427" y="700" on="1"/>
        <pt x="493" y="700" on="0"/>
        <pt x="606" y="652" on="0"/>
        <pt x="689" y="569" on="0"/>
        <pt x="736" y="454" on="0"/>
        <pt x="736" y="387" on="1"/>
        <pt x="736" y="309" on="0"/>
        <pt x="674" y="168" on="0"/>
        <pt x="570" y="62" on="0"/>
        <pt x="430" y="0" on="0"/>
        <pt x="352" y="0" on="1"/>
      </contour>
      <contour>
        <pt x="410" y="553" on="1"/>
        <pt x="322" y="553" on="1"/>
        <pt x="293" y="418" on="1"/>
        <pt x="439" y="418" on="1"/>
        <pt x="411" y="283" on="1"/>
        <pt x="264" y="283" on="1"/>
        <pt x="235" y="147" on="1"/>
        <pt x="368" y="147" on="1"/>
        <pt x="407" y="147" on="0"/>
        <pt x="477" y="183" on="0"/>
        <pt x="529" y="244" on="0"/>
        <pt x="559" y="326" on="0"/>
        <pt x="559" y="373" on="1"/>
        <pt x="559" y="450" on="0"/>
        <pt x="473" y="553" on="0"/>
      </contour>
    </TTGlyph>
    <TTGlyph name="Euro" xMin="34" yMin="-10" xMax="747" yMax="711">
      <contour>
        <pt x="469" y="323" on="1"/>
        <pt x="422" y="245" on="1"/>
        <pt x="270" y="245" on="1"/>
        <pt x="282" y="188" on="0"/>
        <pt x="361" y="121" on="0"/>
        <pt x="420" y="121" on="1"/>
        <pt x="460" y="121" on="0"/>
        <pt x="540" y="158" on="0"/>
        <pt x="570" y="190" on="1"/>
        <pt x="654" y="104" on="1"/>
        <pt x="600" y="47" on="0"/>
        <pt x="473" y="-10" on="0"/>
        <pt x="403" y="-10" on="1"/>
        <pt x="288" y="-10" on="0"/>
        <pt x="141" y="129" on="0"/>
        <pt x="128" y="245" on="1"/>
        <pt x="34" y="245" on="1"/>
        <pt x="51" y="323" on="1"/>
        <pt x="126" y="323" on="1"/>
        <pt x="127" y="336" on="0"/>
        <pt x="130" y="363" on="0"/>
        <pt x="132" y="376" on="1"/>
        <pt x="62" y="376" on="1"/>
        <pt x="79" y="455" on="1"/>
        <pt x="153" y="455" on="1"/>
        <pt x="194" y="569" on="0"/>
        <pt x="381" y="711" on="0"/>
        <pt x="501" y="711" on="1"/>
        <pt x="589" y="711" on="0"/>
        <pt x="716" y="635" on="0"/>
        <pt x="747" y="564" on="1"/>
        <pt x="632" y="489" on="1"/>
        <pt x="612" y="531" on="0"/>
        <pt x="533" y="580" on="0"/>
        <pt x="486" y="580" on="1"/>
        <pt x="426" y="580" on="0"/>
        <pt x="329" y="512" on="0"/>
        <pt x="300" y="455" on="1"/>
        <pt x="543" y="455" on="1"/>
        <pt x="497" y="376" on="1"/>
        <pt x="272" y="376" on="1"/>
        <pt x="269" y="363" on="0"/>
        <pt x="266" y="336" on="0"/>
        <pt x="265" y="323" on="1"/>
      </contour>
    </TTGlyph>
    <TTGlyph name="F" xMin="21" yMin="0" xMax="692" yMax="700">
      <contour>
        <pt x="21" y="0" on="1"/>
        <pt x="170" y="700" on="1"/>
        <pt x="692" y="700" on="1"/>
        <pt x="660" y="556" on="1"/>
        <pt x="307" y="556" on="1"/>
        <pt x="278" y="418" on="1"/>
        <pt x="525" y="418" on="1"/>
        <pt x="495" y="278" on="1"/>
        <pt x="248" y="278" on="1"/>
        <pt x="189" y="0" on="1"/>
      </contour>
    </TTGlyph>
    <TTGlyph name="G" xMin="59" yMin="-11" xMax="774" yMax="711">
      <contour>
        <pt x="759" y="329" on="1"/>
        <pt x="743" y="254" on="0"/>
        <pt x="673" y="128" on="0"/>
        <pt x="575" y="39" on="0"/>
        <pt x="453" y="-11" on="0"/>
        <pt x="386" y="-11" on="1"/>
        <pt x="316" y="-11" on="0"/>
        <pt x="195" y="38" on="0"/>
        <pt x="109" y="123" on="0"/>
        <pt x="59" y="242" on="0"/>
        <pt x="59" y="311" on="1"/>
        <pt x="59" y="392" on="0"/>
        <pt x="122" y="538" on="0"/>
        <pt x="230" y="647" on="0"/>
        <pt x="374" y="711" on="0"/>
        <pt x="453" y="711" on="1"/>
        <pt x="545" y="711" on="0"/>
        <pt x="698" y="632" on="0"/>
        <pt x="738" y="564" on="1"/>
        <pt x="606" y="458" on="1"/>
        <pt x="582" y="505" on="0"/>
        <pt x="494" y="558" on="0"/>
        <pt x="439" y="558" on="1"/>
        <pt x="396" y="558" on="0"/>
        <pt x="321" y="521" on="0"/>
        <pt x="266" y="457" on="0"/>
        <pt x="234" y="371" on="0"/>
        <pt x="234" y="322" on="1"/>
        <pt x="234" y="242" on="0"/>
        <pt x="329" y="140" on="0"/>
        <pt x="403" y="140" on="1"/>
        <pt x="457" y="140" on="0"/>
        <pt x="547" y="205" on="0"/>
        <pt x="565" y="258" on="1"/>
        <pt x="393" y="258" on="1"/>
        <pt x="425" y="402" on="1"/>
        <pt x="774" y="402" on="1"/>
      </contour>
    </TTGlyph>
    <TTGlyph name="Gbreve" xMin="59" yMin="-11" xMax="774" yMax="957">
      <component glyphName="G" x="0" y="0" flags="0x204"/>
      <component glyphName="breve" x="139" y="185" flags="0x4"/>
    </TTGlyph>
    <TTGlyph name="Gcircumflex" xMin="59" yMin="-11" xMax="774" yMax="935">
      <component glyphName="G" x="0" y="0" flags="0x204"/>
      <component glyphName="circumflex" x="137" y="185" flags="0x4"/>
    </TTGlyph>
    <TTGlyph name="Gcommaaccent" xMin="59" yMin="-305" xMax="774" yMax="711">
      <component glyphName="G" x="0" y="0" flags="0x204"/>
      <component glyphName="commaaccent" x="309" y="0" flags="0x4"/>
    </TTGlyph>
    <TTGlyph name="Gdotaccent" xMin="59" yMin="-11" xMax="774" yMax="951">
      <component glyphName="G" x="0" y="0" flags="0x204"/>
      <component glyphName="dotaccent" x="240" y="185" flags="0x4"/>
    </TTGlyph>
    <TTGlyph name="H" xMin="11" yMin="0" xMax="774" yMax="700">
      <contour>
        <pt x="11" y="0" on="1"/>
        <pt x="160" y="700" on="1"/>
        <pt x="328" y="700" on="1"/>
        <pt x="270" y="428" on="1"/>
        <pt x="548" y="428" on="1"/>
        <pt x="606" y="700" on="1"/>
        <pt x="774" y="700" on="1"/>
        <pt x="625" y="0" on="1"/>
        <pt x="457" y="0" on="1"/>
        <pt x="516" y="277" on="1"/>
        <pt x="238" y="277" on="1"/>
        <pt x="179" y="0" on="1"/>
      </contour>
    </TTGlyph>
    <TTGlyph name="Hbar" xMin="43" yMin="0" xMax="876" yMax="700">
      <contour>
        <pt x="43" y="0" on="1"/>
        <pt x="149" y="499" on="1"/>
        <pt x="61" y="499" on="1"/>
        <pt x="89" y="614" on="1"/>
        <pt x="174" y="614" on="1"/>
        <pt x="192" y="700" on="1"/>
        <pt x="360" y="700" on="1"/>
        <pt x="342" y="614" on="1"/>
        <pt x="620" y="614" on="1"/>
        <pt x="638" y="700" on="1"/>
        <pt x="806" y="700" on="1"/>
        <pt x="788" y="614" on="1"/>
        <pt x="876" y="614" on="1"/>
        <pt x="848" y="499" on="1"/>
        <pt x="763" y="499" on="1"/>
        <pt x="657" y="0" on="1"/>
        <pt x="489" y="0" on="1"/>
        <pt x="549" y="282" on="1"/>
        <pt x="271" y="282" on="1"/>
        <pt x="211" y="0" on="1"/>
      </contour>
      <contour>
        <pt x="301" y="423" on="1"/>
        <pt x="579" y="423" on="1"/>
        <pt x="595" y="499" on="1"/>
        <pt x="317" y="499" on="1"/>
      </contour>
    </TTGlyph>
    <TTGlyph name="Hcircumflex" xMin="11" yMin="0" xMax="774" yMax="934">
      <component glyphName="H" x="0" y="0" flags="0x204"/>
      <component glyphName="circumflex" x="155" y="184" flags="0x4"/>
    </TTGlyph>
    <TTGlyph name="I" xMin="11" yMin="0" xMax="328" yMax="700">
      <contour>
        <pt x="11" y="0" on="1"/>
        <pt x="160" y="700" on="1"/>
        <pt x="328" y="700" on="1"/>
        <pt x="179" y="0" on="1"/>
      </contour>
    </TTGlyph>
    <TTGlyph name="IJ" xMin="11" yMin="-9" xMax="990" yMax="700">
      <component glyphName="I" x="0" y="0" flags="0x4"/>
      <component glyphName="J" x="302" y="0" flags="0x4"/>
    </TTGlyph>
    <TTGlyph name="Iacute" xMin="11" yMin="0" xMax="531" yMax="931">
      <component glyphName="I" x="0" y="0" flags="0x204"/>
      <component glyphName="acute" x="-37" y="184" flags="0x4"/>
    </TTGlyph>
    <TTGlyph name="Ibreve" xMin="11" yMin="0" xMax="470" yMax="956">
      <component glyphName="I" x="0" y="0" flags="0x204"/>
      <component glyphName="breve" x="-67" y="184" flags="0x4"/>
    </TTGlyph>
    <TTGlyph name="Icircumflex" xMin="11" yMin="0" xMax="462" yMax="934">
      <component glyphName="I" x="0" y="0" flags="0x204"/>
      <component glyphName="circumflex" x="-69" y="184" flags="0x4"/>
    </TTGlyph>
    <TTGlyph name="Idieresis" xMin="11" yMin="0" xMax="469" yMax="950">
      <component glyphName="I" x="0" y="0" flags="0x204"/>
      <component glyphName="dieresis" x="-110" y="184" flags="0x4"/>
    </TTGlyph>
    <TTGlyph name="Idotaccent" xMin="11" yMin="0" xMax="361" yMax="950">
      <component glyphName="I" x="0" y="0" flags="0x204"/>
      <component glyphName="dotaccent" x="34" y="184" flags="0x4"/>
    </TTGlyph>
    <TTGlyph name="Igrave" xMin="-4" yMin="0" xMax="328" yMax="931">
      <component glyphName="I" x="0" y="0" flags="0x204"/>
      <component glyphName="grave" x="-95" y="184" flags="0x4"/>
    </TTGlyph>
    <TTGlyph name="Imacron" xMin="11" yMin="0" xMax="451" yMax="910">
      <component glyphName="I" x="0" y="0" flags="0x204"/>
      <component glyphName="macron" x="-67" y="184" flags="0x4"/>
    </TTGlyph>
    <TTGlyph name="Iogonek" xMin="-18" yMin="-231" xMax="328" yMax="700">
      <contour>
        <pt x="11" y="0" on="1"/>
        <pt x="160" y="700" on="1"/>
        <pt x="328" y="700" on="1"/>
        <pt x="179" y="0" on="1"/>
        <pt x="127" y="-28" on="0"/>
        <pt x="74" y="-85" on="0"/>
        <pt x="74" y="-113" on="1"/>
        <pt x="74" y="-130" on="0"/>
        <pt x="95" y="-149" on="0"/>
        <pt x="114" y="-149" on="1"/>
        <pt x="127" y="-149" on="0"/>
        <pt x="153" y="-143" on="0"/>
        <pt x="161" y="-138" on="1"/>
        <pt x="166" y="-208" on="1"/>
        <pt x="147" y="-218" on="0"/>
        <pt x="96" y="-231" on="0"/>
        <pt x="70" y="-231" on="1"/>
        <pt x="30" y="-231" on="0"/>
        <pt x="-18" y="-189" on="0"/>
        <pt x="-18" y="-153" on="1"/>
        <pt x="-18" y="-111" on="0"/>
        <pt x="40" y="-35" on="0"/>
        <pt x="98" y="0" on="1"/>
      </contour>
    </TTGlyph>
    <TTGlyph name="Itilde" xMin="11" yMin="0" xMax="489" yMax="944">
      <component glyphName="I" x="0" y="0" flags="0x204"/>
      <component glyphName="tilde" x="-64" y="184" flags="0x4"/>
    </TTGlyph>
    <TTGlyph name="J" xMin="24" yMin="-9" xMax="688" yMax="700">
      <contour>
        <pt x="590" y="244" on="1"/>
        <pt x="565" y="129" on="0"/>
        <pt x="402" y="-9" on="0"/>
        <pt x="292" y="-9" on="1"/>
        <pt x="177" y="-9" on="0"/>
        <pt x="37" y="108" on="0"/>
        <pt x="24" y="215" on="1"/>
        <pt x="182" y="267" on="1"/>
        <pt x="187" y="204" on="0"/>
        <pt x="240" y="141" on="0"/>
        <pt x="288" y="141" on="1"/>
        <pt x="338" y="141" on="0"/>
        <pt x="415" y="215" on="0"/>
        <pt x="428" y="275" on="1"/>
        <pt x="517" y="700" on="1"/>
        <pt x="688" y="700" on="1"/>
      </contour>
    </TTGlyph>
    <TTGlyph name="Jcircumflex" xMin="24" yMin="-9" xMax="813" yMax="934">
      <component glyphName="J" x="0" y="0" flags="0x204"/>
      <component glyphName="circumflex" x="282" y="184" flags="0x4"/>
    </TTGlyph>
    <TTGlyph name="K" xMin="21" yMin="0" xMax="801" yMax="700">
      <contour>
        <pt x="21" y="0" on="1"/>
        <pt x="170" y="700" on="1"/>
        <pt x="338" y="700" on="1"/>
        <pt x="276" y="407" on="1"/>
        <pt x="586" y="700" on="1"/>
        <pt x="801" y="700" on="1"/>
        <pt x="423" y="364" on="1"/>
        <pt x="657" y="0" on="1"/>
        <pt x="448" y="0" on="1"/>
        <pt x="258" y="323" on="1"/>
        <pt x="189" y="0" on="1"/>
      </contour>
    </TTGlyph>
    <TTGlyph name="Kcommaaccent" xMin="21" yMin="-305" xMax="801" yMax="700">
      <component glyphName="K" x="0" y="0" flags="0x204"/>
      <component glyphName="commaaccent" x="216" y="0" flags="0x4"/>
    </TTGlyph>
    <TTGlyph name="L" xMin="21" yMin="0" xMax="561" yMax="700">
      <contour>
        <pt x="21" y="0" on="1"/>
        <pt x="170" y="700" on="1"/>
        <pt x="338" y="700" on="1"/>
        <pt x="220" y="147" on="1"/>
        <pt x="561" y="147" on="1"/>
        <pt x="529" y="0" on="1"/>
      </contour>
    </TTGlyph>
    <TTGlyph name="Lacute" xMin="21" yMin="0" xMax="561" yMax="931">
      <component glyphName="L" x="0" y="0" flags="0x204"/>
      <component glyphName="acute" x="-28" y="184" flags="0x4"/>
    </TTGlyph>
    <TTGlyph name="Lcaron" xMin="21" yMin="0" xMax="626" yMax="723">
      <component glyphName="L" x="0" y="0" flags="0x4"/>
      <component glyphName="caronSlovak" x="307" y="0" flags="0x4"/>
    </TTGlyph>
    <TTGlyph name="Lcommaaccent" xMin="21" yMin="-305" xMax="561" yMax="700">
      <component glyphName="L" x="0" y="0" flags="0x204"/>
      <component glyphName="commaaccent" x="209" y="0" flags="0x4"/>
    </TTGlyph>
    <TTGlyph name="Ldot" xMin="21" yMin="0" xMax="578" yMax="700">
      <component glyphName="L" x="0" y="0" flags="0x4"/>
      <component glyphName="dotaccent" x="251" y="-310" flags="0x4"/>
    </TTGlyph>
    <TTGlyph name="Lslash" xMin="-13" yMin="0" xMax="590" yMax="700">
      <contour>
        <pt x="50" y="0" on="1"/>
        <pt x="95" y="210" on="1"/>
        <pt x="-13" y="154" on="1"/>
        <pt x="17" y="296" on="1"/>
        <pt x="125" y="352" on="1"/>
        <pt x="199" y="700" on="1"/>
        <pt x="367" y="700" on="1"/>
        <pt x="314" y="451" on="1"/>
        <pt x="491" y="543" on="1"/>
        <pt x="461" y="401" on="1"/>
        <pt x="284" y="309" on="1"/>
        <pt x="249" y="147" on="1"/>
        <pt x="590" y="147" on="1"/>
        <pt x="558" y="0" on="1"/>
      </contour>
    </TTGlyph>
    <TTGlyph name="M" xMin="21" yMin="0" xMax="923" yMax="700">
      <contour>
        <pt x="413" y="50" on="1"/>
        <pt x="281" y="481" on="1"/>
        <pt x="180" y="0" on="1"/>
        <pt x="21" y="0" on="1"/>
        <pt x="170" y="700" on="1"/>
        <pt x="376" y="700" on="1"/>
        <pt x="472" y="364" on="1"/>
        <pt x="706" y="700" on="1"/>
        <pt x="923" y="700" on="1"/>
        <pt x="774" y="0" on="1"/>
        <pt x="619" y="0" on="1"/>
        <pt x="719" y="472" on="1"/>
      </contour>
    </TTGlyph>
    <TTGlyph name="N" xMin="21" yMin="0" xMax="789" yMax="700">
      <contour>
        <pt x="170" y="700" on="1"/>
        <pt x="329" y="700" on="1"/>
        <pt x="544" y="261" on="1"/>
        <pt x="630" y="700" on="1"/>
        <pt x="789" y="700" on="1"/>
        <pt x="640" y="0" on="1"/>
        <pt x="491" y="0" on="1"/>
        <pt x="270" y="454" on="1"/>
        <pt x="180" y="0" on="1"/>
        <pt x="21" y="0" on="1"/>
      </contour>
    </TTGlyph>
    <TTGlyph name="Nacute" xMin="21" yMin="0" xMax="789" yMax="931">
      <component glyphName="N" x="0" y="0" flags="0x204"/>
      <component glyphName="acute" x="191" y="184" flags="0x4"/>
    </TTGlyph>
    <TTGlyph name="Ncaron" xMin="21" yMin="0" xMax="789" yMax="939">
      <component glyphName="N" x="0" y="0" flags="0x204"/>
      <component glyphName="caron" x="163" y="184" flags="0x4"/>
    </TTGlyph>
    <TTGlyph name="Ncommaaccent" xMin="21" yMin="-305" xMax="789" yMax="700">
      <component glyphName="N" x="0" y="0" flags="0x204"/>
      <component glyphName="commaaccent" x="235" y="0" flags="0x4"/>
    </TTGlyph>
    <TTGlyph name="Ntilde" xMin="21" yMin="0" xMax="789" yMax="944">
      <component glyphName="N" x="0" y="0" flags="0x204"/>
      <component glyphName="tilde" x="164" y="184" flags="0x4"/>
    </TTGlyph>
    <TTGlyph name="O" xMin="63" yMin="-11" xMax="772" yMax="711">
      <contour>
        <pt x="772" y="380" on="1"/>
        <pt x="772" y="300" on="0"/>
        <pt x="712" y="157" on="0"/>
        <pt x="609" y="51" on="0"/>
        <pt x="470" y="-11" on="0"/>
        <pt x="392" y="-11" on="1"/>
        <pt x="322" y="-11" on="0"/>
        <pt x="201" y="39" on="0"/>
        <pt x="113" y="127" on="0"/>
        <pt x="63" y="249" on="0"/>
        <pt x="63" y="320" on="1"/>
        <pt x="63" y="400" on="0"/>
        <pt x="124" y="543" on="0"/>
        <pt x="227" y="649" on="0"/>
        <pt x="366" y="711" on="0"/>
        <pt x="444" y="711" on="1"/>
        <pt x="514" y="711" on="0"/>
        <pt x="635" y="661" on="0"/>
        <pt x="722" y="573" on="0"/>
        <pt x="772" y="451" on="0"/>
      </contour>
      <contour>
        <pt x="599" y="369" on="1"/>
        <pt x="599" y="451" on="0"/>
        <pt x="505" y="558" on="0"/>
        <pt x="433" y="558" on="1"/>
        <pt x="392" y="558" on="0"/>
        <pt x="321" y="522" on="0"/>
        <pt x="268" y="461" on="0"/>
        <pt x="237" y="378" on="0"/>
        <pt x="237" y="331" on="1"/>
        <pt x="237" y="249" on="0"/>
        <pt x="331" y="142" on="0"/>
        <pt x="403" y="142" on="1"/>
        <pt x="444" y="142" on="0"/>
        <pt x="515" y="178" on="0"/>
        <pt x="568" y="239" on="0"/>
        <pt x="599" y="322" on="0"/>
      </contour>
    </TTGlyph>
    <TTGlyph name="OE" xMin="57" yMin="0" xMax="1108" yMax="700">
      <contour>
        <pt x="391" y="0" on="1"/>
        <pt x="317" y="0" on="0"/>
        <pt x="194" y="48" on="0"/>
        <pt x="106" y="133" on="0"/>
        <pt x="57" y="252" on="0"/>
        <pt x="57" y="323" on="1"/>
        <pt x="57" y="402" on="0"/>
        <pt x="116" y="541" on="0"/>
        <pt x="218" y="642" on="0"/>
        <pt x="357" y="700" on="0"/>
        <pt x="437" y="700" on="1"/>
        <pt x="1108" y="700" on="1"/>
        <pt x="1077" y="551" on="1"/>
        <pt x="695" y="551" on="1"/>
        <pt x="712" y="523" on="0"/>
        <pt x="736" y="459" on="0"/>
        <pt x="741" y="425" on="1"/>
        <pt x="933" y="425" on="1"/>
        <pt x="902" y="281" on="1"/>
        <pt x="731" y="281" on="1"/>
        <pt x="722" y="245" on="0"/>
        <pt x="689" y="178" on="0"/>
        <pt x="667" y="149" on="1"/>
        <pt x="991" y="149" on="1"/>
        <pt x="960" y="0" on="1"/>
      </contour>
      <contour>
        <pt x="392" y="152" on="1"/>
        <pt x="431" y="152" on="0"/>
        <pt x="500" y="186" on="0"/>
        <pt x="552" y="244" on="0"/>
        <pt x="582" y="323" on="0"/>
        <pt x="582" y="367" on="1"/>
        <pt x="582" y="445" on="0"/>
        <pt x="488" y="548" on="0"/>
        <pt x="416" y="548" on="1"/>
        <pt x="376" y="548" on="0"/>
        <pt x="306" y="514" on="0"/>
        <pt x="254" y="456" on="0"/>
        <pt x="223" y="377" on="0"/>
        <pt x="223" y="333" on="1"/>
        <pt x="223" y="255" on="0"/>
        <pt x="319" y="152" on="0"/>
      </contour>
    </TTGlyph>
    <TTGlyph name="Oacute" xMin="63" yMin="-11" xMax="772" yMax="931">
      <component glyphName="O" x="0" y="0" flags="0x204"/>
      <component glyphName="acute" x="179" y="184" flags="0x4"/>
    </TTGlyph>
    <TTGlyph name="Obreve" xMin="63" yMin="-11" xMax="772" yMax="956">
      <component glyphName="O" x="0" y="0" flags="0x204"/>
      <component glyphName="breve" x="149" y="184" flags="0x4"/>
    </TTGlyph>
    <TTGlyph name="Ocircumflex" xMin="63" yMin="-11" xMax="772" yMax="934">
      <component glyphName="O" x="0" y="0" flags="0x204"/>
      <component glyphName="circumflex" x="147" y="184" flags="0x4"/>
    </TTGlyph>
    <TTGlyph name="Odieresis" xMin="63" yMin="-11" xMax="772" yMax="950">
      <component glyphName="O" x="0" y="0" flags="0x204"/>
      <component glyphName="dieresis" x="106" y="184" flags="0x4"/>
    </TTGlyph>
    <TTGlyph name="Ograve" xMin="63" yMin="-11" xMax="772" yMax="931">
      <component glyphName="O" x="0" y="0" flags="0x204"/>
      <component glyphName="grave" x="121" y="184" flags="0x4"/>
    </TTGlyph>
    <TTGlyph name="Ohungarumlaut" xMin="63" yMin="-11" xMax="813" yMax="930">
      <component glyphName="O" x="0" y="0" flags="0x204"/>
      <component glyphName="hungarumlaut" x="156" y="184" flags="0x4"/>
    </TTGlyph>
    <TTGlyph name="Omacron" xMin="63" yMin="-11" xMax="772" yMax="910">
      <component glyphName="O" x="0" y="0" flags="0x204"/>
      <component glyphName="macron" x="149" y="184" flags="0x4"/>
    </TTGlyph>
    <TTGlyph name="Oslash" xMin="-17" yMin="-11" xMax="860" yMax="711">
      <contour>
        <pt x="128" y="-5" on="1"/>
        <pt x="-17" y="-5" on="1"/>
        <pt x="120" y="128" on="1"/>
        <pt x="93" y="168" on="0"/>
        <pt x="63" y="266" on="0"/>
        <pt x="63" y="320" on="1"/>
        <pt x="63" y="400" on="0"/>
        <pt x="124" y="543" on="0"/>
        <pt x="227" y="649" on="0"/>
        <pt x="366" y="711" on="0"/>
        <pt x="444" y="711" on="1"/>
        <pt x="503" y="711" on="0"/>
        <pt x="608" y="675" on="0"/>
        <pt x="650" y="642" on="1"/>
        <pt x="714" y="705" on="1"/>
        <pt x="860" y="705" on="1"/>
        <pt x="718" y="568" on="1"/>
        <pt x="743" y="528" on="0"/>
        <pt x="772" y="433" on="0"/>
        <pt x="772" y="380" on="1"/>
        <pt x="772" y="300" on="0"/>
        <pt x="712" y="157" on="0"/>
        <pt x="609" y="51" on="0"/>
        <pt x="470" y="-11" on="0"/>
        <pt x="392" y="-11" on="1"/>
        <pt x="334" y="-11" on="0"/>
        <pt x="231" y="24" on="0"/>
        <pt x="190" y="55" on="1"/>
      </contour>
      <contour>
        <pt x="237" y="331" on="1"/>
        <pt x="237" y="310" on="0"/>
        <pt x="244" y="271" on="0"/>
        <pt x="250" y="254" on="1"/>
        <pt x="530" y="526" on="1"/>
        <pt x="510" y="541" on="0"/>
        <pt x="461" y="558" on="0"/>
        <pt x="433" y="558" on="1"/>
        <pt x="392" y="558" on="0"/>
        <pt x="321" y="522" on="0"/>
        <pt x="268" y="461" on="0"/>
        <pt x="237" y="378" on="0"/>
      </contour>
      <contour>
        <pt x="599" y="369" on="1"/>
        <pt x="599" y="388" on="0"/>
        <pt x="593" y="425" on="0"/>
        <pt x="588" y="441" on="1"/>
        <pt x="310" y="172" on="1"/>
        <pt x="329" y="158" on="0"/>
        <pt x="377" y="142" on="0"/>
        <pt x="403" y="142" on="1"/>
        <pt x="444" y="142" on="0"/>
        <pt x="515" y="178" on="0"/>
        <pt x="568" y="239" on="0"/>
        <pt x="599" y="322" on="0"/>
      </contour>
    </TTGlyph>
    <TTGlyph name="Otilde" xMin="63" yMin="-11" xMax="772" yMax="944">
      <component glyphName="O" x="0" y="0" flags="0x204"/>
      <component glyphName="tilde" x="152" y="184" flags="0x4"/>
    </TTGlyph>
    <TTGlyph name="P" xMin="21" yMin="0" xMax="699" yMax="700">
      <contour>
        <pt x="21" y="0" on="1"/>
        <pt x="170" y="700" on="1"/>
        <pt x="469" y="700" on="1"/>
        <pt x="573" y="700" on="0"/>
        <pt x="699" y="585" on="0"/>
        <pt x="699" y="489" on="1"/>
        <pt x="699" y="437" on="0"/>
        <pt x="657" y="347" on="0"/>
        <pt x="583" y="282" on="0"/>
        <pt x="483" y="244" on="0"/>
        <pt x="425" y="244" on="1"/>
        <pt x="241" y="244" on="1"/>
        <pt x="189" y="0" on="1"/>
      </contour>
      <contour>
        <pt x="429" y="558" on="1"/>
        <pt x="308" y="558" on="1"/>
        <pt x="270" y="381" on="1"/>
        <pt x="411" y="381" on="1"/>
        <pt x="463" y="381" on="0"/>
        <pt x="527" y="434" on="0"/>
        <pt x="527" y="477" on="1"/>
        <pt x="527" y="515" on="0"/>
        <pt x="475" y="558" on="0"/>
      </contour>
    </TTGlyph>
    <TTGlyph name="Q" xMin="63" yMin="-55" xMax="772" yMax="711">
      <contour>
        <pt x="772" y="380" on="1"/>
        <pt x="772" y="289" on="0"/>
        <pt x="695" y="130" on="0"/>
        <pt x="630" y="76" on="1"/>
        <pt x="678" y="-3" on="1"/>
        <pt x="548" y="-55" on="1"/>
        <pt x="510" y="8" on="1"/>
        <pt x="482" y="-1" on="0"/>
        <pt x="423" y="-11" on="0"/>
        <pt x="392" y="-11" on="1"/>
        <pt x="322" y="-11" on="0"/>
        <pt x="201" y="39" on="0"/>
        <pt x="113" y="127" on="0"/>
        <pt x="63" y="249" on="0"/>
        <pt x="63" y="320" on="1"/>
        <pt x="63" y="400" on="0"/>
        <pt x="124" y="543" on="0"/>
        <pt x="227" y="649" on="0"/>
        <pt x="366" y="711" on="0"/>
        <pt x="444" y="711" on="1"/>
        <pt x="514" y="711" on="0"/>
        <pt x="635" y="661" on="0"/>
        <pt x="722" y="573" on="0"/>
        <pt x="772" y="451" on="0"/>
      </contour>
      <contour>
        <pt x="504" y="284" on="1"/>
        <pt x="547" y="214" on="1"/>
        <pt x="571" y="244" on="0"/>
        <pt x="599" y="324" on="0"/>
        <pt x="599" y="369" on="1"/>
        <pt x="599" y="451" on="0"/>
        <pt x="505" y="558" on="0"/>
        <pt x="433" y="558" on="1"/>
        <pt x="392" y="558" on="0"/>
        <pt x="321" y="522" on="0"/>
        <pt x="268" y="461" on="0"/>
        <pt x="237" y="378" on="0"/>
        <pt x="237" y="331" on="1"/>
        <pt x="237" y="249" on="0"/>
        <pt x="331" y="142" on="0"/>
        <pt x="403" y="142" on="1"/>
        <pt x="410" y="142" on="0"/>
        <pt x="422" y="143" on="0"/>
        <pt x="428" y="144" on="1"/>
        <pt x="375" y="232" on="1"/>
      </contour>
    </TTGlyph>
    <TTGlyph name="R" xMin="21" yMin="0" xMax="699" yMax="700">
      <contour>
        <pt x="21" y="0" on="1"/>
        <pt x="170" y="700" on="1"/>
        <pt x="478" y="700" on="1"/>
        <pt x="576" y="700" on="0"/>
        <pt x="699" y="587" on="0"/>
        <pt x="699" y="497" on="1"/>
        <pt x="699" y="418" on="0"/>
        <pt x="599" y="294" on="0"/>
        <pt x="521" y="271" on="1"/>
        <pt x="622" y="0" on="1"/>
        <pt x="444" y="0" on="1"/>
        <pt x="359" y="259" on="1"/>
        <pt x="244" y="259" on="1"/>
        <pt x="189" y="0" on="1"/>
      </contour>
      <contour>
        <pt x="448" y="558" on="1"/>
        <pt x="308" y="558" on="1"/>
        <pt x="273" y="394" on="1"/>
        <pt x="431" y="394" on="1"/>
        <pt x="472" y="394" on="0"/>
        <pt x="527" y="444" on="0"/>
        <pt x="527" y="482" on="1"/>
        <pt x="527" y="517" on="0"/>
        <pt x="484" y="558" on="0"/>
      </contour>
    </TTGlyph>
    <TTGlyph name="Racute" xMin="21" yMin="0" xMax="714" yMax="931">
      <component glyphName="R" x="0" y="0" flags="0x204"/>
      <component glyphName="acute" x="146" y="184" flags="0x4"/>
    </TTGlyph>
    <TTGlyph name="Rcaron" xMin="21" yMin="0" xMax="699" yMax="939">
      <component glyphName="R" x="0" y="0" flags="0x204"/>
      <component glyphName="caron" x="118" y="184" flags="0x4"/>
    </TTGlyph>
    <TTGlyph name="Rcommaaccent" xMin="21" yMin="-305" xMax="699" yMax="700">
      <component glyphName="R" x="0" y="0" flags="0x204"/>
      <component glyphName="commaaccent" x="205" y="0" flags="0x4"/>
    </TTGlyph>
    <TTGlyph name="S" xMin="3" yMin="-10" xMax="642" yMax="710">
      <contour>
        <pt x="3" y="118" on="1"/>
        <pt x="105" y="238" on="1"/>
        <pt x="171" y="180" on="0"/>
        <pt x="279" y="128" on="0"/>
        <pt x="333" y="128" on="1"/>
        <pt x="380" y="128" on="0"/>
        <pt x="438" y="171" on="0"/>
        <pt x="438" y="205" on="1"/>
        <pt x="438" y="230" on="0"/>
        <pt x="403" y="260" on="0"/>
        <pt x="358" y="273" on="1"/>
        <pt x="217" y="310" on="1"/>
        <pt x="148" y="330" on="0"/>
        <pt x="73" y="419" on="0"/>
        <pt x="73" y="482" on="1"/>
        <pt x="73" y="586" on="0"/>
        <pt x="218" y="710" on="0"/>
        <pt x="340" y="710" on="1"/>
        <pt x="430" y="710" on="0"/>
        <pt x="588" y="651" on="0"/>
        <pt x="642" y="597" on="1"/>
        <pt x="540" y="479" on="1"/>
        <pt x="494" y="525" on="0"/>
        <pt x="388" y="571" on="0"/>
        <pt x="328" y="571" on="1"/>
        <pt x="285" y="571" on="0"/>
        <pt x="234" y="535" on="0"/>
        <pt x="234" y="504" on="1"/>
        <pt x="234" y="482" on="0"/>
        <pt x="268" y="453" on="0"/>
        <pt x="305" y="443" on="1"/>
        <pt x="437" y="410" on="1"/>
        <pt x="519" y="389" on="0"/>
        <pt x="606" y="296" on="0"/>
        <pt x="606" y="228" on="1"/>
        <pt x="606" y="175" on="0"/>
        <pt x="564" y="87" on="0"/>
        <pt x="489" y="25" on="0"/>
        <pt x="383" y="-10" on="0"/>
        <pt x="320" y="-10" on="1"/>
        <pt x="227" y="-10" on="0"/>
        <pt x="72" y="52" on="0"/>
      </contour>
    </TTGlyph>
    <TTGlyph name="Sacute" xMin="3" yMin="-10" xMax="642" yMax="931">
      <component glyphName="S" x="0" y="0" flags="0x204"/>
      <component glyphName="acute" x="71" y="184" flags="0x4"/>
    </TTGlyph>
    <TTGlyph name="Scaron" xMin="3" yMin="-10" xMax="642" yMax="939">
      <component glyphName="S" x="0" y="0" flags="0x204"/>
      <component glyphName="caron" x="43" y="184" flags="0x4"/>
    </TTGlyph>
    <TTGlyph name="Scedilla" xMin="3" yMin="-253" xMax="642" yMax="710">
      <contour>
        <pt x="3" y="118" on="1"/>
        <pt x="105" y="238" on="1"/>
        <pt x="171" y="180" on="0"/>
        <pt x="279" y="128" on="0"/>
        <pt x="333" y="128" on="1"/>
        <pt x="380" y="128" on="0"/>
        <pt x="438" y="171" on="0"/>
        <pt x="438" y="205" on="1"/>
        <pt x="438" y="230" on="0"/>
        <pt x="403" y="260" on="0"/>
        <pt x="358" y="273" on="1"/>
        <pt x="217" y="310" on="1"/>
        <pt x="148" y="330" on="0"/>
        <pt x="73" y="419" on="0"/>
        <pt x="73" y="482" on="1"/>
        <pt x="73" y="586" on="0"/>
        <pt x="218" y="710" on="0"/>
        <pt x="340" y="710" on="1"/>
        <pt x="430" y="710" on="0"/>
        <pt x="588" y="651" on="0"/>
        <pt x="642" y="597" on="1"/>
        <pt x="540" y="479" on="1"/>
        <pt x="494" y="525" on="0"/>
        <pt x="388" y="571" on="0"/>
        <pt x="328" y="571" on="1"/>
        <pt x="285" y="571" on="0"/>
        <pt x="234" y="535" on="0"/>
        <pt x="234" y="504" on="1"/>
        <pt x="234" y="482" on="0"/>
        <pt x="268" y="453" on="0"/>
        <pt x="305" y="443" on="1"/>
        <pt x="437" y="410" on="1"/>
        <pt x="519" y="389" on="0"/>
        <pt x="606" y="296" on="0"/>
        <pt x="606" y="228" on="1"/>
        <pt x="606" y="177" on="0"/>
        <pt x="566" y="91" on="0"/>
        <pt x="494" y="28" on="0"/>
        <pt x="393" y="-8" on="0"/>
        <pt x="333" y="-10" on="1"/>
        <pt x="311" y="-59" on="1"/>
        <pt x="351" y="-64" on="0"/>
        <pt x="396" y="-105" on="0"/>
        <pt x="396" y="-136" on="1"/>
        <pt x="396" y="-185" on="0"/>
        <pt x="315" y="-253" on="0"/>
        <pt x="258" y="-253" on="1"/>
        <pt x="213" y="-253" on="0"/>
        <pt x="146" y="-230" on="0"/>
        <pt x="124" y="-205" on="1"/>
        <pt x="179" y="-150" on="1"/>
        <pt x="193" y="-165" on="0"/>
        <pt x="234" y="-182" on="0"/>
        <pt x="256" y="-182" on="1"/>
        <pt x="280" y="-182" on="0"/>
        <pt x="309" y="-161" on="0"/>
        <pt x="309" y="-144" on="1"/>
        <pt x="309" y="-128" on="0"/>
        <pt x="281" y="-109" on="0"/>
        <pt x="258" y="-109" on="1"/>
        <pt x="217" y="-109" on="1"/>
        <pt x="261" y="-7" on="1"/>
        <pt x="188" y="1" on="0"/>
        <pt x="60" y="63" on="0"/>
      </contour>
    </TTGlyph>
    <TTGlyph name="Scircumflex" xMin="3" yMin="-10" xMax="642" yMax="934">
      <component glyphName="S" x="0" y="0" flags="0x204"/>
      <component glyphName="circumflex" x="39" y="184" flags="0x4"/>
    </TTGlyph>
    <TTGlyph name="Scommaaccent" xMin="3" yMin="-305" xMax="642" yMax="710">
      <component glyphName="S" x="0" y="0" flags="0x204"/>
      <component glyphName="commaaccent" x="214" y="0" flags="0x4"/>
    </TTGlyph>
    <TTGlyph name="T" xMin="81" yMin="0" xMax="724" yMax="700">
      <contour>
        <pt x="81" y="553" on="1"/>
        <pt x="114" y="700" on="1"/>
        <pt x="724" y="700" on="1"/>
        <pt x="691" y="553" on="1"/>
        <pt x="473" y="553" on="1"/>
        <pt x="355" y="0" on="1"/>
        <pt x="186" y="0" on="1"/>
        <pt x="304" y="553" on="1"/>
      </contour>
    </TTGlyph>
    <TTGlyph name="Tbar" xMin="81" yMin="0" xMax="724" yMax="700">
      <contour>
        <pt x="148" y="399" on="1"/>
        <pt x="271" y="399" on="1"/>
        <pt x="304" y="553" on="1"/>
        <pt x="81" y="553" on="1"/>
        <pt x="114" y="700" on="1"/>
        <pt x="724" y="700" on="1"/>
        <pt x="691" y="553" on="1"/>
        <pt x="473" y="553" on="1"/>
        <pt x="440" y="399" on="1"/>
        <pt x="564" y="399" on="1"/>
        <pt x="536" y="274" on="1"/>
        <pt x="413" y="274" on="1"/>
        <pt x="355" y="0" on="1"/>
        <pt x="186" y="0" on="1"/>
        <pt x="244" y="274" on="1"/>
        <pt x="120" y="274" on="1"/>
      </contour>
    </TTGlyph>
    <TTGlyph name="Tcaron" xMin="81" yMin="0" xMax="724" yMax="939">
      <component glyphName="T" x="0" y="0" flags="0x204"/>
      <component glyphName="caron" x="110" y="184" flags="0x4"/>
    </TTGlyph>
    <TTGlyph name="Tcedilla" xMin="81" yMin="-253" xMax="724" yMax="700">
      <contour>
        <pt x="81" y="553" on="1"/>
        <pt x="114" y="700" on="1"/>
        <pt x="724" y="700" on="1"/>
        <pt x="691" y="553" on="1"/>
        <pt x="473" y="553" on="1"/>
        <pt x="355" y="0" on="1"/>
        <pt x="305" y="0" on="1"/>
        <pt x="279" y="-59" on="1"/>
        <pt x="319" y="-64" on="0"/>
        <pt x="364" y="-105" on="0"/>
        <pt x="364" y="-136" on="1"/>
        <pt x="364" y="-185" on="0"/>
        <pt x="283" y="-253" on="0"/>
        <pt x="226" y="-253" on="1"/>
        <pt x="181" y="-253" on="0"/>
        <pt x="114" y="-230" on="0"/>
        <pt x="92" y="-205" on="1"/>
        <pt x="147" y="-150" on="1"/>
        <pt x="161" y="-165" on="0"/>
        <pt x="202" y="-182" on="0"/>
        <pt x="224" y="-182" on="1"/>
        <pt x="248" y="-182" on="0"/>
        <pt x="277" y="-161" on="0"/>
        <pt x="277" y="-144" on="1"/>
        <pt x="277" y="-128" on="0"/>
        <pt x="249" y="-109" on="0"/>
        <pt x="226" y="-109" on="1"/>
        <pt x="185" y="-109" on="1"/>
        <pt x="232" y="0" on="1"/>
        <pt x="186" y="0" on="1"/>
        <pt x="304" y="553" on="1"/>
      </contour>
    </TTGlyph>
    <TTGlyph name="Thorn" xMin="22" yMin="0" xMax="642" yMax="700">
      <contour>
        <pt x="22" y="0" on="1"/>
        <pt x="171" y="700" on="1"/>
        <pt x="339" y="700" on="1"/>
        <pt x="313" y="579" on="1"/>
        <pt x="420" y="579" on="1"/>
        <pt x="520" y="579" on="0"/>
        <pt x="642" y="466" on="0"/>
        <pt x="642" y="373" on="1"/>
        <pt x="642" y="319" on="0"/>
        <pt x="602" y="227" on="0"/>
        <pt x="531" y="161" on="0"/>
        <pt x="433" y="123" on="0"/>
        <pt x="376" y="123" on="1"/>
        <pt x="216" y="123" on="1"/>
        <pt x="190" y="0" on="1"/>
      </contour>
      <contour>
        <pt x="378" y="437" on="1"/>
        <pt x="283" y="437" on="1"/>
        <pt x="245" y="260" on="1"/>
        <pt x="360" y="260" on="1"/>
        <pt x="411" y="260" on="0"/>
        <pt x="470" y="314" on="0"/>
        <pt x="470" y="361" on="1"/>
        <pt x="470" y="397" on="0"/>
        <pt x="421" y="437" on="0"/>
      </contour>
    </TTGlyph>
    <TTGlyph name="U" xMin="69" yMin="-9" xMax="764" yMax="700">
      <contour>
        <pt x="673" y="272" on="1"/>
        <pt x="645" y="141" on="0"/>
        <pt x="469" y="-9" on="0"/>
        <pt x="342" y="-9" on="1"/>
        <pt x="267" y="-9" on="0"/>
        <pt x="153" y="41" on="0"/>
        <pt x="84" y="132" on="0"/>
        <pt x="63" y="260" on="0"/>
        <pt x="79" y="337" on="1"/>
        <pt x="156" y="700" on="1"/>
        <pt x="325" y="700" on="1"/>
        <pt x="244" y="319" on="1"/>
        <pt x="227" y="240" on="0"/>
        <pt x="288" y="144" on="0"/>
        <pt x="354" y="144" on="1"/>
        <pt x="409" y="144" on="0"/>
        <pt x="496" y="224" on="0"/>
        <pt x="509" y="289" on="1"/>
        <pt x="596" y="700" on="1"/>
        <pt x="764" y="700" on="1"/>
      </contour>
    </TTGlyph>
    <TTGlyph name="Uacute" xMin="69" yMin="-9" xMax="764" yMax="931">
      <component glyphName="U" x="0" y="0" flags="0x204"/>
      <component glyphName="acute" x="166" y="184" flags="0x4"/>
    </TTGlyph>
    <TTGlyph name="Ubreve" xMin="69" yMin="-9" xMax="764" yMax="956">
      <component glyphName="U" x="0" y="0" flags="0x204"/>
      <component glyphName="breve" x="136" y="184" flags="0x4"/>
    </TTGlyph>
    <TTGlyph name="Ucircumflex" xMin="69" yMin="-9" xMax="764" yMax="934">
      <component glyphName="U" x="0" y="0" flags="0x204"/>
      <component glyphName="circumflex" x="134" y="184" flags="0x4"/>
    </TTGlyph>
    <TTGlyph name="Udieresis" xMin="69" yMin="-9" xMax="764" yMax="950">
      <component glyphName="U" x="0" y="0" flags="0x204"/>
      <component glyphName="dieresis" x="93" y="184" flags="0x4"/>
    </TTGlyph>
    <TTGlyph name="Ugrave" xMin="69" yMin="-9" xMax="764" yMax="931">
      <component glyphName="U" x="0" y="0" flags="0x204"/>
      <component glyphName="grave" x="108" y="184" flags="0x4"/>
    </TTGlyph>
    <TTGlyph name="Uhungarumlaut" xMin="69" yMin="-9" xMax="800" yMax="930">
      <component glyphName="U" x="0" y="0" flags="0x204"/>
      <component glyphName="hungarumlaut" x="143" y="184" flags="0x4"/>
    </TTGlyph>
    <TTGlyph name="Umacron" xMin="69" yMin="-9" xMax="764" yMax="910">
      <component glyphName="U" x="0" y="0" flags="0x204"/>
      <component glyphName="macron" x="136" y="184" flags="0x4"/>
    </TTGlyph>
    <TTGlyph name="Uogonek" xMin="69" yMin="-231" xMax="764" yMax="700">
      <contour>
        <pt x="673" y="272" on="1"/>
        <pt x="649" y="161" on="0"/>
        <pt x="513" y="17" on="0"/>
        <pt x="414" y="-2" on="1"/>
        <pt x="364" y="-30" on="0"/>
        <pt x="313" y="-86" on="0"/>
        <pt x="313" y="-113" on="1"/>
        <pt x="313" y="-130" on="0"/>
        <pt x="334" y="-149" on="0"/>
        <pt x="353" y="-149" on="1"/>
        <pt x="366" y="-149" on="0"/>
        <pt x="392" y="-143" on="0"/>
        <pt x="400" y="-138" on="1"/>
        <pt x="405" y="-208" on="1"/>
        <pt x="386" y="-218" on="0"/>
        <pt x="335" y="-231" on="0"/>
        <pt x="309" y="-231" on="1"/>
        <pt x="269" y="-231" on="0"/>
        <pt x="221" y="-189" on="0"/>
        <pt x="221" y="-153" on="1"/>
        <pt x="221" y="-113" on="0"/>
        <pt x="272" y="-42" on="0"/>
        <pt x="323" y="-9" on="1"/>
        <pt x="252" y="-6" on="0"/>
        <pt x="146" y="48" on="0"/>
        <pt x="82" y="138" on="0"/>
        <pt x="63" y="263" on="0"/>
        <pt x="79" y="337" on="1"/>
        <pt x="156" y="700" on="1"/>
        <pt x="325" y="700" on="1"/>
        <pt x="244" y="319" on="1"/>
        <pt x="227" y="240" on="0"/>
        <pt x="288" y="144" on="0"/>
        <pt x="354" y="144" on="1"/>
        <pt x="409" y="144" on="0"/>
        <pt x="496" y="224" on="0"/>
        <pt x="509" y="289" on="1"/>
        <pt x="596" y="700" on="1"/>
        <pt x="764" y="700" on="1"/>
      </contour>
    </TTGlyph>
    <TTGlyph name="Uring" xMin="69" yMin="-9" xMax="764" yMax="1018">
      <component glyphName="U" x="0" y="0" flags="0x204"/>
      <component glyphName="ring" x="136" y="184" flags="0x4"/>
    </TTGlyph>
    <TTGlyph name="Utilde" xMin="69" yMin="-9" xMax="764" yMax="944">
      <component glyphName="U" x="0" y="0" flags="0x204"/>
      <component glyphName="tilde" x="139" y="184" flags="0x4"/>
    </TTGlyph>
    <TTGlyph name="V" xMin="95" yMin="0" xMax="818" yMax="700">
      <contour>
        <pt x="213" y="0" on="1"/>
        <pt x="95" y="700" on="1"/>
        <pt x="270" y="700" on="1"/>
        <pt x="345" y="179" on="1"/>
        <pt x="635" y="700" on="1"/>
        <pt x="818" y="700" on="1"/>
        <pt x="406" y="0" on="1"/>
      </contour>
    </TTGlyph>
    <TTGlyph name="W" xMin="123" yMin="0" xMax="1027" yMax="700">
      <contour>
        <pt x="305" y="0" on="1"/>
        <pt x="127" y="0" on="1"/>
        <pt x="123" y="700" on="1"/>
        <pt x="290" y="700" on="1"/>
        <pt x="282" y="265" on="1"/>
        <pt x="493" y="700" on="1"/>
        <pt x="651" y="700" on="1"/>
        <pt x="679" y="267" on="1"/>
        <pt x="854" y="700" on="1"/>
        <pt x="1027" y="700" on="1"/>
        <pt x="726" y="0" on="1"/>
        <pt x="547" y="0" on="1"/>
        <pt x="521" y="452" on="1"/>
      </contour>
    </TTGlyph>
    <TTGlyph name="Wacute" xMin="123" yMin="0" xMax="1027" yMax="931">
      <component glyphName="W" x="0" y="0" flags="0x204"/>
      <component glyphName="acute" x="292" y="184" flags="0x4"/>
    </TTGlyph>
    <TTGlyph name="Wcircumflex" xMin="123" yMin="0" xMax="1027" yMax="934">
      <component glyphName="W" x="0" y="0" flags="0x204"/>
      <component glyphName="circumflex" x="260" y="184" flags="0x4"/>
    </TTGlyph>
    <TTGlyph name="Wdieresis" xMin="123" yMin="0" xMax="1027" yMax="950">
      <component glyphName="W" x="0" y="0" flags="0x204"/>
      <component glyphName="dieresis" x="219" y="184" flags="0x4"/>
    </TTGlyph>
    <TTGlyph name="Wgrave" xMin="123" yMin="0" xMax="1027" yMax="931">
      <component glyphName="W" x="0" y="0" flags="0x204"/>
      <component glyphName="grave" x="234" y="184" flags="0x4"/>
    </TTGlyph>
    <TTGlyph name="X" xMin="-46" yMin="0" xMax="814" yMax="700">
      <contour>
        <pt x="157" y="0" on="1"/>
        <pt x="-46" y="0" on="1"/>
        <pt x="297" y="363" on="1"/>
        <pt x="119" y="700" on="1"/>
        <pt x="309" y="700" on="1"/>
        <pt x="417" y="486" on="1"/>
        <pt x="610" y="700" on="1"/>
        <pt x="814" y="700" on="1"/>
        <pt x="487" y="354" on="1"/>
        <pt x="674" y="0" on="1"/>
        <pt x="484" y="0" on="1"/>
        <pt x="367" y="233" on="1"/>
      </contour>
    </TTGlyph>
    <TTGlyph name="Y" xMin="92" yMin="0" xMax="818" yMax="700">
      <contour>
        <pt x="221" y="0" on="1"/>
        <pt x="277" y="265" on="1"/>
        <pt x="92" y="700" on="1"/>
        <pt x="271" y="700" on="1"/>
        <pt x="386" y="414" on="1"/>
        <pt x="620" y="700" on="1"/>
        <pt x="818" y="700" on="1"/>
        <pt x="446" y="266" on="1"/>
        <pt x="390" y="0" on="1"/>
      </contour>
    </TTGlyph>
    <TTGlyph name="Yacute" xMin="92" yMin="0" xMax="818" yMax="931">
      <component glyphName="Y" x="0" y="0" flags="0x204"/>
      <component glyphName="acute" x="159" y="184" flags="0x4"/>
    </TTGlyph>
    <TTGlyph name="Ycircumflex" xMin="92" yMin="0" xMax="818" yMax="934">
      <component glyphName="Y" x="0" y="0" flags="0x204"/>
      <component glyphName="circumflex" x="127" y="184" flags="0x4"/>
    </TTGlyph>
    <TTGlyph name="Ydieresis" xMin="92" yMin="0" xMax="818" yMax="950">
      <component glyphName="Y" x="0" y="0" flags="0x204"/>
      <component glyphName="dieresis" x="86" y="184" flags="0x4"/>
    </TTGlyph>
    <TTGlyph name="Ygrave" xMin="92" yMin="0" xMax="818" yMax="931">
      <component glyphName="Y" x="0" y="0" flags="0x204"/>
      <component glyphName="grave" x="101" y="184" flags="0x4"/>
    </TTGlyph>
    <TTGlyph name="Z" xMin="-27" yMin="0" xMax="677" yMax="700">
      <contour>
        <pt x="-27" y="0" on="1"/>
        <pt x="-2" y="112" on="1"/>
        <pt x="419" y="559" on="1"/>
        <pt x="92" y="556" on="1"/>
        <pt x="124" y="700" on="1"/>
        <pt x="677" y="700" on="1"/>
        <pt x="652" y="588" on="1"/>
        <pt x="231" y="141" on="1"/>
        <pt x="563" y="144" on="1"/>
        <pt x="531" y="0" on="1"/>
      </contour>
    </TTGlyph>
    <TTGlyph name="Zacute" xMin="-27" yMin="0" xMax="677" yMax="931">
      <component glyphName="Z" x="0" y="0" flags="0x204"/>
      <component glyphName="acute" x="94" y="184" flags="0x4"/>
    </TTGlyph>
    <TTGlyph name="Zcaron" xMin="-27" yMin="0" xMax="677" yMax="939">
      <component glyphName="Z" x="0" y="0" flags="0x204"/>
      <component glyphName="caron" x="66" y="184" flags="0x4"/>
    </TTGlyph>
    <TTGlyph name="Zdotaccent" xMin="-27" yMin="0" xMax="677" yMax="950">
      <component glyphName="Z" x="0" y="0" flags="0x204"/>
      <component glyphName="dotaccent" x="165" y="184" flags="0x4"/>
    </TTGlyph>
    <TTGlyph name="a" xMin="18" yMin="-4" xMax="527" yMax="523">
      <contour>
        <pt x="177" y="-4" on="1"/>
        <pt x="104" y="-4" on="0"/>
        <pt x="18" y="71" on="0"/>
        <pt x="18" y="135" on="1"/>
        <pt x="18" y="212" on="0"/>
        <pt x="130" y="300" on="0"/>
        <pt x="227" y="301" on="1"/>
        <pt x="260" y="301" on="0"/>
        <pt x="327" y="288" on="0"/>
        <pt x="358" y="277" on="1"/>
        <pt x="363" y="302" on="1"/>
        <pt x="373" y="348" on="0"/>
        <pt x="322" y="392" on="0"/>
        <pt x="262" y="392" on="1"/>
        <pt x="236" y="392" on="0"/>
        <pt x="173" y="379" on="0"/>
        <pt x="131" y="366" on="1"/>
        <pt x="95" y="480" on="1"/>
        <pt x="155" y="502" on="0"/>
        <pt x="259" y="523" on="0"/>
        <pt x="305" y="523" on="1"/>
        <pt x="427" y="523" on="0"/>
        <pt x="543" y="405" on="0"/>
        <pt x="521" y="303" on="1"/>
        <pt x="455" y="0" on="1"/>
        <pt x="298" y="0" on="1"/>
        <pt x="308" y="44" on="1"/>
        <pt x="271" y="18" on="0"/>
        <pt x="211" y="-4" on="0"/>
      </contour>
      <contour>
        <pt x="163" y="148" on="1"/>
        <pt x="163" y="126" on="0"/>
        <pt x="204" y="100" on="0"/>
        <pt x="241" y="100" on="1"/>
        <pt x="263" y="100" on="0"/>
        <pt x="305" y="111" on="0"/>
        <pt x="324" y="122" on="1"/>
        <pt x="340" y="195" on="1"/>
        <pt x="321" y="200" on="0"/>
        <pt x="273" y="206" on="0"/>
        <pt x="248" y="206" on="1"/>
        <pt x="207" y="206" on="0"/>
        <pt x="163" y="176" on="0"/>
      </contour>
    </TTGlyph>
    <TTGlyph name="a.school" xMin="41" yMin="-3" xMax="624" yMax="519">
      <contour>
        <pt x="355" y="0" on="1"/>
        <pt x="365" y="48" on="1"/>
        <pt x="340" y="24" on="0"/>
        <pt x="272" y="-3" on="0"/>
        <pt x="235" y="-3" on="1"/>
        <pt x="194" y="-3" on="0"/>
        <pt x="123" y="34" on="0"/>
        <pt x="71" y="97" on="0"/>
        <pt x="41" y="184" on="0"/>
        <pt x="41" y="233" on="1"/>
        <pt x="41" y="292" on="0"/>
        <pt x="82" y="397" on="0"/>
        <pt x="153" y="474" on="0"/>
        <pt x="248" y="519" on="0"/>
        <pt x="302" y="519" on="1"/>
        <pt x="350" y="519" on="0"/>
        <pt x="426" y="478" on="0"/>
        <pt x="450" y="441" on="1"/>
        <pt x="466" y="516" on="1"/>
        <pt x="624" y="516" on="1"/>
        <pt x="512" y="0" on="1"/>
      </contour>
      <contour>
        <pt x="197" y="246" on="1"/>
        <pt x="197" y="196" on="0"/>
        <pt x="258" y="130" on="0"/>
        <pt x="305" y="130" on="1"/>
        <pt x="329" y="130" on="0"/>
        <pt x="370" y="146" on="0"/>
        <pt x="389" y="163" on="1"/>
        <pt x="428" y="341" on="1"/>
        <pt x="410" y="361" on="0"/>
        <pt x="358" y="385" on="0"/>
        <pt x="327" y="385" on="1"/>
        <pt x="272" y="385" on="0"/>
        <pt x="197" y="305" on="0"/>
      </contour>
    </TTGlyph>
    <TTGlyph name="aacute" xMin="18" yMin="-4" xMax="588" yMax="747">
      <component glyphName="a" x="0" y="0" flags="0x204"/>
      <component glyphName="acute" x="20" y="0" flags="0x4"/>
    </TTGlyph>
    <TTGlyph name="aacute.school" xMin="41" yMin="-3" xMax="626" yMax="747">
      <component glyphName="a.school" x="0" y="0" flags="0x204"/>
      <component glyphName="acute" x="58" y="0" flags="0x4"/>
    </TTGlyph>
    <TTGlyph name="abreve" xMin="18" yMin="-4" xMax="527" yMax="772">
      <component glyphName="a" x="0" y="0" flags="0x204"/>
      <component glyphName="breve" x="-10" y="0" flags="0x4"/>
    </TTGlyph>
    <TTGlyph name="abreve.school" xMin="41" yMin="-3" xMax="624" yMax="772">
      <component glyphName="a.school" x="0" y="0" flags="0x204"/>
      <component glyphName="breve" x="28" y="0" flags="0x4"/>
    </TTGlyph>
    <TTGlyph name="acircumflex" xMin="18" yMin="-4" xMax="527" yMax="750">
      <component glyphName="a" x="0" y="0" flags="0x204"/>
      <component glyphName="circumflex" x="-12" y="0" flags="0x4"/>
    </TTGlyph>
    <TTGlyph name="acircumflex.school" xMin="41" yMin="-3" xMax="624" yMax="750">
      <component glyphName="a.school" x="0" y="0" flags="0x204"/>
      <component glyphName="circumflex" x="26" y="0" flags="0x4"/>
    </TTGlyph>
    <TTGlyph name="acute" xMin="207" yMin="601" xMax="568" yMax="747">
      <contour>
        <pt x="374" y="747" on="1"/>
        <pt x="568" y="747" on="1"/>
        <pt x="351" y="601" on="1"/>
        <pt x="207" y="601" on="1"/>
      </contour>
    </TTGlyph>
    <TTGlyph name="adieresis" xMin="18" yMin="-4" xMax="527" yMax="766">
      <component glyphName="a" x="0" y="0" flags="0x204"/>
      <component glyphName="dieresis" x="-53" y="0" flags="0x4"/>
    </TTGlyph>
    <TTGlyph name="adieresis.school" xMin="41" yMin="-3" xMax="624" yMax="766">
      <component glyphName="a.school" x="0" y="0" flags="0x204"/>
      <component glyphName="dieresis" x="-15" y="0" flags="0x4"/>
    </TTGlyph>
    <TTGlyph name="ae" xMin="32" yMin="-11" xMax="851" yMax="524">
      <contour>
        <pt x="201" y="-5" on="1"/>
        <pt x="125" y="-5" on="0"/>
        <pt x="32" y="72" on="0"/>
        <pt x="32" y="135" on="1"/>
        <pt x="32" y="211" on="0"/>
        <pt x="142" y="300" on="0"/>
        <pt x="237" y="301" on="1"/>
        <pt x="267" y="301" on="0"/>
        <pt x="325" y="292" on="0"/>
        <pt x="351" y="284" on="1"/>
        <pt x="352" y="289" on="0"/>
        <pt x="355" y="300" on="0"/>
        <pt x="356" y="306" on="1"/>
        <pt x="357" y="310" on="1"/>
        <pt x="365" y="349" on="0"/>
        <pt x="312" y="392" on="0"/>
        <pt x="256" y="392" on="1"/>
        <pt x="231" y="392" on="0"/>
        <pt x="171" y="379" on="0"/>
        <pt x="128" y="366" on="1"/>
        <pt x="92" y="480" on="1"/>
        <pt x="155" y="502" on="0"/>
        <pt x="258" y="523" on="0"/>
        <pt x="304" y="523" on="1"/>
        <pt x="356" y="523" on="0"/>
        <pt x="434" y="492" on="0"/>
        <pt x="458" y="464" on="1"/>
        <pt x="493" y="492" on="0"/>
        <pt x="579" y="524" on="0"/>
        <pt x="626" y="524" on="1"/>
        <pt x="726" y="524" on="0"/>
        <pt x="851" y="395" on="0"/>
        <pt x="851" y="293" on="1"/>
        <pt x="851" y="270" on="0"/>
        <pt x="848" y="233" on="0"/>
        <pt x="845" y="217" on="1"/>
        <pt x="499" y="217" on="1"/>
        <pt x="506" y="172" on="0"/>
        <pt x="569" y="117" on="0"/>
        <pt x="615" y="117" on="1"/>
        <pt x="644" y="117" on="0"/>
        <pt x="694" y="136" on="0"/>
        <pt x="712" y="155" on="1"/>
        <pt x="799" y="57" on="1"/>
        <pt x="750" y="21" on="0"/>
        <pt x="654" y="-11" on="0"/>
        <pt x="598" y="-11" on="1"/>
        <pt x="538" y="-11" on="0"/>
        <pt x="440" y="32" on="0"/>
        <pt x="406" y="70" on="1"/>
        <pt x="356" y="30" on="0"/>
        <pt x="258" y="-5" on="0"/>
      </contour>
      <contour>
        <pt x="617" y="397" on="1"/>
        <pt x="580" y="397" on="0"/>
        <pt x="523" y="348" on="0"/>
        <pt x="509" y="308" on="1"/>
        <pt x="711" y="308" on="1"/>
        <pt x="705" y="349" on="0"/>
        <pt x="655" y="397" on="0"/>
      </contour>
      <contour>
        <pt x="173" y="148" on="1"/>
        <pt x="173" y="126" on="0"/>
        <pt x="214" y="100" on="0"/>
        <pt x="251" y="100" on="1"/>
        <pt x="280" y="100" on="0"/>
        <pt x="339" y="120" on="0"/>
        <pt x="364" y="137" on="1"/>
        <pt x="359" y="150" on="0"/>
        <pt x="351" y="180" on="0"/>
        <pt x="350" y="195" on="1"/>
        <pt x="330" y="200" on="0"/>
        <pt x="283" y="206" on="0"/>
        <pt x="258" y="206" on="1"/>
        <pt x="217" y="206" on="0"/>
        <pt x="173" y="176" on="0"/>
      </contour>
    </TTGlyph>
    <TTGlyph name="agrave" xMin="18" yMin="-4" xMax="527" yMax="747">
      <component glyphName="a" x="0" y="0" flags="0x204"/>
      <component glyphName="grave" x="-38" y="0" flags="0x4"/>
    </TTGlyph>
    <TTGlyph name="agrave.school" xMin="41" yMin="-3" xMax="624" yMax="747">
      <component glyphName="a.school" x="0" y="0" flags="0x204"/>
      <component glyphName="grave" x="0" y="0" flags="0x4"/>
    </TTGlyph>
    <TTGlyph name="amacron" xMin="18" yMin="-4" xMax="527" yMax="726">
      <component glyphName="a" x="0" y="0" flags="0x204"/>
      <component glyphName="macron" x="-10" y="0" flags="0x4"/>
    </TTGlyph>
    <TTGlyph name="amacron.school" xMin="41" yMin="-3" xMax="624" yMax="726">
      <component glyphName="a.school" x="0" y="0" flags="0x204"/>
      <component glyphName="macron" x="28" y="0" flags="0x4"/>
    </TTGlyph>
    <TTGlyph name="ampersand" xMin="14" yMin="-16" xMax="670" yMax="709">
      <contour>
        <pt x="631" y="97" on="1"/>
        <pt x="524" y="-16" on="1"/>
        <pt x="506" y="-2" on="0"/>
        <pt x="469" y="31" on="0"/>
        <pt x="450" y="48" on="1"/>
        <pt x="405" y="20" on="0"/>
        <pt x="305" y="-10" on="0"/>
        <pt x="251" y="-10" on="1"/>
        <pt x="143" y="-10" on="0"/>
        <pt x="14" y="88" on="0"/>
        <pt x="14" y="172" on="1"/>
        <pt x="14" y="243" on="0"/>
        <pt x="96" y="348" on="0"/>
        <pt x="181" y="388" on="1"/>
        <pt x="166" y="418" on="0"/>
        <pt x="153" y="474" on="0"/>
        <pt x="153" y="502" on="1"/>
        <pt x="153" y="593" on="0"/>
        <pt x="277" y="709" on="0"/>
        <pt x="375" y="709" on="1"/>
        <pt x="456" y="709" on="0"/>
        <pt x="560" y="623" on="0"/>
        <pt x="560" y="557" on="1"/>
        <pt x="560" y="503" on="0"/>
        <pt x="494" y="412" on="0"/>
        <pt x="433" y="381" on="1"/>
        <pt x="378" y="354" on="1"/>
        <pt x="396" y="329" on="0"/>
        <pt x="442" y="274" on="0"/>
        <pt x="467" y="247" on="1"/>
        <pt x="486" y="273" on="0"/>
        <pt x="522" y="341" on="0"/>
        <pt x="540" y="381" on="1"/>
        <pt x="670" y="347" on="1"/>
        <pt x="644" y="288" on="0"/>
        <pt x="588" y="193" on="0"/>
        <pt x="559" y="157" on="1"/>
        <pt x="578" y="140" on="0"/>
        <pt x="614" y="110" on="0"/>
      </contour>
      <contour>
        <pt x="297" y="525" on="1"/>
        <pt x="297" y="507" on="0"/>
        <pt x="308" y="469" on="0"/>
        <pt x="319" y="447" on="1"/>
        <pt x="361" y="467" on="1"/>
        <pt x="387" y="480" on="0"/>
        <pt x="416" y="519" on="0"/>
        <pt x="416" y="540" on="1"/>
        <pt x="416" y="563" on="0"/>
        <pt x="385" y="591" on="0"/>
        <pt x="360" y="591" on="1"/>
        <pt x="332" y="591" on="0"/>
        <pt x="297" y="554" on="0"/>
      </contour>
      <contour>
        <pt x="163" y="192" on="1"/>
        <pt x="163" y="157" on="0"/>
        <pt x="221" y="115" on="0"/>
        <pt x="270" y="115" on="1"/>
        <pt x="294" y="115" on="0"/>
        <pt x="339" y="126" on="0"/>
        <pt x="361" y="137" on="1"/>
        <pt x="327" y="175" on="0"/>
        <pt x="265" y="254" on="0"/>
        <pt x="240" y="291" on="1"/>
        <pt x="200" y="271" on="0"/>
        <pt x="163" y="223" on="0"/>
      </contour>
    </TTGlyph>
    <TTGlyph name="aogonek" xMin="18" yMin="-231" xMax="527" yMax="523">
      <contour>
        <pt x="177" y="-4" on="1"/>
        <pt x="104" y="-4" on="0"/>
        <pt x="18" y="71" on="0"/>
        <pt x="18" y="135" on="1"/>
        <pt x="18" y="212" on="0"/>
        <pt x="130" y="300" on="0"/>
        <pt x="227" y="301" on="1"/>
        <pt x="260" y="301" on="0"/>
        <pt x="327" y="288" on="0"/>
        <pt x="358" y="277" on="1"/>
        <pt x="363" y="302" on="1"/>
        <pt x="373" y="348" on="0"/>
        <pt x="322" y="392" on="0"/>
        <pt x="262" y="392" on="1"/>
        <pt x="236" y="392" on="0"/>
        <pt x="173" y="379" on="0"/>
        <pt x="131" y="366" on="1"/>
        <pt x="95" y="480" on="1"/>
        <pt x="155" y="502" on="0"/>
        <pt x="259" y="523" on="0"/>
        <pt x="305" y="523" on="1"/>
        <pt x="427" y="523" on="0"/>
        <pt x="543" y="405" on="0"/>
        <pt x="521" y="303" on="1"/>
        <pt x="455" y="0" on="1"/>
        <pt x="403" y="-28" on="0"/>
        <pt x="350" y="-85" on="0"/>
        <pt x="350" y="-113" on="1"/>
        <pt x="350" y="-130" on="0"/>
        <pt x="371" y="-149" on="0"/>
        <pt x="390" y="-149" on="1"/>
        <pt x="403" y="-149" on="0"/>
        <pt x="429" y="-143" on="0"/>
        <pt x="437" y="-138" on="1"/>
        <pt x="442" y="-208" on="1"/>
        <pt x="423" y="-218" on="0"/>
        <pt x="372" y="-231" on="0"/>
        <pt x="346" y="-231" on="1"/>
        <pt x="306" y="-231" on="0"/>
        <pt x="258" y="-189" on="0"/>
        <pt x="258" y="-153" on="1"/>
        <pt x="258" y="-111" on="0"/>
        <pt x="316" y="-35" on="0"/>
        <pt x="374" y="0" on="1"/>
        <pt x="298" y="0" on="1"/>
        <pt x="308" y="44" on="1"/>
        <pt x="271" y="18" on="0"/>
        <pt x="211" y="-4" on="0"/>
      </contour>
      <contour>
        <pt x="163" y="148" on="1"/>
        <pt x="163" y="126" on="0"/>
        <pt x="204" y="100" on="0"/>
        <pt x="241" y="100" on="1"/>
        <pt x="263" y="100" on="0"/>
        <pt x="305" y="111" on="0"/>
        <pt x="324" y="122" on="1"/>
        <pt x="340" y="195" on="1"/>
        <pt x="321" y="200" on="0"/>
        <pt x="273" y="206" on="0"/>
        <pt x="248" y="206" on="1"/>
        <pt x="207" y="206" on="0"/>
        <pt x="163" y="176" on="0"/>
      </contour>
    </TTGlyph>
    <TTGlyph name="aogonek.school" xMin="41" yMin="-231" xMax="624" yMax="519">
      <contour>
        <pt x="355" y="0" on="1"/>
        <pt x="365" y="48" on="1"/>
        <pt x="340" y="24" on="0"/>
        <pt x="272" y="-3" on="0"/>
        <pt x="235" y="-3" on="1"/>
        <pt x="194" y="-3" on="0"/>
        <pt x="123" y="34" on="0"/>
        <pt x="71" y="97" on="0"/>
        <pt x="41" y="184" on="0"/>
        <pt x="41" y="233" on="1"/>
        <pt x="41" y="292" on="0"/>
        <pt x="82" y="397" on="0"/>
        <pt x="153" y="474" on="0"/>
        <pt x="248" y="519" on="0"/>
        <pt x="302" y="519" on="1"/>
        <pt x="350" y="519" on="0"/>
        <pt x="426" y="478" on="0"/>
        <pt x="450" y="441" on="1"/>
        <pt x="466" y="516" on="1"/>
        <pt x="624" y="516" on="1"/>
        <pt x="512" y="0" on="1"/>
        <pt x="460" y="-28" on="0"/>
        <pt x="407" y="-85" on="0"/>
        <pt x="407" y="-113" on="1"/>
        <pt x="407" y="-130" on="0"/>
        <pt x="428" y="-149" on="0"/>
        <pt x="447" y="-149" on="1"/>
        <pt x="460" y="-149" on="0"/>
        <pt x="486" y="-143" on="0"/>
        <pt x="494" y="-138" on="1"/>
        <pt x="499" y="-208" on="1"/>
        <pt x="480" y="-218" on="0"/>
        <pt x="429" y="-231" on="0"/>
        <pt x="403" y="-231" on="1"/>
        <pt x="363" y="-231" on="0"/>
        <pt x="315" y="-189" on="0"/>
        <pt x="315" y="-153" on="1"/>
        <pt x="315" y="-111" on="0"/>
        <pt x="373" y="-35" on="0"/>
        <pt x="431" y="0" on="1"/>
      </contour>
      <contour>
        <pt x="197" y="246" on="1"/>
        <pt x="197" y="196" on="0"/>
        <pt x="258" y="130" on="0"/>
        <pt x="305" y="130" on="1"/>
        <pt x="329" y="130" on="0"/>
        <pt x="370" y="146" on="0"/>
        <pt x="389" y="163" on="1"/>
        <pt x="428" y="341" on="1"/>
        <pt x="410" y="361" on="0"/>
        <pt x="358" y="385" on="0"/>
        <pt x="327" y="385" on="1"/>
        <pt x="272" y="385" on="0"/>
        <pt x="197" y="305" on="0"/>
      </contour>
    </TTGlyph>
    <TTGlyph name="aring" xMin="18" yMin="-4" xMax="527" yMax="834">
      <component glyphName="a" x="0" y="0" flags="0x204"/>
      <component glyphName="ring" x="-10" y="0" flags="0x4"/>
    </TTGlyph>
    <TTGlyph name="aring.school" xMin="41" yMin="-3" xMax="624" yMax="834">
      <component glyphName="a.school" x="0" y="0" flags="0x204"/>
      <component glyphName="ring" x="28" y="0" flags="0x4"/>
    </TTGlyph>
    <TTGlyph name="asciicircum" xMin="58" yMin="350" xMax="528" yMax="700">
      <contour>
        <pt x="58" y="350" on="1"/>
        <pt x="303" y="700" on="1"/>
        <pt x="432" y="700" on="1"/>
        <pt x="528" y="350" on="1"/>
        <pt x="409" y="350" on="1"/>
        <pt x="346" y="584" on="1"/>
        <pt x="184" y="350" on="1"/>
      </contour>
    </TTGlyph>
    <TTGlyph name="asciitilde" xMin="48" yMin="261" xMax="606" yMax="478">
      <contour>
        <pt x="310" y="446" on="1"/>
        <pt x="380" y="403" on="1"/>
        <pt x="398" y="392" on="0"/>
        <pt x="426" y="381" on="0"/>
        <pt x="437" y="381" on="1"/>
        <pt x="458" y="381" on="0"/>
        <pt x="489" y="414" on="0"/>
        <pt x="502" y="449" on="1"/>
        <pt x="606" y="425" on="1"/>
        <pt x="580" y="346" on="0"/>
        <pt x="495" y="261" on="0"/>
        <pt x="443" y="261" on="1"/>
        <pt x="421" y="261" on="0"/>
        <pt x="367" y="278" on="0"/>
        <pt x="343" y="293" on="1"/>
        <pt x="273" y="336" on="1"/>
        <pt x="254" y="348" on="0"/>
        <pt x="227" y="358" on="0"/>
        <pt x="216" y="358" on="1"/>
        <pt x="195" y="358" on="0"/>
        <pt x="163" y="325" on="0"/>
        <pt x="151" y="291" on="1"/>
        <pt x="48" y="314" on="1"/>
        <pt x="73" y="393" on="0"/>
        <pt x="157" y="478" on="0"/>
        <pt x="209" y="478" on="1"/>
        <pt x="231" y="478" on="0"/>
        <pt x="285" y="461" on="0"/>
      </contour>
    </TTGlyph>
    <TTGlyph name="asterisk" xMin="92" yMin="307" xMax="500" yMax="700">
      <contour>
        <pt x="397" y="344" on="1"/>
        <pt x="320" y="411" on="1"/>
        <pt x="300" y="307" on="1"/>
        <pt x="204" y="307" on="1"/>
        <pt x="228" y="415" on="1"/>
        <pt x="126" y="361" on="1"/>
        <pt x="92" y="453" on="1"/>
        <pt x="206" y="509" on="1"/>
        <pt x="117" y="582" on="1"/>
        <pt x="185" y="661" on="1"/>
        <pt x="265" y="592" on="1"/>
        <pt x="287" y="700" on="1"/>
        <pt x="382" y="700" on="1"/>
        <pt x="357" y="587" on="1"/>
        <pt x="463" y="644" on="1"/>
        <pt x="500" y="554" on="1"/>
        <pt x="382" y="494" on="1"/>
        <pt x="467" y="425" on="1"/>
      </contour>
    </TTGlyph>
    <TTGlyph name="at" xMin="40" yMin="-144" xMax="718" yMax="583">
      <contour>
        <pt x="334" y="47" on="1"/>
        <pt x="276" y="47" on="0"/>
        <pt x="195" y="138" on="0"/>
        <pt x="195" y="203" on="1"/>
        <pt x="195" y="242" on="0"/>
        <pt x="222" y="310" on="0"/>
        <pt x="267" y="359" on="0"/>
        <pt x="330" y="388" on="0"/>
        <pt x="366" y="388" on="1"/>
        <pt x="391" y="388" on="0"/>
        <pt x="435" y="372" on="0"/>
        <pt x="452" y="358" on="1"/>
        <pt x="455" y="375" on="1"/>
        <pt x="554" y="375" on="1"/>
        <pt x="512" y="167" on="1"/>
        <pt x="507" y="144" on="0"/>
        <pt x="527" y="119" on="0"/>
        <pt x="549" y="119" on="1"/>
        <pt x="592" y="119" on="0"/>
        <pt x="645" y="204" on="0"/>
        <pt x="645" y="272" on="1"/>
        <pt x="645" y="325" on="0"/>
        <pt x="606" y="415" on="0"/>
        <pt x="539" y="481" on="0"/>
        <pt x="446" y="519" on="0"/>
        <pt x="392" y="519" on="1"/>
        <pt x="333" y="519" on="0"/>
        <pt x="229" y="472" on="0"/>
        <pt x="154" y="391" on="0"/>
        <pt x="111" y="279" on="0"/>
        <pt x="111" y="214" on="1"/>
        <pt x="111" y="151" on="0"/>
        <pt x="153" y="44" on="0"/>
        <pt x="227" y="-32" on="0"/>
        <pt x="332" y="-74" on="0"/>
        <pt x="394" y="-74" on="1"/>
        <pt x="437" y="-74" on="0"/>
        <pt x="515" y="-57" on="0"/>
        <pt x="549" y="-39" on="1"/>
        <pt x="575" y="-101" on="1"/>
        <pt x="529" y="-123" on="0"/>
        <pt x="441" y="-144" on="0"/>
        <pt x="395" y="-144" on="1"/>
        <pt x="318" y="-144" on="0"/>
        <pt x="187" y="-91" on="0"/>
        <pt x="93" y="2" on="0"/>
        <pt x="40" y="131" on="0"/>
        <pt x="40" y="207" on="1"/>
        <pt x="40" y="288" on="0"/>
        <pt x="94" y="426" on="0"/>
        <pt x="188" y="526" on="0"/>
        <pt x="319" y="583" on="0"/>
        <pt x="395" y="583" on="1"/>
        <pt x="463" y="583" on="0"/>
        <pt x="581" y="536" on="0"/>
        <pt x="668" y="454" on="0"/>
        <pt x="718" y="343" on="0"/>
        <pt x="718" y="279" on="1"/>
        <pt x="718" y="177" on="0"/>
        <pt x="615" y="46" on="0"/>
        <pt x="534" y="46" on="1"/>
        <pt x="499" y="46" on="0"/>
        <pt x="447" y="67" on="0"/>
        <pt x="433" y="86" on="1"/>
        <pt x="411" y="67" on="0"/>
        <pt x="360" y="47" on="0"/>
      </contour>
      <contour>
        <pt x="289" y="212" on="1"/>
        <pt x="289" y="177" on="0"/>
        <pt x="328" y="131" on="0"/>
        <pt x="358" y="131" on="1"/>
        <pt x="373" y="131" on="0"/>
        <pt x="402" y="142" on="0"/>
        <pt x="415" y="153" on="1"/>
        <pt x="415" y="160" on="0"/>
        <pt x="417" y="175" on="0"/>
        <pt x="418" y="182" on="1"/>
        <pt x="435" y="269" on="1"/>
        <pt x="424" y="285" on="0"/>
        <pt x="391" y="301" on="0"/>
        <pt x="370" y="301" on="1"/>
        <pt x="337" y="301" on="0"/>
        <pt x="289" y="248" on="0"/>
      </contour>
    </TTGlyph>
    <TTGlyph name="at.cap" xMin="68" yMin="-15" xMax="746" yMax="712">
      <component glyphName="at" x="28" y="129" flags="0x4"/>
    </TTGlyph>
    <TTGlyph name="atilde" xMin="18" yMin="-4" xMax="546" yMax="760">
      <component glyphName="a" x="0" y="0" flags="0x204"/>
      <component glyphName="tilde" x="-7" y="0" flags="0x4"/>
    </TTGlyph>
    <TTGlyph name="atilde.school" xMin="41" yMin="-3" xMax="624" yMax="760">
      <component glyphName="a.school" x="0" y="0" flags="0x204"/>
      <component glyphName="tilde" x="31" y="0" flags="0x4"/>
    </TTGlyph>
    <TTGlyph name="b" xMin="6" yMin="-3" xMax="591" yMax="740">
      <contour>
        <pt x="591" y="283" on="1"/>
        <pt x="591" y="224" on="0"/>
        <pt x="550" y="119" on="0"/>
        <pt x="479" y="42" on="0"/>
        <pt x="384" y="-3" on="0"/>
        <pt x="330" y="-3" on="1"/>
        <pt x="281" y="-3" on="0"/>
        <pt x="205" y="41" on="0"/>
        <pt x="181" y="84" on="1"/>
        <pt x="163" y="0" on="1"/>
        <pt x="6" y="0" on="1"/>
        <pt x="158" y="715" on="1"/>
        <pt x="321" y="740" on="1"/>
        <pt x="263" y="465" on="1"/>
        <pt x="289" y="490" on="0"/>
        <pt x="359" y="519" on="0"/>
        <pt x="397" y="519" on="1"/>
        <pt x="438" y="519" on="0"/>
        <pt x="509" y="482" on="0"/>
        <pt x="561" y="419" on="0"/>
        <pt x="591" y="332" on="0"/>
      </contour>
      <contour>
        <pt x="327" y="386" on="1"/>
        <pt x="302" y="386" on="0"/>
        <pt x="258" y="368" on="0"/>
        <pt x="239" y="349" on="1"/>
        <pt x="204" y="182" on="1"/>
        <pt x="220" y="159" on="0"/>
        <pt x="274" y="131" on="0"/>
        <pt x="305" y="131" on="1"/>
        <pt x="361" y="131" on="0"/>
        <pt x="436" y="211" on="0"/>
        <pt x="436" y="270" on="1"/>
        <pt x="436" y="321" on="0"/>
        <pt x="374" y="386" on="0"/>
      </contour>
    </TTGlyph>
    <TTGlyph name="backslash" xMin="124" yMin="-211" xMax="473" yMax="700">
      <contour>
        <pt x="473" y="-211" on="1"/>
        <pt x="324" y="-211" on="1"/>
        <pt x="124" y="700" on="1"/>
        <pt x="273" y="700" on="1"/>
      </contour>
    </TTGlyph>
    <TTGlyph name="bar" xMin="4" yMin="-214" xMax="339" yMax="700">
      <contour>
        <pt x="4" y="-214" on="1"/>
        <pt x="198" y="700" on="1"/>
        <pt x="339" y="700" on="1"/>
        <pt x="145" y="-214" on="1"/>
      </contour>
    </TTGlyph>
    <TTGlyph name="braceleft" xMin="7" yMin="-222" xMax="485" yMax="709">
      <contour>
        <pt x="261" y="72" on="1"/>
        <pt x="214" y="-9" on="1"/>
        <pt x="190" y="-49" on="0"/>
        <pt x="213" y="-102" on="0"/>
        <pt x="253" y="-102" on="1"/>
        <pt x="264" y="-102" on="0"/>
        <pt x="288" y="-98" on="0"/>
        <pt x="299" y="-94" on="1"/>
        <pt x="296" y="-210" on="1"/>
        <pt x="274" y="-216" on="0"/>
        <pt x="231" y="-222" on="0"/>
        <pt x="208" y="-222" on="1"/>
        <pt x="155" y="-222" on="0"/>
        <pt x="81" y="-186" on="0"/>
        <pt x="46" y="-126" on="0"/>
        <pt x="53" y="-45" on="0"/>
        <pt x="80" y="-1" on="1"/>
        <pt x="127" y="76" on="1"/>
        <pt x="154" y="119" on="0"/>
        <pt x="130" y="184" on="0"/>
        <pt x="87" y="184" on="1"/>
        <pt x="7" y="184" on="1"/>
        <pt x="32" y="302" on="1"/>
        <pt x="112" y="302" on="1"/>
        <pt x="154" y="302" on="0"/>
        <pt x="201" y="360" on="0"/>
        <pt x="196" y="405" on="1"/>
        <pt x="184" y="507" on="1"/>
        <pt x="174" y="594" on="0"/>
        <pt x="281" y="709" on="0"/>
        <pt x="372" y="709" on="1"/>
        <pt x="406" y="709" on="0"/>
        <pt x="460" y="698" on="0"/>
        <pt x="485" y="686" on="1"/>
        <pt x="440" y="572" on="1"/>
        <pt x="428" y="578" on="0"/>
        <pt x="393" y="587" on="0"/>
        <pt x="382" y="587" on="1"/>
        <pt x="347" y="587" on="0"/>
        <pt x="308" y="539" on="0"/>
        <pt x="312" y="500" on="1"/>
        <pt x="323" y="394" on="1"/>
        <pt x="328" y="336" on="0"/>
        <pt x="255" y="248" on="0"/>
        <pt x="194" y="238" on="1"/>
        <pt x="256" y="222" on="0"/>
        <pt x="295" y="128" on="0"/>
      </contour>
    </TTGlyph>
    <TTGlyph name="braceright" xMin="-47" yMin="-222" xMax="431" yMax="709">
      <contour>
        <pt x="177" y="415" on="1"/>
        <pt x="224" y="496" on="1"/>
        <pt x="248" y="536" on="0"/>
        <pt x="225" y="589" on="0"/>
        <pt x="185" y="589" on="1"/>
        <pt x="174" y="589" on="0"/>
        <pt x="150" y="585" on="0"/>
        <pt x="139" y="581" on="1"/>
        <pt x="142" y="697" on="1"/>
        <pt x="164" y="703" on="0"/>
        <pt x="207" y="709" on="0"/>
        <pt x="230" y="709" on="1"/>
        <pt x="283" y="709" on="0"/>
        <pt x="357" y="673" on="0"/>
        <pt x="392" y="613" on="0"/>
        <pt x="385" y="532" on="0"/>
        <pt x="358" y="488" on="1"/>
        <pt x="311" y="411" on="1"/>
        <pt x="284" y="368" on="0"/>
        <pt x="308" y="303" on="0"/>
        <pt x="351" y="303" on="1"/>
        <pt x="431" y="303" on="1"/>
        <pt x="406" y="185" on="1"/>
        <pt x="326" y="185" on="1"/>
        <pt x="284" y="185" on="0"/>
        <pt x="237" y="127" on="0"/>
        <pt x="242" y="82" on="1"/>
        <pt x="254" y="-20" on="1"/>
        <pt x="264" y="-107" on="0"/>
        <pt x="157" y="-222" on="0"/>
        <pt x="66" y="-222" on="1"/>
        <pt x="32" y="-222" on="0"/>
        <pt x="-22" y="-211" on="0"/>
        <pt x="-47" y="-199" on="1"/>
        <pt x="-2" y="-85" on="1"/>
        <pt x="10" y="-91" on="0"/>
        <pt x="45" y="-100" on="0"/>
        <pt x="56" y="-100" on="1"/>
        <pt x="91" y="-100" on="0"/>
        <pt x="130" y="-52" on="0"/>
        <pt x="126" y="-13" on="1"/>
        <pt x="115" y="93" on="1"/>
        <pt x="110" y="151" on="0"/>
        <pt x="183" y="239" on="0"/>
        <pt x="244" y="249" on="1"/>
        <pt x="182" y="265" on="0"/>
        <pt x="143" y="359" on="0"/>
      </contour>
    </TTGlyph>
    <TTGlyph name="bracketleft" xMin="-35" yMin="-215" xMax="457" yMax="700">
      <contour>
        <pt x="262" y="-215" on="1"/>
        <pt x="-35" y="-215" on="1"/>
        <pt x="160" y="700" on="1"/>
        <pt x="457" y="700" on="1"/>
        <pt x="430" y="574" on="1"/>
        <pt x="276" y="574" on="1"/>
        <pt x="135" y="-89" on="1"/>
        <pt x="289" y="-89" on="1"/>
      </contour>
    </TTGlyph>
    <TTGlyph name="bracketright" xMin="-52" yMin="-215" xMax="440" yMax="700">
      <contour>
        <pt x="143" y="700" on="1"/>
        <pt x="440" y="700" on="1"/>
        <pt x="245" y="-215" on="1"/>
        <pt x="-52" y="-215" on="1"/>
        <pt x="-25" y="-89" on="1"/>
        <pt x="129" y="-89" on="1"/>
        <pt x="270" y="574" on="1"/>
        <pt x="116" y="574" on="1"/>
      </contour>
    </TTGlyph>
    <TTGlyph name="breve" xMin="168" yMin="600" xMax="537" yMax="772">
      <contour>
        <pt x="337" y="687" on="1"/>
        <pt x="371" y="687" on="0"/>
        <pt x="426" y="727" on="0"/>
        <pt x="445" y="764" on="1"/>
        <pt x="537" y="736" on="1"/>
        <pt x="508" y="671" on="0"/>
        <pt x="401" y="600" on="0"/>
        <pt x="332" y="600" on="1"/>
        <pt x="259" y="600" on="0"/>
        <pt x="171" y="681" on="0"/>
        <pt x="168" y="750" on="1"/>
        <pt x="256" y="772" on="1"/>
        <pt x="260" y="729" on="0"/>
        <pt x="300" y="687" on="0"/>
      </contour>
    </TTGlyph>
    <TTGlyph name="bullet" xMin="82" yMin="202" xMax="314" yMax="445">
      <contour>
        <pt x="184" y="202" on="1"/>
        <pt x="141" y="202" on="0"/>
        <pt x="82" y="262" on="0"/>
        <pt x="82" y="308" on="1"/>
        <pt x="82" y="364" on="0"/>
        <pt x="160" y="445" on="0"/>
        <pt x="214" y="445" on="1"/>
        <pt x="257" y="445" on="0"/>
        <pt x="314" y="384" on="0"/>
        <pt x="314" y="338" on="1"/>
        <pt x="314" y="284" on="0"/>
        <pt x="235" y="202" on="0"/>
      </contour>
    </TTGlyph>
    <TTGlyph name="c" xMin="38" yMin="-11" xMax="536" yMax="524">
      <contour>
        <pt x="300" y="129" on="1"/>
        <pt x="328" y="129" on="0"/>
        <pt x="377" y="150" on="0"/>
        <pt x="398" y="172" on="1"/>
        <pt x="476" y="71" on="1"/>
        <pt x="436" y="31" on="0"/>
        <pt x="332" y="-11" on="0"/>
        <pt x="275" y="-11" on="1"/>
        <pt x="224" y="-11" on="0"/>
        <pt x="137" y="25" on="0"/>
        <pt x="74" y="87" on="0"/>
        <pt x="38" y="174" on="0"/>
        <pt x="38" y="225" on="1"/>
        <pt x="38" y="287" on="0"/>
        <pt x="82" y="397" on="0"/>
        <pt x="158" y="477" on="0"/>
        <pt x="262" y="524" on="0"/>
        <pt x="321" y="524" on="1"/>
        <pt x="390" y="524" on="0"/>
        <pt x="503" y="466" on="0"/>
        <pt x="536" y="414" on="1"/>
        <pt x="424" y="322" on="1"/>
        <pt x="406" y="354" on="0"/>
        <pt x="354" y="385" on="0"/>
        <pt x="318" y="385" on="1"/>
        <pt x="267" y="385" on="0"/>
        <pt x="196" y="299" on="0"/>
        <pt x="196" y="239" on="1"/>
        <pt x="196" y="188" on="0"/>
        <pt x="252" y="129" on="0"/>
      </contour>
    </TTGlyph>
    <TTGlyph name="cacute" xMin="38" yMin="-11" xMax="607" yMax="747">
      <component glyphName="c" x="0" y="0" flags="0x204"/>
      <component glyphName="acute" x="39" y="0" flags="0x4"/>
    </TTGlyph>
    <TTGlyph name="caron" xMin="157" yMin="604" xMax="561" yMax="755">
      <contour>
        <pt x="275" y="755" on="1"/>
        <pt x="339" y="673" on="1"/>
        <pt x="435" y="755" on="1"/>
        <pt x="561" y="755" on="1"/>
        <pt x="406" y="604" on="1"/>
        <pt x="253" y="604" on="1"/>
        <pt x="157" y="755" on="1"/>
      </contour>
    </TTGlyph>
    <TTGlyph name="caronSlovak" xMin="106" yMin="446" xMax="319" yMax="723">
      <contour>
        <pt x="169" y="723" on="1"/>
        <pt x="319" y="723" on="1"/>
        <pt x="218" y="446" on="1"/>
        <pt x="106" y="446" on="1"/>
      </contour>
    </TTGlyph>
    <TTGlyph name="ccaron" xMin="38" yMin="-11" xMax="572" yMax="755">
      <component glyphName="c" x="0" y="0" flags="0x204"/>
      <component glyphName="caron" x="11" y="0" flags="0x4"/>
    </TTGlyph>
    <TTGlyph name="ccedilla" xMin="38" yMin="-253" xMax="536" yMax="524">
      <contour>
        <pt x="300" y="129" on="1"/>
        <pt x="328" y="129" on="0"/>
        <pt x="377" y="150" on="0"/>
        <pt x="398" y="172" on="1"/>
        <pt x="476" y="71" on="1"/>
        <pt x="442" y="37" on="0"/>
        <pt x="357" y="-3" on="0"/>
        <pt x="310" y="-9" on="1"/>
        <pt x="288" y="-59" on="1"/>
        <pt x="328" y="-64" on="0"/>
        <pt x="373" y="-105" on="0"/>
        <pt x="373" y="-136" on="1"/>
        <pt x="373" y="-185" on="0"/>
        <pt x="292" y="-253" on="0"/>
        <pt x="235" y="-253" on="1"/>
        <pt x="190" y="-253" on="0"/>
        <pt x="123" y="-230" on="0"/>
        <pt x="101" y="-205" on="1"/>
        <pt x="156" y="-150" on="1"/>
        <pt x="170" y="-165" on="0"/>
        <pt x="211" y="-182" on="0"/>
        <pt x="233" y="-182" on="1"/>
        <pt x="257" y="-182" on="0"/>
        <pt x="286" y="-161" on="0"/>
        <pt x="286" y="-144" on="1"/>
        <pt x="286" y="-128" on="0"/>
        <pt x="258" y="-109" on="0"/>
        <pt x="235" y="-109" on="1"/>
        <pt x="194" y="-109" on="1"/>
        <pt x="237" y="-8" on="1"/>
        <pt x="150" y="4" on="0"/>
        <pt x="38" y="133" on="0"/>
        <pt x="38" y="225" on="1"/>
        <pt x="38" y="287" on="0"/>
        <pt x="82" y="397" on="0"/>
        <pt x="158" y="477" on="0"/>
        <pt x="262" y="524" on="0"/>
        <pt x="321" y="524" on="1"/>
        <pt x="390" y="524" on="0"/>
        <pt x="503" y="466" on="0"/>
        <pt x="536" y="414" on="1"/>
        <pt x="424" y="322" on="1"/>
        <pt x="406" y="354" on="0"/>
        <pt x="354" y="385" on="0"/>
        <pt x="318" y="385" on="1"/>
        <pt x="267" y="385" on="0"/>
        <pt x="196" y="299" on="0"/>
        <pt x="196" y="239" on="1"/>
        <pt x="196" y="188" on="0"/>
        <pt x="252" y="129" on="0"/>
      </contour>
    </TTGlyph>
    <TTGlyph name="ccircumflex" xMin="38" yMin="-11" xMax="538" yMax="750">
      <component glyphName="c" x="0" y="0" flags="0x204"/>
      <component glyphName="circumflex" x="7" y="0" flags="0x4"/>
    </TTGlyph>
    <TTGlyph name="cdotaccent" xMin="38" yMin="-11" xMax="536" yMax="766">
      <component glyphName="c" x="0" y="0" flags="0x204"/>
      <component glyphName="dotaccent" x="110" y="0" flags="0x4"/>
    </TTGlyph>
    <TTGlyph name="cedilla" xMin="50" yMin="-253" xMax="322" yMax="0">
      <contour>
        <pt x="322" y="-136" on="1"/>
        <pt x="322" y="-185" on="0"/>
        <pt x="241" y="-253" on="0"/>
        <pt x="184" y="-253" on="1"/>
        <pt x="139" y="-253" on="0"/>
        <pt x="72" y="-230" on="0"/>
        <pt x="50" y="-205" on="1"/>
        <pt x="105" y="-150" on="1"/>
        <pt x="119" y="-165" on="0"/>
        <pt x="160" y="-182" on="0"/>
        <pt x="182" y="-182" on="1"/>
        <pt x="206" y="-182" on="0"/>
        <pt x="235" y="-161" on="0"/>
        <pt x="235" y="-144" on="1"/>
        <pt x="235" y="-128" on="0"/>
        <pt x="207" y="-109" on="0"/>
        <pt x="184" y="-109" on="1"/>
        <pt x="143" y="-109" on="1"/>
        <pt x="190" y="0" on="1"/>
        <pt x="263" y="0" on="1"/>
        <pt x="237" y="-59" on="1"/>
        <pt x="277" y="-64" on="0"/>
        <pt x="322" y="-105" on="0"/>
      </contour>
    </TTGlyph>
    <TTGlyph name="cent" xMin="38" yMin="-110" xMax="536" yMax="625">
      <contour>
        <pt x="193" y="-110" on="1"/>
        <pt x="215" y="-4" on="1"/>
        <pt x="137" y="14" on="0"/>
        <pt x="38" y="139" on="0"/>
        <pt x="38" y="225" on="1"/>
        <pt x="38" y="287" on="0"/>
        <pt x="82" y="397" on="0"/>
        <pt x="158" y="477" on="0"/>
        <pt x="262" y="524" on="0"/>
        <pt x="321" y="524" on="1"/>
        <pt x="328" y="524" on="1"/>
        <pt x="349" y="625" on="1"/>
        <pt x="411" y="625" on="1"/>
        <pt x="388" y="516" on="1"/>
        <pt x="435" y="506" on="0"/>
        <pt x="511" y="453" on="0"/>
        <pt x="536" y="414" on="1"/>
        <pt x="424" y="322" on="1"/>
        <pt x="411" y="344" on="0"/>
        <pt x="379" y="372" on="0"/>
        <pt x="359" y="379" on="1"/>
        <pt x="306" y="129" on="1"/>
        <pt x="332" y="130" on="0"/>
        <pt x="378" y="151" on="0"/>
        <pt x="398" y="172" on="1"/>
        <pt x="476" y="71" on="1"/>
        <pt x="436" y="31" on="0"/>
        <pt x="332" y="-11" on="0"/>
        <pt x="276" y="-11" on="1"/>
        <pt x="255" y="-110" on="1"/>
      </contour>
      <contour>
        <pt x="196" y="239" on="1"/>
        <pt x="196" y="205" on="0"/>
        <pt x="222" y="154" on="0"/>
        <pt x="246" y="141" on="1"/>
        <pt x="298" y="383" on="1"/>
        <pt x="255" y="375" on="0"/>
        <pt x="196" y="293" on="0"/>
      </contour>
    </TTGlyph>
    <TTGlyph name="circumflex" xMin="127" yMin="599" xMax="531" yMax="750">
      <contour>
        <pt x="414" y="599" on="1"/>
        <pt x="350" y="682" on="1"/>
        <pt x="254" y="599" on="1"/>
        <pt x="127" y="599" on="1"/>
        <pt x="283" y="750" on="1"/>
        <pt x="436" y="750" on="1"/>
        <pt x="531" y="599" on="1"/>
      </contour>
    </TTGlyph>
    <TTGlyph name="colon" xMin="6" yMin="-11" xMax="262" yMax="526">
      <component glyphName="period" x="0" y="0" flags="0x4"/>
      <component glyphName="period" x="77" y="348" flags="0x4"/>
    </TTGlyph>
    <TTGlyph name="comma" xMin="-89" yMin="-177" xMax="200" yMax="127">
      <contour>
        <pt x="45" y="127" on="1"/>
        <pt x="200" y="127" on="1"/>
        <pt x="25" y="-177" on="1"/>
        <pt x="-89" y="-177" on="1"/>
      </contour>
    </TTGlyph>
    <TTGlyph name="commaaccent" xMin="-94" yMin="-305" xMax="155" yMax="-90">
      <contour>
        <pt x="14" y="-90" on="1"/>
        <pt x="155" y="-90" on="1"/>
        <pt x="15" y="-305" on="1"/>
        <pt x="-94" y="-305" on="1"/>
      </contour>
    </TTGlyph>
    <TTGlyph name="copyright" xMin="60" yMin="-11" xMax="739" yMax="711">
      <contour>
        <pt x="60" y="305" on="1"/>
        <pt x="60" y="387" on="0"/>
        <pt x="121" y="535" on="0"/>
        <pt x="224" y="646" on="0"/>
        <pt x="362" y="711" on="0"/>
        <pt x="438" y="711" on="1"/>
        <pt x="503" y="711" on="0"/>
        <pt x="613" y="663" on="0"/>
        <pt x="693" y="579" on="0"/>
        <pt x="739" y="463" on="0"/>
        <pt x="739" y="395" on="1"/>
        <pt x="739" y="313" on="0"/>
        <pt x="678" y="165" on="0"/>
        <pt x="575" y="54" on="0"/>
        <pt x="436" y="-11" on="0"/>
        <pt x="360" y="-11" on="1"/>
        <pt x="296" y="-11" on="0"/>
        <pt x="185" y="37" on="0"/>
        <pt x="106" y="121" on="0"/>
        <pt x="60" y="237" on="0"/>
      </contour>
      <contour>
        <pt x="670" y="387" on="1"/>
        <pt x="670" y="442" on="0"/>
        <pt x="634" y="537" on="0"/>
        <pt x="571" y="605" on="0"/>
        <pt x="482" y="644" on="0"/>
        <pt x="431" y="644" on="1"/>
        <pt x="371" y="644" on="0"/>
        <pt x="261" y="590" on="0"/>
        <pt x="178" y="499" on="0"/>
        <pt x="129" y="379" on="0"/>
        <pt x="129" y="313" on="1"/>
        <pt x="129" y="258" on="0"/>
        <pt x="165" y="163" on="0"/>
        <pt x="228" y="95" on="0"/>
        <pt x="316" y="56" on="0"/>
        <pt x="367" y="56" on="1"/>
        <pt x="427" y="56" on="0"/>
        <pt x="537" y="110" on="0"/>
        <pt x="620" y="201" on="0"/>
        <pt x="670" y="321" on="0"/>
      </contour>
      <contour>
        <pt x="223" y="322" on="1"/>
        <pt x="223" y="365" on="0"/>
        <pt x="258" y="445" on="0"/>
        <pt x="315" y="506" on="0"/>
        <pt x="391" y="542" on="0"/>
        <pt x="432" y="542" on="1"/>
        <pt x="476" y="542" on="0"/>
        <pt x="555" y="498" on="0"/>
        <pt x="574" y="462" on="1"/>
        <pt x="498" y="396" on="1"/>
        <pt x="482" y="421" on="0"/>
        <pt x="446" y="444" on="0"/>
        <pt x="424" y="444" on="1"/>
        <pt x="385" y="444" on="0"/>
        <pt x="328" y="379" on="0"/>
        <pt x="328" y="334" on="1"/>
        <pt x="328" y="300" on="0"/>
        <pt x="368" y="257" on="0"/>
        <pt x="399" y="257" on="1"/>
        <pt x="418" y="257" on="0"/>
        <pt x="455" y="274" on="0"/>
        <pt x="474" y="292" on="1"/>
        <pt x="520" y="217" on="1"/>
        <pt x="491" y="190" on="0"/>
        <pt x="417" y="161" on="0"/>
        <pt x="380" y="161" on="1"/>
        <pt x="312" y="161" on="0"/>
        <pt x="223" y="253" on="0"/>
      </contour>
    </TTGlyph>
    <TTGlyph name="cordinal" xMin="77" yMin="296" xMax="465" yMax="711">
      <contour>
        <pt x="284" y="406" on="1"/>
        <pt x="307" y="406" on="0"/>
        <pt x="346" y="425" on="0"/>
        <pt x="365" y="444" on="1"/>
        <pt x="430" y="362" on="1"/>
        <pt x="396" y="330" on="0"/>
        <pt x="314" y="296" on="0"/>
        <pt x="271" y="296" on="1"/>
        <pt x="187" y="296" on="0"/>
        <pt x="77" y="405" on="0"/>
        <pt x="77" y="486" on="1"/>
        <pt x="77" y="533" on="0"/>
        <pt x="112" y="615" on="0"/>
        <pt x="171" y="676" on="0"/>
        <pt x="251" y="711" on="0"/>
        <pt x="297" y="711" on="1"/>
        <pt x="349" y="711" on="0"/>
        <pt x="438" y="667" on="0"/>
        <pt x="465" y="627" on="1"/>
        <pt x="381" y="551" on="1"/>
        <pt x="364" y="576" on="0"/>
        <pt x="322" y="601" on="0"/>
        <pt x="295" y="601" on="1"/>
        <pt x="256" y="601" on="0"/>
        <pt x="200" y="537" on="0"/>
        <pt x="200" y="493" on="1"/>
        <pt x="200" y="454" on="0"/>
        <pt x="246" y="406" on="0"/>
      </contour>
    </TTGlyph>
    <TTGlyph name="d" xMin="41" yMin="-3" xMax="668" yMax="740">
      <contour>
        <pt x="355" y="0" on="1"/>
        <pt x="365" y="48" on="1"/>
        <pt x="340" y="24" on="0"/>
        <pt x="272" y="-3" on="0"/>
        <pt x="235" y="-3" on="1"/>
        <pt x="194" y="-3" on="0"/>
        <pt x="123" y="34" on="0"/>
        <pt x="71" y="97" on="0"/>
        <pt x="41" y="184" on="0"/>
        <pt x="41" y="233" on="1"/>
        <pt x="41" y="292" on="0"/>
        <pt x="82" y="397" on="0"/>
        <pt x="153" y="474" on="0"/>
        <pt x="248" y="519" on="0"/>
        <pt x="302" y="519" on="1"/>
        <pt x="349" y="519" on="0"/>
        <pt x="424" y="480" on="0"/>
        <pt x="448" y="444" on="1"/>
        <pt x="505" y="715" on="1"/>
        <pt x="668" y="740" on="1"/>
        <pt x="512" y="0" on="1"/>
      </contour>
      <contour>
        <pt x="197" y="246" on="1"/>
        <pt x="197" y="196" on="0"/>
        <pt x="258" y="130" on="0"/>
        <pt x="305" y="130" on="1"/>
        <pt x="329" y="130" on="0"/>
        <pt x="369" y="146" on="0"/>
        <pt x="388" y="163" on="1"/>
        <pt x="426" y="342" on="1"/>
        <pt x="409" y="362" on="0"/>
        <pt x="357" y="385" on="0"/>
        <pt x="327" y="385" on="1"/>
        <pt x="272" y="385" on="0"/>
        <pt x="197" y="305" on="0"/>
      </contour>
    </TTGlyph>
    <TTGlyph name="dagger" xMin="74" yMin="0" xMax="470" yMax="700">
      <contour>
        <pt x="114" y="0" on="1"/>
        <pt x="201" y="407" on="1"/>
        <pt x="74" y="407" on="1"/>
        <pt x="99" y="516" on="1"/>
        <pt x="224" y="516" on="1"/>
        <pt x="263" y="700" on="1"/>
        <pt x="383" y="700" on="1"/>
        <pt x="344" y="516" on="1"/>
        <pt x="470" y="516" on="1"/>
        <pt x="445" y="407" on="1"/>
        <pt x="321" y="407" on="1"/>
        <pt x="234" y="0" on="1"/>
      </contour>
    </TTGlyph>
    <TTGlyph name="daggerdbl" xMin="26" yMin="0" xMax="470" yMax="700">
      <contour>
        <pt x="114" y="0" on="1"/>
        <pt x="153" y="184" on="1"/>
        <pt x="26" y="184" on="1"/>
        <pt x="50" y="293" on="1"/>
        <pt x="176" y="293" on="1"/>
        <pt x="201" y="407" on="1"/>
        <pt x="74" y="407" on="1"/>
        <pt x="99" y="516" on="1"/>
        <pt x="224" y="516" on="1"/>
        <pt x="263" y="700" on="1"/>
        <pt x="383" y="700" on="1"/>
        <pt x="344" y="516" on="1"/>
        <pt x="470" y="516" on="1"/>
        <pt x="445" y="407" on="1"/>
        <pt x="321" y="407" on="1"/>
        <pt x="296" y="293" on="1"/>
        <pt x="421" y="293" on="1"/>
        <pt x="397" y="184" on="1"/>
        <pt x="273" y="184" on="1"/>
        <pt x="234" y="0" on="1"/>
      </contour>
    </TTGlyph>
    <TTGlyph name="dcaron" xMin="56" yMin="-3" xMax="930" yMax="740">
      <component glyphName="d" x="15" y="0" flags="0x4"/>
      <component glyphName="caronSlovak" x="611" y="0" flags="0x4"/>
    </TTGlyph>
    <TTGlyph name="dcroat" xMin="41" yMin="-3" xMax="707" yMax="740">
      <contour>
        <pt x="355" y="0" on="1"/>
        <pt x="365" y="48" on="1"/>
        <pt x="340" y="24" on="0"/>
        <pt x="272" y="-3" on="0"/>
        <pt x="235" y="-3" on="1"/>
        <pt x="194" y="-3" on="0"/>
        <pt x="123" y="34" on="0"/>
        <pt x="71" y="97" on="0"/>
        <pt x="41" y="184" on="0"/>
        <pt x="41" y="233" on="1"/>
        <pt x="41" y="292" on="0"/>
        <pt x="82" y="397" on="0"/>
        <pt x="153" y="474" on="0"/>
        <pt x="248" y="519" on="0"/>
        <pt x="302" y="519" on="1"/>
        <pt x="349" y="519" on="0"/>
        <pt x="424" y="480" on="0"/>
        <pt x="448" y="444" on="1"/>
        <pt x="472" y="560" on="1"/>
        <pt x="376" y="560" on="1"/>
        <pt x="396" y="648" on="1"/>
        <pt x="491" y="648" on="1"/>
        <pt x="505" y="715" on="1"/>
        <pt x="668" y="740" on="1"/>
        <pt x="649" y="648" on="1"/>
        <pt x="707" y="648" on="1"/>
        <pt x="687" y="560" on="1"/>
        <pt x="630" y="560" on="1"/>
        <pt x="512" y="0" on="1"/>
      </contour>
      <contour>
        <pt x="197" y="246" on="1"/>
        <pt x="197" y="196" on="0"/>
        <pt x="258" y="130" on="0"/>
        <pt x="305" y="130" on="1"/>
        <pt x="329" y="130" on="0"/>
        <pt x="369" y="146" on="0"/>
        <pt x="388" y="163" on="1"/>
        <pt x="426" y="342" on="1"/>
        <pt x="409" y="362" on="0"/>
        <pt x="357" y="385" on="0"/>
        <pt x="327" y="385" on="1"/>
        <pt x="272" y="385" on="0"/>
        <pt x="197" y="305" on="0"/>
      </contour>
    </TTGlyph>
    <TTGlyph name="degree" xMin="108" yMin="416" xMax="405" yMax="710">
      <contour>
        <pt x="242" y="416" on="1"/>
        <pt x="184" y="416" on="0"/>
        <pt x="108" y="490" on="0"/>
        <pt x="108" y="546" on="1"/>
        <pt x="108" y="579" on="0"/>
        <pt x="134" y="639" on="0"/>
        <pt x="178" y="683" on="0"/>
        <pt x="238" y="710" on="0"/>
        <pt x="270" y="710" on="1"/>
        <pt x="328" y="710" on="0"/>
        <pt x="405" y="637" on="0"/>
        <pt x="405" y="580" on="1"/>
        <pt x="405" y="547" on="0"/>
        <pt x="379" y="487" on="0"/>
        <pt x="334" y="443" on="0"/>
        <pt x="275" y="416" on="0"/>
      </contour>
      <contour>
        <pt x="247" y="496" on="1"/>
        <pt x="278" y="496" on="0"/>
        <pt x="322" y="539" on="0"/>
        <pt x="322" y="570" on="1"/>
        <pt x="322" y="595" on="0"/>
        <pt x="289" y="629" on="0"/>
        <pt x="264" y="629" on="1"/>
        <pt x="234" y="629" on="0"/>
        <pt x="191" y="586" on="0"/>
        <pt x="191" y="556" on="1"/>
        <pt x="191" y="531" on="0"/>
        <pt x="225" y="496" on="0"/>
      </contour>
    </TTGlyph>
    <TTGlyph name="dieresis" xMin="195" yMin="602" xMax="579" yMax="766">
      <contour>
        <pt x="265" y="602" on="1"/>
        <pt x="235" y="602" on="0"/>
        <pt x="195" y="643" on="0"/>
        <pt x="195" y="674" on="1"/>
        <pt x="195" y="711" on="0"/>
        <pt x="249" y="766" on="0"/>
        <pt x="285" y="766" on="1"/>
        <pt x="313" y="766" on="0"/>
        <pt x="353" y="725" on="0"/>
        <pt x="353" y="694" on="1"/>
        <pt x="353" y="657" on="0"/>
        <pt x="299" y="602" on="0"/>
      </contour>
      <contour>
        <pt x="491" y="602" on="1"/>
        <pt x="462" y="602" on="0"/>
        <pt x="421" y="643" on="0"/>
        <pt x="421" y="674" on="1"/>
        <pt x="421" y="711" on="0"/>
        <pt x="475" y="766" on="0"/>
        <pt x="511" y="766" on="1"/>
        <pt x="540" y="766" on="0"/>
        <pt x="579" y="725" on="0"/>
        <pt x="579" y="694" on="1"/>
        <pt x="579" y="657" on="0"/>
        <pt x="526" y="602" on="0"/>
      </contour>
    </TTGlyph>
    <TTGlyph name="divide" xMin="62" yMin="37" xMax="529" yMax="682">
      <contour>
        <pt x="336" y="499" on="1"/>
        <pt x="302" y="499" on="0"/>
        <pt x="256" y="545" on="0"/>
        <pt x="256" y="579" on="1"/>
        <pt x="256" y="619" on="0"/>
        <pt x="315" y="682" on="0"/>
        <pt x="358" y="682" on="1"/>
        <pt x="391" y="682" on="0"/>
        <pt x="435" y="636" on="0"/>
        <pt x="435" y="602" on="1"/>
        <pt x="435" y="562" on="0"/>
        <pt x="376" y="499" on="0"/>
      </contour>
      <contour>
        <pt x="62" y="297" on="1"/>
        <pt x="88" y="421" on="1"/>
        <pt x="529" y="421" on="1"/>
        <pt x="503" y="297" on="1"/>
      </contour>
      <contour>
        <pt x="238" y="37" on="1"/>
        <pt x="204" y="37" on="0"/>
        <pt x="158" y="83" on="0"/>
        <pt x="158" y="117" on="1"/>
        <pt x="158" y="157" on="0"/>
        <pt x="217" y="220" on="0"/>
        <pt x="260" y="220" on="1"/>
        <pt x="293" y="220" on="0"/>
        <pt x="337" y="174" on="0"/>
        <pt x="337" y="140" on="1"/>
        <pt x="337" y="100" on="0"/>
        <pt x="278" y="37" on="0"/>
      </contour>
    </TTGlyph>
    <TTGlyph name="dollar" xMin="-4" yMin="-75" xMax="588" yMax="759">
      <contour>
        <pt x="177" y="-75" on="1"/>
        <pt x="197" y="21" on="1"/>
        <pt x="143" y="29" on="0"/>
        <pt x="42" y="73" on="0"/>
        <pt x="-4" y="108" on="1"/>
        <pt x="84" y="226" on="1"/>
        <pt x="124" y="197" on="0"/>
        <pt x="192" y="163" on="0"/>
        <pt x="226" y="156" on="1"/>
        <pt x="256" y="295" on="1"/>
        <pt x="202" y="311" on="1"/>
        <pt x="142" y="330" on="0"/>
        <pt x="72" y="415" on="0"/>
        <pt x="72" y="471" on="1"/>
        <pt x="72" y="570" on="0"/>
        <pt x="211" y="685" on="0"/>
        <pt x="331" y="685" on="1"/>
        <pt x="338" y="685" on="1"/>
        <pt x="354" y="759" on="1"/>
        <pt x="421" y="759" on="1"/>
        <pt x="404" y="677" on="1"/>
        <pt x="455" y="667" on="0"/>
        <pt x="551" y="617" on="0"/>
        <pt x="588" y="581" on="1"/>
        <pt x="492" y="471" on="1"/>
        <pt x="464" y="497" on="0"/>
        <pt x="406" y="533" on="0"/>
        <pt x="375" y="542" on="1"/>
        <pt x="350" y="423" on="1"/>
        <pt x="404" y="405" on="1"/>
        <pt x="464" y="385" on="0"/>
        <pt x="536" y="298" on="0"/>
        <pt x="536" y="244" on="1"/>
        <pt x="536" y="142" on="0"/>
        <pt x="385" y="16" on="0"/>
        <pt x="263" y="16" on="1"/>
        <pt x="244" y="-75" on="1"/>
      </contour>
      <contour>
        <pt x="260" y="445" on="1"/>
        <pt x="286" y="437" on="1"/>
        <pt x="310" y="552" on="1"/>
        <pt x="307" y="552" on="1"/>
        <pt x="265" y="552" on="0"/>
        <pt x="216" y="520" on="0"/>
        <pt x="216" y="493" on="1"/>
        <pt x="216" y="477" on="0"/>
        <pt x="239" y="451" on="0"/>
      </contour>
      <contour>
        <pt x="341" y="272" on="1"/>
        <pt x="319" y="280" on="1"/>
        <pt x="292" y="151" on="1"/>
        <pt x="338" y="153" on="0"/>
        <pt x="386" y="186" on="0"/>
        <pt x="386" y="216" on="1"/>
        <pt x="386" y="235" on="0"/>
        <pt x="362" y="265" on="0"/>
      </contour>
    </TTGlyph>
    <TTGlyph name="dotaccent" xMin="167" yMin="602" xMax="327" yMax="766">
      <contour>
        <pt x="238" y="602" on="1"/>
        <pt x="207" y="602" on="0"/>
        <pt x="167" y="643" on="0"/>
        <pt x="167" y="674" on="1"/>
        <pt x="167" y="711" on="0"/>
        <pt x="221" y="766" on="0"/>
        <pt x="258" y="766" on="1"/>
        <pt x="287" y="766" on="0"/>
        <pt x="327" y="725" on="0"/>
        <pt x="327" y="694" on="1"/>
        <pt x="327" y="657" on="0"/>
        <pt x="273" y="602" on="0"/>
      </contour>
    </TTGlyph>
    <TTGlyph name="dotlessi" xMin="6" yMin="0" xMax="277" yMax="516">
      <contour>
        <pt x="277" y="516" on="1"/>
        <pt x="165" y="0" on="1"/>
        <pt x="6" y="0" on="1"/>
        <pt x="118" y="516" on="1"/>
      </contour>
    </TTGlyph>
    <TTGlyph name="dotlessj" xMin="-132" yMin="-223" xMax="278" yMax="516">
      <contour>
        <pt x="-132" y="-208" on="1"/>
        <pt x="-106" y="-86" on="1"/>
        <pt x="-96" y="-89" on="0"/>
        <pt x="-71" y="-92" on="0"/>
        <pt x="-55" y="-92" on="1"/>
        <pt x="-33" y="-92" on="0"/>
        <pt x="-8" y="-72" on="0"/>
        <pt x="-4" y="-52" on="1"/>
        <pt x="118" y="516" on="1"/>
        <pt x="278" y="516" on="1"/>
        <pt x="152" y="-66" on="1"/>
        <pt x="136" y="-141" on="0"/>
        <pt x="35" y="-223" on="0"/>
        <pt x="-41" y="-223" on="1"/>
        <pt x="-63" y="-223" on="0"/>
        <pt x="-118" y="-214" on="0"/>
      </contour>
    </TTGlyph>
    <TTGlyph name="e" xMin="38" yMin="-11" xMax="543" yMax="524">
      <contour>
        <pt x="491" y="57" on="1"/>
        <pt x="442" y="21" on="0"/>
        <pt x="346" y="-11" on="0"/>
        <pt x="290" y="-11" on="1"/>
        <pt x="235" y="-11" on="0"/>
        <pt x="142" y="25" on="0"/>
        <pt x="76" y="90" on="0"/>
        <pt x="38" y="180" on="0"/>
        <pt x="38" y="233" on="1"/>
        <pt x="38" y="292" on="0"/>
        <pt x="83" y="398" on="0"/>
        <pt x="159" y="477" on="0"/>
        <pt x="261" y="524" on="0"/>
        <pt x="318" y="524" on="1"/>
        <pt x="418" y="524" on="0"/>
        <pt x="543" y="395" on="0"/>
        <pt x="543" y="293" on="1"/>
        <pt x="543" y="270" on="0"/>
        <pt x="540" y="233" on="0"/>
        <pt x="537" y="217" on="1"/>
        <pt x="191" y="217" on="1"/>
        <pt x="198" y="172" on="0"/>
        <pt x="261" y="117" on="0"/>
        <pt x="307" y="117" on="1"/>
        <pt x="336" y="117" on="0"/>
        <pt x="386" y="136" on="0"/>
        <pt x="404" y="155" on="1"/>
      </contour>
      <contour>
        <pt x="309" y="397" on="1"/>
        <pt x="272" y="397" on="0"/>
        <pt x="215" y="348" on="0"/>
        <pt x="201" y="308" on="1"/>
        <pt x="403" y="308" on="1"/>
        <pt x="397" y="349" on="0"/>
        <pt x="347" y="397" on="0"/>
      </contour>
    </TTGlyph>
    <TTGlyph name="eacute" xMin="38" yMin="-11" xMax="607" yMax="747">
      <component glyphName="e" x="0" y="0" flags="0x204"/>
      <component glyphName="acute" x="39" y="0" flags="0x4"/>
    </TTGlyph>
    <TTGlyph name="ebreve" xMin="38" yMin="-11" xMax="546" yMax="772">
      <component glyphName="e" x="0" y="0" flags="0x204"/>
      <component glyphName="breve" x="9" y="0" flags="0x4"/>
    </TTGlyph>
    <TTGlyph name="ecaron" xMin="38" yMin="-11" xMax="572" yMax="755">
      <component glyphName="e" x="0" y="0" flags="0x204"/>
      <component glyphName="caron" x="11" y="0" flags="0x4"/>
    </TTGlyph>
    <TTGlyph name="ecircumflex" xMin="38" yMin="-11" xMax="543" yMax="750">
      <component glyphName="e" x="0" y="0" flags="0x204"/>
      <component glyphName="circumflex" x="7" y="0" flags="0x4"/>
    </TTGlyph>
    <TTGlyph name="edieresis" xMin="38" yMin="-11" xMax="545" yMax="766">
      <component glyphName="e" x="0" y="0" flags="0x204"/>
      <component glyphName="dieresis" x="-34" y="0" flags="0x4"/>
    </TTGlyph>
    <TTGlyph name="edotaccent" xMin="38" yMin="-11" xMax="543" yMax="766">
      <component glyphName="e" x="0" y="0" flags="0x204"/>
      <component glyphName="dotaccent" x="110" y="0" flags="0x4"/>
    </TTGlyph>
    <TTGlyph name="egrave" xMin="38" yMin="-11" xMax="543" yMax="747">
      <component glyphName="e" x="0" y="0" flags="0x204"/>
      <component glyphName="grave" x="-19" y="0" flags="0x4"/>
    </TTGlyph>
    <TTGlyph name="eight" xMin="30" yMin="-11" xMax="613" yMax="710">
      <contour>
        <pt x="283" y="-11" on="1"/>
        <pt x="170" y="-11" on="0"/>
        <pt x="30" y="93" on="0"/>
        <pt x="30" y="176" on="1"/>
        <pt x="30" y="242" on="0"/>
        <pt x="124" y="348" on="0"/>
        <pt x="194" y="367" on="1"/>
        <pt x="157" y="386" on="0"/>
        <pt x="115" y="450" on="0"/>
        <pt x="115" y="488" on="1"/>
        <pt x="115" y="534" on="0"/>
        <pt x="158" y="615" on="0"/>
        <pt x="231" y="675" on="0"/>
        <pt x="330" y="710" on="0"/>
        <pt x="385" y="710" on="1"/>
        <pt x="435" y="710" on="0"/>
        <pt x="519" y="683" on="0"/>
        <pt x="579" y="635" on="0"/>
        <pt x="613" y="568" on="0"/>
        <pt x="613" y="528" on="1"/>
        <pt x="613" y="470" on="0"/>
        <pt x="530" y="372" on="0"/>
        <pt x="468" y="351" on="1"/>
        <pt x="513" y="332" on="0"/>
        <pt x="567" y="261" on="0"/>
        <pt x="567" y="215" on="1"/>
        <pt x="567" y="168" on="0"/>
        <pt x="523" y="85" on="0"/>
        <pt x="446" y="24" on="0"/>
        <pt x="342" y="-11" on="0"/>
      </contour>
      <contour>
        <pt x="355" y="411" on="1"/>
        <pt x="398" y="411" on="0"/>
        <pt x="461" y="468" on="0"/>
        <pt x="461" y="505" on="1"/>
        <pt x="461" y="539" on="0"/>
        <pt x="410" y="583" on="0"/>
        <pt x="371" y="583" on="1"/>
        <pt x="327" y="583" on="0"/>
        <pt x="263" y="527" on="0"/>
        <pt x="263" y="488" on="1"/>
        <pt x="263" y="454" on="0"/>
        <pt x="315" y="411" on="0"/>
      </contour>
      <contour>
        <pt x="295" y="118" on="1"/>
        <pt x="345" y="118" on="0"/>
        <pt x="416" y="175" on="0"/>
        <pt x="416" y="216" on="1"/>
        <pt x="416" y="253" on="0"/>
        <pt x="355" y="300" on="0"/>
        <pt x="306" y="300" on="1"/>
        <pt x="256" y="300" on="0"/>
        <pt x="186" y="243" on="0"/>
        <pt x="186" y="203" on="1"/>
        <pt x="186" y="166" on="0"/>
        <pt x="246" y="118" on="0"/>
      </contour>
    </TTGlyph>
    <TTGlyph name="ellipsis" xMin="6" yMin="-11" xMax="755" yMax="178">
      <component glyphName="period" x="0" y="0" flags="0x4"/>
      <component glyphName="period" x="285" y="0" flags="0x4"/>
      <component glyphName="period" x="570" y="0" flags="0x4"/>
    </TTGlyph>
    <TTGlyph name="emacron" xMin="38" yMin="-11" xMax="543" yMax="726">
      <component glyphName="e" x="0" y="0" flags="0x204"/>
      <component glyphName="macron" x="9" y="0" flags="0x4"/>
    </TTGlyph>
    <TTGlyph name="emdash" xMin="41" yMin="219" xMax="662" yMax="354">
      <contour>
        <pt x="69" y="354" on="1"/>
        <pt x="662" y="354" on="1"/>
        <pt x="634" y="219" on="1"/>
        <pt x="41" y="219" on="1"/>
      </contour>
    </TTGlyph>
    <TTGlyph name="emdash.cap" xMin="41" yMin="284" xMax="662" yMax="419">
      <component glyphName="emdash" x="0" y="65" flags="0x4"/>
    </TTGlyph>
    <TTGlyph name="endash" xMin="41" yMin="219" xMax="523" yMax="354">
      <contour>
        <pt x="69" y="354" on="1"/>
        <pt x="523" y="354" on="1"/>
        <pt x="495" y="219" on="1"/>
        <pt x="41" y="219" on="1"/>
      </contour>
    </TTGlyph>
    <TTGlyph name="endash.cap" xMin="41" yMin="284" xMax="523" yMax="419">
      <component glyphName="endash" x="0" y="65" flags="0x4"/>
    </TTGlyph>
    <TTGlyph name="eng" xMin="6" yMin="-222" xMax="569" yMax="522">
      <contour>
        <pt x="6" y="0" on="1"/>
        <pt x="118" y="516" on="1"/>
        <pt x="277" y="516" on="1"/>
        <pt x="260" y="436" on="1"/>
        <pt x="296" y="478" on="0"/>
        <pt x="382" y="522" on="0"/>
        <pt x="429" y="522" on="1"/>
        <pt x="504" y="522" on="0"/>
        <pt x="580" y="418" on="0"/>
        <pt x="564" y="337" on="1"/>
        <pt x="479" y="-64" on="1"/>
        <pt x="463" y="-140" on="0"/>
        <pt x="362" y="-222" on="0"/>
        <pt x="287" y="-222" on="1"/>
        <pt x="265" y="-222" on="0"/>
        <pt x="210" y="-213" on="0"/>
        <pt x="196" y="-207" on="1"/>
        <pt x="222" y="-81" on="1"/>
        <pt x="233" y="-84" on="0"/>
        <pt x="257" y="-87" on="0"/>
        <pt x="274" y="-87" on="1"/>
        <pt x="294" y="-87" on="0"/>
        <pt x="319" y="-67" on="0"/>
        <pt x="323" y="-47" on="1"/>
        <pt x="397" y="297" on="1"/>
        <pt x="407" y="341" on="0"/>
        <pt x="368" y="397" on="0"/>
        <pt x="328" y="397" on="1"/>
        <pt x="305" y="397" on="0"/>
        <pt x="263" y="378" on="0"/>
        <pt x="243" y="358" on="1"/>
        <pt x="165" y="0" on="1"/>
      </contour>
    </TTGlyph>
    <TTGlyph name="eogonek" xMin="38" yMin="-231" xMax="543" yMax="524">
      <contour>
        <pt x="491" y="57" on="1"/>
        <pt x="461" y="35" on="0"/>
        <pt x="403" y="6" on="0"/>
        <pt x="373" y="-1" on="1"/>
        <pt x="322" y="-29" on="0"/>
        <pt x="270" y="-85" on="0"/>
        <pt x="270" y="-113" on="1"/>
        <pt x="270" y="-130" on="0"/>
        <pt x="291" y="-149" on="0"/>
        <pt x="310" y="-149" on="1"/>
        <pt x="323" y="-149" on="0"/>
        <pt x="349" y="-143" on="0"/>
        <pt x="357" y="-138" on="1"/>
        <pt x="362" y="-208" on="1"/>
        <pt x="343" y="-218" on="0"/>
        <pt x="292" y="-231" on="0"/>
        <pt x="266" y="-231" on="1"/>
        <pt x="226" y="-231" on="0"/>
        <pt x="178" y="-189" on="0"/>
        <pt x="178" y="-153" on="1"/>
        <pt x="178" y="-114" on="0"/>
        <pt x="227" y="-43" on="0"/>
        <pt x="277" y="-11" on="1"/>
        <pt x="225" y="-9" on="0"/>
        <pt x="137" y="29" on="0"/>
        <pt x="73" y="93" on="0"/>
        <pt x="38" y="181" on="0"/>
        <pt x="38" y="233" on="1"/>
        <pt x="38" y="292" on="0"/>
        <pt x="83" y="398" on="0"/>
        <pt x="159" y="477" on="0"/>
        <pt x="261" y="524" on="0"/>
        <pt x="318" y="524" on="1"/>
        <pt x="418" y="524" on="0"/>
        <pt x="543" y="395" on="0"/>
        <pt x="543" y="293" on="1"/>
        <pt x="543" y="270" on="0"/>
        <pt x="540" y="233" on="0"/>
        <pt x="537" y="217" on="1"/>
        <pt x="191" y="217" on="1"/>
        <pt x="198" y="172" on="0"/>
        <pt x="261" y="117" on="0"/>
        <pt x="307" y="117" on="1"/>
        <pt x="336" y="117" on="0"/>
        <pt x="386" y="136" on="0"/>
        <pt x="404" y="155" on="1"/>
      </contour>
      <contour>
        <pt x="309" y="397" on="1"/>
        <pt x="272" y="397" on="0"/>
        <pt x="215" y="348" on="0"/>
        <pt x="201" y="308" on="1"/>
        <pt x="403" y="308" on="1"/>
        <pt x="397" y="349" on="0"/>
        <pt x="347" y="397" on="0"/>
      </contour>
    </TTGlyph>
    <TTGlyph name="equal" xMin="39" yMin="189" xMax="549" yMax="515">
      <component glyphName="minus" x="-23" y="-108" flags="0x4"/>
      <component glyphName="minus" x="20" y="94" flags="0x4"/>
    </TTGlyph>
    <TTGlyph name="eth" xMin="45" yMin="-9" xMax="583" yMax="774">
      <contour>
        <pt x="291" y="514" on="1"/>
        <pt x="258" y="595" on="1"/>
        <pt x="323" y="629" on="1"/>
        <pt x="310" y="642" on="0"/>
        <pt x="279" y="667" on="0"/>
        <pt x="263" y="677" on="1"/>
        <pt x="364" y="774" on="1"/>
        <pt x="389" y="756" on="0"/>
        <pt x="433" y="717" on="0"/>
        <pt x="452" y="695" on="1"/>
        <pt x="548" y="745" on="1"/>
        <pt x="583" y="663" on="1"/>
        <pt x="504" y="623" on="1"/>
        <pt x="535" y="568" on="0"/>
        <pt x="567" y="438" on="0"/>
        <pt x="567" y="366" on="1"/>
        <pt x="567" y="286" on="0"/>
        <pt x="522" y="148" on="0"/>
        <pt x="445" y="48" on="0"/>
        <pt x="337" y="-9" on="0"/>
        <pt x="274" y="-9" on="1"/>
        <pt x="173" y="-9" on="0"/>
        <pt x="45" y="117" on="0"/>
        <pt x="45" y="217" on="1"/>
        <pt x="45" y="270" on="0"/>
        <pt x="81" y="362" on="0"/>
        <pt x="144" y="428" on="0"/>
        <pt x="232" y="466" on="0"/>
        <pt x="282" y="466" on="1"/>
        <pt x="334" y="466" on="0"/>
        <pt x="417" y="426" on="0"/>
        <pt x="434" y="395" on="1"/>
        <pt x="432" y="438" on="0"/>
        <pt x="404" y="522" on="0"/>
        <pt x="380" y="559" on="1"/>
      </contour>
      <contour>
        <pt x="279" y="128" on="1"/>
        <pt x="324" y="128" on="0"/>
        <pt x="391" y="200" on="0"/>
        <pt x="391" y="248" on="1"/>
        <pt x="391" y="289" on="0"/>
        <pt x="339" y="345" on="0"/>
        <pt x="302" y="345" on="1"/>
        <pt x="256" y="345" on="0"/>
        <pt x="187" y="274" on="0"/>
        <pt x="187" y="226" on="1"/>
        <pt x="187" y="184" on="0"/>
        <pt x="240" y="128" on="0"/>
      </contour>
    </TTGlyph>
    <TTGlyph name="exclam" xMin="8" yMin="-11" xMax="314" yMax="745">
      <contour>
        <pt x="68" y="227" on="1"/>
        <pt x="161" y="745" on="1"/>
        <pt x="314" y="745" on="1"/>
        <pt x="183" y="227" on="1"/>
      </contour>
      <contour>
        <pt x="86" y="-11" on="1"/>
        <pt x="52" y="-11" on="0"/>
        <pt x="8" y="34" on="0"/>
        <pt x="8" y="68" on="1"/>
        <pt x="8" y="110" on="0"/>
        <pt x="68" y="170" on="0"/>
        <pt x="108" y="170" on="1"/>
        <pt x="140" y="170" on="0"/>
        <pt x="183" y="125" on="0"/>
        <pt x="183" y="91" on="1"/>
        <pt x="183" y="51" on="0"/>
        <pt x="124" y="-11" on="0"/>
      </contour>
    </TTGlyph>
    <TTGlyph name="exclamdown" xMin="-9" yMin="-44" xMax="297" yMax="712">
      <contour>
        <pt x="237" y="474" on="1"/>
        <pt x="144" y="-44" on="1"/>
        <pt x="-9" y="-44" on="1"/>
        <pt x="122" y="474" on="1"/>
      </contour>
      <contour>
        <pt x="219" y="712" on="1"/>
        <pt x="253" y="712" on="0"/>
        <pt x="297" y="667" on="0"/>
        <pt x="297" y="633" on="1"/>
        <pt x="297" y="591" on="0"/>
        <pt x="237" y="531" on="0"/>
        <pt x="197" y="531" on="1"/>
        <pt x="165" y="531" on="0"/>
        <pt x="122" y="576" on="0"/>
        <pt x="122" y="610" on="1"/>
        <pt x="122" y="650" on="0"/>
        <pt x="181" y="712" on="0"/>
      </contour>
    </TTGlyph>
    <TTGlyph name="f" xMin="60" yMin="0" xMax="523" yMax="774">
      <contour>
        <pt x="88" y="516" on="1"/>
        <pt x="185" y="516" on="1"/>
        <pt x="202" y="599" on="1"/>
        <pt x="221" y="683" on="0"/>
        <pt x="332" y="774" on="0"/>
        <pt x="417" y="774" on="1"/>
        <pt x="445" y="774" on="0"/>
        <pt x="507" y="764" on="0"/>
        <pt x="523" y="757" on="1"/>
        <pt x="495" y="624" on="1"/>
        <pt x="478" y="629" on="0"/>
        <pt x="443" y="635" on="0"/>
        <pt x="427" y="635" on="1"/>
        <pt x="398" y="635" on="0"/>
        <pt x="364" y="609" on="0"/>
        <pt x="359" y="584" on="1"/>
        <pt x="345" y="516" on="1"/>
        <pt x="478" y="516" on="1"/>
        <pt x="450" y="391" on="1"/>
        <pt x="319" y="391" on="1"/>
        <pt x="239" y="0" on="1"/>
        <pt x="80" y="0" on="1"/>
        <pt x="160" y="391" on="1"/>
        <pt x="60" y="391" on="1"/>
      </contour>
    </TTGlyph>
    <TTGlyph name="fi" xMin="60" yMin="0" xMax="769" yMax="777">
      <component glyphName="f" x="0" y="0" flags="0x4"/>
      <component glyphName="i" x="451" y="0" flags="0x4"/>
    </TTGlyph>
    <TTGlyph name="five" xMin="0" yMin="-9" xMax="619" yMax="700">
      <contour>
        <pt x="78" y="343" on="1"/>
        <pt x="168" y="700" on="1"/>
        <pt x="619" y="700" on="1"/>
        <pt x="590" y="569" on="1"/>
        <pt x="270" y="569" on="1"/>
        <pt x="231" y="420" on="1"/>
        <pt x="256" y="431" on="0"/>
        <pt x="311" y="443" on="0"/>
        <pt x="338" y="443" on="1"/>
        <pt x="434" y="443" on="0"/>
        <pt x="558" y="336" on="0"/>
        <pt x="558" y="252" on="1"/>
        <pt x="558" y="197" on="0"/>
        <pt x="513" y="101" on="0"/>
        <pt x="434" y="31" on="0"/>
        <pt x="326" y="-9" on="0"/>
        <pt x="264" y="-9" on="1"/>
        <pt x="183" y="-9" on="0"/>
        <pt x="47" y="50" on="0"/>
        <pt x="0" y="106" on="1"/>
        <pt x="109" y="205" on="1"/>
        <pt x="148" y="162" on="0"/>
        <pt x="227" y="123" on="0"/>
        <pt x="275" y="123" on="1"/>
        <pt x="329" y="123" on="0"/>
        <pt x="402" y="184" on="0"/>
        <pt x="402" y="229" on="1"/>
        <pt x="402" y="271" on="0"/>
        <pt x="330" y="327" on="0"/>
        <pt x="276" y="327" on="1"/>
        <pt x="253" y="327" on="0"/>
        <pt x="204" y="315" on="0"/>
        <pt x="176" y="303" on="1"/>
      </contour>
    </TTGlyph>
    <TTGlyph name="fl" xMin="60" yMin="0" xMax="772" yMax="774">
      <component glyphName="f" x="0" y="0" flags="0x4"/>
      <component glyphName="l" x="451" y="0" flags="0x4"/>
    </TTGlyph>
    <TTGlyph name="four" xMin="17" yMin="0" xMax="650" yMax="700">
      <contour>
        <pt x="650" y="700" on="1"/>
        <pt x="562" y="288" on="1"/>
        <pt x="645" y="288" on="1"/>
        <pt x="616" y="157" on="1"/>
        <pt x="534" y="157" on="1"/>
        <pt x="501" y="0" on="1"/>
        <pt x="351" y="0" on="1"/>
        <pt x="384" y="157" on="1"/>
        <pt x="17" y="157" on="1"/>
        <pt x="45" y="284" on="1"/>
        <pt x="474" y="700" on="1"/>
      </contour>
      <contour>
        <pt x="202" y="288" on="1"/>
        <pt x="412" y="288" on="1"/>
        <pt x="467" y="547" on="1"/>
      </contour>
    </TTGlyph>
    <TTGlyph name="fraction" xMin="-39" yMin="0" xMax="607" yMax="700">
      <contour>
        <pt x="68" y="0" on="1"/>
        <pt x="-39" y="0" on="1"/>
        <pt x="499" y="700" on="1"/>
        <pt x="607" y="700" on="1"/>
      </contour>
    </TTGlyph>
    <TTGlyph name="g" xMin="9" yMin="-225" xMax="622" yMax="519">
      <contour>
        <pt x="236" y="1" on="1"/>
        <pt x="195" y="1" on="0"/>
        <pt x="124" y="37" on="0"/>
        <pt x="73" y="100" on="0"/>
        <pt x="43" y="186" on="0"/>
        <pt x="43" y="235" on="1"/>
        <pt x="43" y="294" on="0"/>
        <pt x="84" y="398" on="0"/>
        <pt x="154" y="474" on="0"/>
        <pt x="249" y="519" on="0"/>
        <pt x="302" y="519" on="1"/>
        <pt x="350" y="519" on="0"/>
        <pt x="426" y="480" on="0"/>
        <pt x="451" y="443" on="1"/>
        <pt x="466" y="516" on="1"/>
        <pt x="622" y="516" on="1"/>
        <pt x="506" y="-35" on="1"/>
        <pt x="487" y="-128" on="0"/>
        <pt x="356" y="-225" on="0"/>
        <pt x="252" y="-225" on="1"/>
        <pt x="189" y="-225" on="0"/>
        <pt x="58" y="-187" on="0"/>
        <pt x="9" y="-153" on="1"/>
        <pt x="77" y="-42" on="1"/>
        <pt x="120" y="-70" on="0"/>
        <pt x="206" y="-100" on="0"/>
        <pt x="245" y="-100" on="1"/>
        <pt x="290" y="-100" on="0"/>
        <pt x="345" y="-58" on="0"/>
        <pt x="353" y="-17" on="1"/>
        <pt x="367" y="53" on="1"/>
        <pt x="342" y="28" on="0"/>
        <pt x="273" y="1" on="0"/>
      </contour>
      <contour>
        <pt x="199" y="248" on="1"/>
        <pt x="199" y="197" on="0"/>
        <pt x="259" y="132" on="0"/>
        <pt x="306" y="132" on="1"/>
        <pt x="330" y="132" on="0"/>
        <pt x="372" y="149" on="0"/>
        <pt x="391" y="166" on="1"/>
        <pt x="427" y="343" on="1"/>
        <pt x="410" y="362" on="0"/>
        <pt x="357" y="385" on="0"/>
        <pt x="327" y="385" on="1"/>
        <pt x="273" y="385" on="0"/>
        <pt x="199" y="307" on="0"/>
      </contour>
    </TTGlyph>
    <TTGlyph name="g.alt" xMin="-50" yMin="-219" xMax="676" yMax="545">
      <contour>
        <pt x="71" y="316" on="1"/>
        <pt x="71" y="359" on="0"/>
        <pt x="111" y="435" on="0"/>
        <pt x="180" y="491" on="0"/>
        <pt x="273" y="524" on="0"/>
        <pt x="325" y="524" on="1"/>
        <pt x="386" y="524" on="0"/>
        <pt x="486" y="483" on="0"/>
        <pt x="516" y="448" on="1"/>
        <pt x="543" y="498" on="0"/>
        <pt x="603" y="545" on="0"/>
        <pt x="639" y="545" on="1"/>
        <pt x="649" y="545" on="0"/>
        <pt x="665" y="542" on="0"/>
        <pt x="676" y="538" on="1"/>
        <pt x="650" y="412" on="1"/>
        <pt x="638" y="417" on="0"/>
        <pt x="602" y="424" on="0"/>
        <pt x="586" y="424" on="1"/>
        <pt x="573" y="424" on="0"/>
        <pt x="549" y="418" on="0"/>
        <pt x="539" y="414" on="1"/>
        <pt x="546" y="398" on="0"/>
        <pt x="554" y="365" on="0"/>
        <pt x="554" y="347" on="1"/>
        <pt x="554" y="304" on="0"/>
        <pt x="514" y="229" on="0"/>
        <pt x="446" y="174" on="0"/>
        <pt x="352" y="142" on="0"/>
        <pt x="298" y="142" on="1"/>
        <pt x="273" y="142" on="0"/>
        <pt x="225" y="149" on="0"/>
        <pt x="204" y="156" on="1"/>
        <pt x="188" y="152" on="0"/>
        <pt x="171" y="134" on="0"/>
        <pt x="171" y="121" on="1"/>
        <pt x="171" y="110" on="0"/>
        <pt x="194" y="96" on="0"/>
        <pt x="216" y="94" on="1"/>
        <pt x="397" y="77" on="1"/>
        <pt x="469" y="69" on="0"/>
        <pt x="546" y="9" on="0"/>
        <pt x="546" y="-38" on="1"/>
        <pt x="546" y="-79" on="0"/>
        <pt x="503" y="-146" on="0"/>
        <pt x="424" y="-193" on="0"/>
        <pt x="312" y="-219" on="0"/>
        <pt x="244" y="-219" on="1"/>
        <pt x="178" y="-219" on="0"/>
        <pt x="68" y="-203" on="0"/>
        <pt x="-8" y="-173" on="0"/>
        <pt x="-50" y="-130" on="0"/>
        <pt x="-50" y="-104" on="1"/>
        <pt x="-50" y="-69" on="0"/>
        <pt x="19" y="-22" on="0"/>
        <pt x="79" y="-15" on="1"/>
        <pt x="57" y="-3" on="0"/>
        <pt x="35" y="31" on="0"/>
        <pt x="35" y="53" on="1"/>
        <pt x="35" y="99" on="0"/>
        <pt x="110" y="163" on="0"/>
        <pt x="170" y="170" on="1"/>
        <pt x="124" y="192" on="0"/>
        <pt x="71" y="269" on="0"/>
      </contour>
      <contour>
        <pt x="404" y="340" on="1"/>
        <pt x="404" y="372" on="0"/>
        <pt x="357" y="414" on="0"/>
        <pt x="320" y="414" on="1"/>
        <pt x="277" y="414" on="0"/>
        <pt x="219" y="361" on="0"/>
        <pt x="219" y="323" on="1"/>
        <pt x="219" y="290" on="0"/>
        <pt x="266" y="248" on="0"/>
        <pt x="303" y="248" on="1"/>
        <pt x="345" y="248" on="0"/>
        <pt x="404" y="302" on="0"/>
      </contour>
      <contour>
        <pt x="95" y="-69" on="1"/>
        <pt x="95" y="-94" on="0"/>
        <pt x="179" y="-122" on="0"/>
        <pt x="254" y="-122" on="1"/>
        <pt x="310" y="-122" on="0"/>
        <pt x="380" y="-98" on="0"/>
        <pt x="380" y="-79" on="1"/>
        <pt x="380" y="-71" on="0"/>
        <pt x="362" y="-60" on="0"/>
        <pt x="345" y="-58" on="1"/>
        <pt x="188" y="-44" on="1"/>
        <pt x="169" y="-43" on="0"/>
        <pt x="136" y="-36" on="0"/>
        <pt x="122" y="-32" on="1"/>
        <pt x="109" y="-38" on="0"/>
        <pt x="95" y="-57" on="0"/>
      </contour>
    </TTGlyph>
    <TTGlyph name="gbreve" xMin="9" yMin="-225" xMax="622" yMax="772">
      <component glyphName="g" x="0" y="0" flags="0x204"/>
      <component glyphName="breve" x="37" y="0" flags="0x4"/>
    </TTGlyph>
    <TTGlyph name="gbreve.alt" xMin="-50" yMin="-219" xMax="676" yMax="772">
      <component glyphName="g.alt" x="0" y="0" flags="0x204"/>
      <component glyphName="breve" x="23" y="0" flags="0x4"/>
    </TTGlyph>
    <TTGlyph name="gcircumflex" xMin="9" yMin="-225" xMax="622" yMax="750">
      <component glyphName="g" x="0" y="0" flags="0x204"/>
      <component glyphName="circumflex" x="35" y="0" flags="0x4"/>
    </TTGlyph>
    <TTGlyph name="gcircumflex.alt" xMin="-50" yMin="-219" xMax="676" yMax="750">
      <component glyphName="g.alt" x="0" y="0" flags="0x204"/>
      <component glyphName="circumflex" x="21" y="0" flags="0x4"/>
    </TTGlyph>
    <TTGlyph name="gcommaaccent" xMin="9" yMin="-225" xMax="622" yMax="842">
      <contour>
        <pt x="397" y="627" on="1"/>
        <pt x="256" y="627" on="1"/>
        <pt x="396" y="842" on="1"/>
        <pt x="505" y="842" on="1"/>
      </contour>
      <contour>
        <pt x="236" y="1" on="1"/>
        <pt x="195" y="1" on="0"/>
        <pt x="124" y="37" on="0"/>
        <pt x="73" y="100" on="0"/>
        <pt x="43" y="186" on="0"/>
        <pt x="43" y="235" on="1"/>
        <pt x="43" y="294" on="0"/>
        <pt x="84" y="398" on="0"/>
        <pt x="154" y="474" on="0"/>
        <pt x="249" y="519" on="0"/>
        <pt x="302" y="519" on="1"/>
        <pt x="350" y="519" on="0"/>
        <pt x="426" y="480" on="0"/>
        <pt x="451" y="443" on="1"/>
        <pt x="466" y="516" on="1"/>
        <pt x="622" y="516" on="1"/>
        <pt x="506" y="-35" on="1"/>
        <pt x="487" y="-128" on="0"/>
        <pt x="356" y="-225" on="0"/>
        <pt x="252" y="-225" on="1"/>
        <pt x="189" y="-225" on="0"/>
        <pt x="58" y="-187" on="0"/>
        <pt x="9" y="-153" on="1"/>
        <pt x="77" y="-42" on="1"/>
        <pt x="120" y="-70" on="0"/>
        <pt x="206" y="-100" on="0"/>
        <pt x="245" y="-100" on="1"/>
        <pt x="290" y="-100" on="0"/>
        <pt x="345" y="-58" on="0"/>
        <pt x="353" y="-17" on="1"/>
        <pt x="367" y="53" on="1"/>
        <pt x="342" y="28" on="0"/>
        <pt x="273" y="1" on="0"/>
      </contour>
      <contour>
        <pt x="199" y="248" on="1"/>
        <pt x="199" y="197" on="0"/>
        <pt x="259" y="132" on="0"/>
        <pt x="306" y="132" on="1"/>
        <pt x="330" y="132" on="0"/>
        <pt x="372" y="149" on="0"/>
        <pt x="391" y="166" on="1"/>
        <pt x="427" y="343" on="1"/>
        <pt x="410" y="362" on="0"/>
        <pt x="357" y="385" on="0"/>
        <pt x="327" y="385" on="1"/>
        <pt x="273" y="385" on="0"/>
        <pt x="199" y="307" on="0"/>
      </contour>
    </TTGlyph>
    <TTGlyph name="gcommaaccent.alt" xMin="-50" yMin="-219" xMax="676" yMax="842">
      <contour>
        <pt x="431" y="627" on="1"/>
        <pt x="290" y="627" on="1"/>
        <pt x="430" y="842" on="1"/>
        <pt x="539" y="842" on="1"/>
      </contour>
      <contour>
        <pt x="71" y="316" on="1"/>
        <pt x="71" y="359" on="0"/>
        <pt x="111" y="435" on="0"/>
        <pt x="180" y="491" on="0"/>
        <pt x="273" y="524" on="0"/>
        <pt x="325" y="524" on="1"/>
        <pt x="386" y="524" on="0"/>
        <pt x="486" y="483" on="0"/>
        <pt x="516" y="448" on="1"/>
        <pt x="543" y="498" on="0"/>
        <pt x="603" y="545" on="0"/>
        <pt x="639" y="545" on="1"/>
        <pt x="649" y="545" on="0"/>
        <pt x="665" y="542" on="0"/>
        <pt x="676" y="538" on="1"/>
        <pt x="650" y="412" on="1"/>
        <pt x="638" y="417" on="0"/>
        <pt x="602" y="424" on="0"/>
        <pt x="586" y="424" on="1"/>
        <pt x="573" y="424" on="0"/>
        <pt x="549" y="418" on="0"/>
        <pt x="539" y="414" on="1"/>
        <pt x="546" y="398" on="0"/>
        <pt x="554" y="365" on="0"/>
        <pt x="554" y="347" on="1"/>
        <pt x="554" y="304" on="0"/>
        <pt x="514" y="229" on="0"/>
        <pt x="446" y="174" on="0"/>
        <pt x="352" y="142" on="0"/>
        <pt x="298" y="142" on="1"/>
        <pt x="273" y="142" on="0"/>
        <pt x="225" y="149" on="0"/>
        <pt x="204" y="156" on="1"/>
        <pt x="188" y="152" on="0"/>
        <pt x="171" y="134" on="0"/>
        <pt x="171" y="121" on="1"/>
        <pt x="171" y="110" on="0"/>
        <pt x="194" y="96" on="0"/>
        <pt x="216" y="94" on="1"/>
        <pt x="397" y="77" on="1"/>
        <pt x="469" y="69" on="0"/>
        <pt x="546" y="9" on="0"/>
        <pt x="546" y="-38" on="1"/>
        <pt x="546" y="-79" on="0"/>
        <pt x="503" y="-146" on="0"/>
        <pt x="424" y="-193" on="0"/>
        <pt x="312" y="-219" on="0"/>
        <pt x="244" y="-219" on="1"/>
        <pt x="178" y="-219" on="0"/>
        <pt x="68" y="-203" on="0"/>
        <pt x="-8" y="-173" on="0"/>
        <pt x="-50" y="-130" on="0"/>
        <pt x="-50" y="-104" on="1"/>
        <pt x="-50" y="-69" on="0"/>
        <pt x="19" y="-22" on="0"/>
        <pt x="79" y="-15" on="1"/>
        <pt x="57" y="-3" on="0"/>
        <pt x="35" y="31" on="0"/>
        <pt x="35" y="53" on="1"/>
        <pt x="35" y="99" on="0"/>
        <pt x="110" y="163" on="0"/>
        <pt x="170" y="170" on="1"/>
        <pt x="124" y="192" on="0"/>
        <pt x="71" y="269" on="0"/>
      </contour>
      <contour>
        <pt x="404" y="340" on="1"/>
        <pt x="404" y="372" on="0"/>
        <pt x="357" y="414" on="0"/>
        <pt x="320" y="414" on="1"/>
        <pt x="277" y="414" on="0"/>
        <pt x="219" y="361" on="0"/>
        <pt x="219" y="323" on="1"/>
        <pt x="219" y="290" on="0"/>
        <pt x="266" y="248" on="0"/>
        <pt x="303" y="248" on="1"/>
        <pt x="345" y="248" on="0"/>
        <pt x="404" y="302" on="0"/>
      </contour>
      <contour>
        <pt x="95" y="-69" on="1"/>
        <pt x="95" y="-94" on="0"/>
        <pt x="179" y="-122" on="0"/>
        <pt x="254" y="-122" on="1"/>
        <pt x="310" y="-122" on="0"/>
        <pt x="380" y="-98" on="0"/>
        <pt x="380" y="-79" on="1"/>
        <pt x="380" y="-71" on="0"/>
        <pt x="362" y="-60" on="0"/>
        <pt x="345" y="-58" on="1"/>
        <pt x="188" y="-44" on="1"/>
        <pt x="169" y="-43" on="0"/>
        <pt x="136" y="-36" on="0"/>
        <pt x="122" y="-32" on="1"/>
        <pt x="109" y="-38" on="0"/>
        <pt x="95" y="-57" on="0"/>
      </contour>
    </TTGlyph>
    <TTGlyph name="gdotaccent" xMin="9" yMin="-225" xMax="622" yMax="766">
      <component glyphName="g" x="0" y="0" flags="0x204"/>
      <component glyphName="dotaccent" x="138" y="0" flags="0x4"/>
    </TTGlyph>
    <TTGlyph name="gdotaccent.alt" xMin="-50" yMin="-219" xMax="676" yMax="766">
      <component glyphName="g.alt" x="0" y="0" flags="0x204"/>
      <component glyphName="dotaccent" x="124" y="0" flags="0x4"/>
    </TTGlyph>
    <TTGlyph name="germandbls" xMin="4" yMin="-13" xMax="661" yMax="765">
      <contour>
        <pt x="475" y="359" on="1"/>
        <pt x="475" y="350" on="0"/>
        <pt x="488" y="335" on="0"/>
        <pt x="501" y="328" on="1"/>
        <pt x="567" y="293" on="1"/>
        <pt x="613" y="268" on="0"/>
        <pt x="659" y="203" on="0"/>
        <pt x="659" y="163" on="1"/>
        <pt x="659" y="85" on="0"/>
        <pt x="549" y="-13" on="0"/>
        <pt x="462" y="-13" on="1"/>
        <pt x="399" y="-13" on="0"/>
        <pt x="288" y="33" on="0"/>
        <pt x="252" y="76" on="1"/>
        <pt x="335" y="168" on="1"/>
        <pt x="361" y="138" on="0"/>
        <pt x="427" y="103" on="0"/>
        <pt x="458" y="103" on="1"/>
        <pt x="485" y="103" on="0"/>
        <pt x="516" y="127" on="0"/>
        <pt x="516" y="148" on="1"/>
        <pt x="516" y="163" on="0"/>
        <pt x="495" y="184" on="0"/>
        <pt x="469" y="197" on="1"/>
        <pt x="396" y="233" on="1"/>
        <pt x="362" y="249" on="0"/>
        <pt x="328" y="304" on="0"/>
        <pt x="328" y="340" on="1"/>
        <pt x="328" y="395" on="0"/>
        <pt x="382" y="456" on="0"/>
        <pt x="447" y="497" on="0"/>
        <pt x="501" y="534" on="0"/>
        <pt x="501" y="565" on="1"/>
        <pt x="501" y="592" on="0"/>
        <pt x="441" y="630" on="0"/>
        <pt x="398" y="630" on="1"/>
        <pt x="347" y="630" on="0"/>
        <pt x="280" y="566" on="0"/>
        <pt x="267" y="503" on="1"/>
        <pt x="164" y="0" on="1"/>
        <pt x="4" y="0" on="1"/>
        <pt x="112" y="526" on="1"/>
        <pt x="136" y="639" on="0"/>
        <pt x="286" y="765" on="0"/>
        <pt x="399" y="765" on="1"/>
        <pt x="456" y="765" on="0"/>
        <pt x="552" y="736" on="0"/>
        <pt x="622" y="686" on="0"/>
        <pt x="661" y="615" on="0"/>
        <pt x="661" y="574" on="1"/>
        <pt x="661" y="518" on="0"/>
        <pt x="603" y="451" on="0"/>
        <pt x="533" y="408" on="0"/>
        <pt x="475" y="378" on="0"/>
      </contour>
    </TTGlyph>
    <TTGlyph name="grave" xMin="91" yMin="601" xMax="421" yMax="747">
      <contour>
        <pt x="285" y="747" on="1"/>
        <pt x="421" y="601" on="1"/>
        <pt x="280" y="601" on="1"/>
        <pt x="91" y="747" on="1"/>
      </contour>
    </TTGlyph>
    <TTGlyph name="greater" xMin="66" yMin="43" xMax="542" yMax="652">
      <contour>
        <pt x="257" y="652" on="1"/>
        <pt x="542" y="347" on="1"/>
        <pt x="128" y="43" on="1"/>
        <pt x="66" y="141" on="1"/>
        <pt x="362" y="352" on="1"/>
        <pt x="157" y="562" on="1"/>
      </contour>
    </TTGlyph>
    <TTGlyph name="guillemotleft" xMin="28" yMin="0" xMax="758" yMax="516">
      <component glyphName="guilsinglleft" x="0" y="0" flags="0x4"/>
      <component glyphName="guilsinglleft" x="290" y="0" flags="0x4"/>
    </TTGlyph>
    <TTGlyph name="guillemotright" xMin="-12" yMin="0" xMax="718" yMax="516">
      <contour>
        <pt x="278" y="0" on="1"/>
        <pt x="558" y="259" on="1"/>
        <pt x="392" y="516" on="1"/>
        <pt x="545" y="516" on="1"/>
        <pt x="718" y="258" on="1"/>
        <pt x="433" y="0" on="1"/>
      </contour>
      <contour>
        <pt x="-12" y="0" on="1"/>
        <pt x="268" y="259" on="1"/>
        <pt x="102" y="516" on="1"/>
        <pt x="255" y="516" on="1"/>
        <pt x="428" y="258" on="1"/>
        <pt x="143" y="0" on="1"/>
      </contour>
    </TTGlyph>
    <TTGlyph name="guilsinglleft" xMin="28" yMin="0" xMax="468" yMax="516">
      <contour>
        <pt x="468" y="516" on="1"/>
        <pt x="188" y="257" on="1"/>
        <pt x="354" y="0" on="1"/>
        <pt x="201" y="0" on="1"/>
        <pt x="28" y="258" on="1"/>
        <pt x="313" y="516" on="1"/>
      </contour>
    </TTGlyph>
    <TTGlyph name="guilsinglright" xMin="-12" yMin="0" xMax="428" yMax="516">
      <contour>
        <pt x="-12" y="0" on="1"/>
        <pt x="268" y="259" on="1"/>
        <pt x="102" y="516" on="1"/>
        <pt x="255" y="516" on="1"/>
        <pt x="428" y="258" on="1"/>
        <pt x="143" y="0" on="1"/>
      </contour>
    </TTGlyph>
    <TTGlyph name="h" xMin="6" yMin="0" xMax="570" yMax="740">
      <contour>
        <pt x="6" y="0" on="1"/>
        <pt x="155" y="715" on="1"/>
        <pt x="321" y="740" on="1"/>
        <pt x="256" y="432" on="1"/>
        <pt x="293" y="476" on="0"/>
        <pt x="380" y="522" on="0"/>
        <pt x="429" y="522" on="1"/>
        <pt x="507" y="522" on="0"/>
        <pt x="582" y="419" on="0"/>
        <pt x="564" y="337" on="1"/>
        <pt x="492" y="0" on="1"/>
        <pt x="333" y="0" on="1"/>
        <pt x="397" y="297" on="1"/>
        <pt x="407" y="341" on="0"/>
        <pt x="368" y="397" on="0"/>
        <pt x="328" y="397" on="1"/>
        <pt x="304" y="397" on="0"/>
        <pt x="261" y="377" on="0"/>
        <pt x="240" y="355" on="1"/>
        <pt x="165" y="0" on="1"/>
      </contour>
    </TTGlyph>
    <TTGlyph name="hbar" xMin="16" yMin="0" xMax="580" yMax="740">
      <contour>
        <pt x="16" y="0" on="1"/>
        <pt x="133" y="560" on="1"/>
        <pt x="81" y="560" on="1"/>
        <pt x="101" y="648" on="1"/>
        <pt x="151" y="648" on="1"/>
        <pt x="165" y="715" on="1"/>
        <pt x="331" y="740" on="1"/>
        <pt x="312" y="648" on="1"/>
        <pt x="418" y="648" on="1"/>
        <pt x="398" y="560" on="1"/>
        <pt x="293" y="560" on="1"/>
        <pt x="266" y="432" on="1"/>
        <pt x="303" y="476" on="0"/>
        <pt x="390" y="522" on="0"/>
        <pt x="439" y="522" on="1"/>
        <pt x="517" y="522" on="0"/>
        <pt x="592" y="419" on="0"/>
        <pt x="574" y="337" on="1"/>
        <pt x="502" y="0" on="1"/>
        <pt x="343" y="0" on="1"/>
        <pt x="407" y="297" on="1"/>
        <pt x="417" y="341" on="0"/>
        <pt x="378" y="397" on="0"/>
        <pt x="338" y="397" on="1"/>
        <pt x="314" y="397" on="0"/>
        <pt x="271" y="377" on="0"/>
        <pt x="250" y="355" on="1"/>
        <pt x="175" y="0" on="1"/>
      </contour>
    </TTGlyph>
    <TTGlyph name="hcircumflex" xMin="6" yMin="0" xMax="569" yMax="933">
      <contour>
        <pt x="328" y="782" on="1"/>
        <pt x="264" y="865" on="1"/>
        <pt x="168" y="782" on="1"/>
        <pt x="41" y="782" on="1"/>
        <pt x="197" y="933" on="1"/>
        <pt x="350" y="933" on="1"/>
        <pt x="445" y="782" on="1"/>
      </contour>
      <contour>
        <pt x="6" y="0" on="1"/>
        <pt x="157" y="710" on="1"/>
        <pt x="313" y="710" on="1"/>
        <pt x="255" y="430" on="1"/>
        <pt x="292" y="475" on="0"/>
        <pt x="380" y="522" on="0"/>
        <pt x="429" y="522" on="1"/>
        <pt x="505" y="522" on="0"/>
        <pt x="581" y="417" on="0"/>
        <pt x="564" y="337" on="1"/>
        <pt x="492" y="0" on="1"/>
        <pt x="333" y="0" on="1"/>
        <pt x="397" y="297" on="1"/>
        <pt x="407" y="341" on="0"/>
        <pt x="368" y="397" on="0"/>
        <pt x="328" y="397" on="1"/>
        <pt x="304" y="397" on="0"/>
        <pt x="260" y="376" on="0"/>
        <pt x="239" y="354" on="1"/>
        <pt x="165" y="0" on="1"/>
      </contour>
    </TTGlyph>
    <TTGlyph name="hungarumlaut" xMin="130" yMin="603" xMax="657" yMax="746">
      <contour>
        <pt x="292" y="746" on="1"/>
        <pt x="432" y="746" on="1"/>
        <pt x="248" y="603" on="1"/>
        <pt x="130" y="603" on="1"/>
      </contour>
      <contour>
        <pt x="514" y="746" on="1"/>
        <pt x="657" y="746" on="1"/>
        <pt x="462" y="603" on="1"/>
        <pt x="352" y="603" on="1"/>
      </contour>
    </TTGlyph>
    <TTGlyph name="hyphen" xMin="41" yMin="219" xMax="430" yMax="354">
      <contour>
        <pt x="69" y="354" on="1"/>
        <pt x="430" y="354" on="1"/>
        <pt x="402" y="219" on="1"/>
        <pt x="41" y="219" on="1"/>
      </contour>
    </TTGlyph>
    <TTGlyph name="hyphen.cap" xMin="41" yMin="284" xMax="430" yMax="419">
      <component glyphName="hyphen" x="0" y="65" flags="0x4"/>
    </TTGlyph>
    <TTGlyph name="i" xMin="6" yMin="0" xMax="318" yMax="777">
      <contour>
        <pt x="217" y="596" on="1"/>
        <pt x="183" y="596" on="0"/>
        <pt x="137" y="641" on="0"/>
        <pt x="137" y="675" on="1"/>
        <pt x="137" y="715" on="0"/>
        <pt x="197" y="777" on="0"/>
        <pt x="237" y="777" on="1"/>
        <pt x="271" y="777" on="0"/>
        <pt x="318" y="731" on="0"/>
        <pt x="318" y="697" on="1"/>
        <pt x="318" y="656" on="0"/>
        <pt x="258" y="596" on="0"/>
      </contour>
      <contour>
        <pt x="277" y="516" on="1"/>
        <pt x="165" y="0" on="1"/>
        <pt x="6" y="0" on="1"/>
        <pt x="118" y="516" on="1"/>
      </contour>
    </TTGlyph>
    <TTGlyph name="iacute" xMin="6" yMin="0" xMax="484" yMax="747">
      <component glyphName="dotlessi" x="0" y="0" flags="0x204"/>
      <component glyphName="acute" x="-84" y="0" flags="0x4"/>
    </TTGlyph>
    <TTGlyph name="ibreve" xMin="6" yMin="0" xMax="423" yMax="772">
      <component glyphName="dotlessi" x="0" y="0" flags="0x204"/>
      <component glyphName="breve" x="-114" y="0" flags="0x4"/>
    </TTGlyph>
    <TTGlyph name="icircumflex" xMin="6" yMin="0" xMax="415" yMax="750">
      <component glyphName="dotlessi" x="0" y="0" flags="0x204"/>
      <component glyphName="circumflex" x="-116" y="0" flags="0x4"/>
    </TTGlyph>
    <TTGlyph name="idieresis" xMin="6" yMin="0" xMax="422" yMax="766">
      <component glyphName="dotlessi" x="0" y="0" flags="0x204"/>
      <component glyphName="dieresis" x="-157" y="0" flags="0x4"/>
    </TTGlyph>
    <TTGlyph name="idotaccent" xMin="6" yMin="0" xMax="318" yMax="777">
      <component glyphName="i" x="0" y="0" flags="0x4"/>
    </TTGlyph>
    <TTGlyph name="igrave" xMin="-51" yMin="0" xMax="279" yMax="747">
      <component glyphName="dotlessi" x="0" y="0" flags="0x204"/>
      <component glyphName="grave" x="-142" y="0" flags="0x4"/>
    </TTGlyph>
    <TTGlyph name="ij" xMin="6" yMin="-223" xMax="605" yMax="777">
      <component glyphName="i" x="0" y="0" flags="0x4"/>
      <component glyphName="j" x="287" y="0" flags="0x4"/>
    </TTGlyph>
    <TTGlyph name="imacron" xMin="6" yMin="0" xMax="404" yMax="726">
      <component glyphName="dotlessi" x="0" y="0" flags="0x204"/>
      <component glyphName="macron" x="-114" y="0" flags="0x4"/>
    </TTGlyph>
    <TTGlyph name="iogonek" xMin="-32" yMin="-231" xMax="318" yMax="777">
      <contour>
        <pt x="217" y="596" on="1"/>
        <pt x="183" y="596" on="0"/>
        <pt x="137" y="641" on="0"/>
        <pt x="137" y="675" on="1"/>
        <pt x="137" y="715" on="0"/>
        <pt x="197" y="777" on="0"/>
        <pt x="237" y="777" on="1"/>
        <pt x="271" y="777" on="0"/>
        <pt x="318" y="731" on="0"/>
        <pt x="318" y="697" on="1"/>
        <pt x="318" y="656" on="0"/>
        <pt x="258" y="596" on="0"/>
      </contour>
      <contour>
        <pt x="165" y="0" on="1"/>
        <pt x="113" y="-28" on="0"/>
        <pt x="60" y="-85" on="0"/>
        <pt x="60" y="-113" on="1"/>
        <pt x="60" y="-130" on="0"/>
        <pt x="81" y="-149" on="0"/>
        <pt x="100" y="-149" on="1"/>
        <pt x="113" y="-149" on="0"/>
        <pt x="139" y="-143" on="0"/>
        <pt x="147" y="-138" on="1"/>
        <pt x="152" y="-208" on="1"/>
        <pt x="133" y="-218" on="0"/>
        <pt x="82" y="-231" on="0"/>
        <pt x="56" y="-231" on="1"/>
        <pt x="16" y="-231" on="0"/>
        <pt x="-32" y="-189" on="0"/>
        <pt x="-32" y="-153" on="1"/>
        <pt x="-32" y="-111" on="0"/>
        <pt x="26" y="-35" on="0"/>
        <pt x="84" y="0" on="1"/>
        <pt x="6" y="0" on="1"/>
        <pt x="118" y="516" on="1"/>
        <pt x="277" y="516" on="1"/>
      </contour>
    </TTGlyph>
    <TTGlyph name="itilde" xMin="6" yMin="0" xMax="442" yMax="760">
      <component glyphName="dotlessi" x="0" y="0" flags="0x204"/>
      <component glyphName="tilde" x="-111" y="0" flags="0x4"/>
    </TTGlyph>
    <TTGlyph name="j" xMin="-132" yMin="-223" xMax="318" yMax="777">
      <contour>
        <pt x="217" y="596" on="1"/>
        <pt x="183" y="596" on="0"/>
        <pt x="137" y="641" on="0"/>
        <pt x="137" y="675" on="1"/>
        <pt x="137" y="715" on="0"/>
        <pt x="197" y="777" on="0"/>
        <pt x="237" y="777" on="1"/>
        <pt x="271" y="777" on="0"/>
        <pt x="318" y="731" on="0"/>
        <pt x="318" y="697" on="1"/>
        <pt x="318" y="656" on="0"/>
        <pt x="258" y="596" on="0"/>
      </contour>
      <contour>
        <pt x="-40" y="-223" on="1"/>
        <pt x="-63" y="-223" on="0"/>
        <pt x="-118" y="-214" on="0"/>
        <pt x="-132" y="-208" on="1"/>
        <pt x="-106" y="-86" on="1"/>
        <pt x="-95" y="-89" on="0"/>
        <pt x="-71" y="-92" on="0"/>
        <pt x="-54" y="-92" on="1"/>
        <pt x="-33" y="-92" on="0"/>
        <pt x="-8" y="-72" on="0"/>
        <pt x="-4" y="-52" on="1"/>
        <pt x="118" y="516" on="1"/>
        <pt x="278" y="516" on="1"/>
        <pt x="152" y="-67" on="1"/>
        <pt x="136" y="-142" on="0"/>
        <pt x="35" y="-223" on="0"/>
      </contour>
    </TTGlyph>
    <TTGlyph name="jcircumflex" xMin="-132" yMin="-223" xMax="416" yMax="750">
      <component glyphName="dotlessj" x="0" y="0" flags="0x204"/>
      <component glyphName="circumflex" x="-115" y="0" flags="0x4"/>
    </TTGlyph>
    <TTGlyph name="k" xMin="6" yMin="0" xMax="629" yMax="740">
      <contour>
        <pt x="6" y="0" on="1"/>
        <pt x="158" y="715" on="1"/>
        <pt x="321" y="740" on="1"/>
        <pt x="227" y="296" on="1"/>
        <pt x="438" y="516" on="1"/>
        <pt x="629" y="516" on="1"/>
        <pt x="358" y="255" on="1"/>
        <pt x="531" y="0" on="1"/>
        <pt x="343" y="0" on="1"/>
        <pt x="211" y="218" on="1"/>
        <pt x="165" y="0" on="1"/>
      </contour>
    </TTGlyph>
    <TTGlyph name="kcommaaccent" xMin="6" yMin="-305" xMax="629" yMax="740">
      <component glyphName="k" x="0" y="0" flags="0x204"/>
      <component glyphName="commaaccent" x="163" y="0" flags="0x4"/>
    </TTGlyph>
    <TTGlyph name="kgreenlandic" xMin="6" yMin="0" xMax="629" yMax="516">
      <contour>
        <pt x="6" y="0" on="1"/>
        <pt x="120" y="516" on="1"/>
        <pt x="277" y="516" on="1"/>
        <pt x="230" y="299" on="1"/>
        <pt x="438" y="516" on="1"/>
        <pt x="629" y="516" on="1"/>
        <pt x="358" y="255" on="1"/>
        <pt x="531" y="0" on="1"/>
        <pt x="343" y="0" on="1"/>
        <pt x="212" y="216" on="1"/>
        <pt x="165" y="0" on="1"/>
      </contour>
    </TTGlyph>
    <TTGlyph name="l" xMin="6" yMin="0" xMax="321" yMax="740">
      <contour>
        <pt x="321" y="740" on="1"/>
        <pt x="165" y="0" on="1"/>
        <pt x="6" y="0" on="1"/>
        <pt x="158" y="715" on="1"/>
      </contour>
    </TTGlyph>
    <TTGlyph name="lacute" xMin="6" yMin="0" xMax="521" yMax="926">
      <contour>
        <pt x="327" y="926" on="1"/>
        <pt x="521" y="926" on="1"/>
        <pt x="304" y="780" on="1"/>
        <pt x="160" y="780" on="1"/>
      </contour>
      <contour>
        <pt x="6" y="0" on="1"/>
        <pt x="155" y="710" on="1"/>
        <pt x="313" y="710" on="1"/>
        <pt x="165" y="0" on="1"/>
      </contour>
    </TTGlyph>
    <TTGlyph name="lcaron" xMin="21" yMin="0" xMax="572" yMax="740">
      <component glyphName="l" x="15" y="0" flags="0x4"/>
      <component glyphName="caronSlovak" x="253" y="0" flags="0x4"/>
    </TTGlyph>
    <TTGlyph name="lcommaaccent" xMin="-97" yMin="-305" xMax="321" yMax="740">
      <component glyphName="l" x="0" y="0" flags="0x204"/>
      <component glyphName="commaaccent" x="-3" y="0" flags="0x4"/>
    </TTGlyph>
    <TTGlyph name="ldot" xMin="21" yMin="0" xMax="463" yMax="740">
      <component glyphName="l" x="15" y="0" flags="0x4"/>
      <component glyphName="dotaccent" x="136" y="-324" flags="0x4"/>
    </TTGlyph>
    <TTGlyph name="less" xMin="36" yMin="43" xMax="512" yMax="652">
      <contour>
        <pt x="321" y="43" on="1"/>
        <pt x="36" y="348" on="1"/>
        <pt x="450" y="652" on="1"/>
        <pt x="512" y="554" on="1"/>
        <pt x="216" y="343" on="1"/>
        <pt x="421" y="133" on="1"/>
      </contour>
    </TTGlyph>
    <TTGlyph name="lslash" xMin="-14" yMin="0" xMax="394" yMax="740">
      <contour>
        <pt x="17" y="311" on="1"/>
        <pt x="113" y="370" on="1"/>
        <pt x="186" y="715" on="1"/>
        <pt x="349" y="740" on="1"/>
        <pt x="295" y="484" on="1"/>
        <pt x="394" y="545" on="1"/>
        <pt x="363" y="393" on="1"/>
        <pt x="263" y="331" on="1"/>
        <pt x="193" y="0" on="1"/>
        <pt x="34" y="0" on="1"/>
        <pt x="80" y="218" on="1"/>
        <pt x="-14" y="160" on="1"/>
      </contour>
    </TTGlyph>
    <TTGlyph name="m" xMin="6" yMin="0" xMax="857" yMax="522">
      <contour>
        <pt x="6" y="0" on="1"/>
        <pt x="118" y="516" on="1"/>
        <pt x="277" y="516" on="1"/>
        <pt x="256" y="421" on="1"/>
        <pt x="293" y="471" on="0"/>
        <pt x="376" y="522" on="0"/>
        <pt x="420" y="522" on="1"/>
        <pt x="471" y="522" on="0"/>
        <pt x="538" y="462" on="0"/>
        <pt x="546" y="413" on="1"/>
        <pt x="585" y="466" on="0"/>
        <pt x="680" y="522" on="0"/>
        <pt x="731" y="522" on="1"/>
        <pt x="800" y="522" on="0"/>
        <pt x="868" y="414" on="0"/>
        <pt x="851" y="332" on="1"/>
        <pt x="781" y="0" on="1"/>
        <pt x="622" y="0" on="1"/>
        <pt x="686" y="307" on="1"/>
        <pt x="694" y="347" on="0"/>
        <pt x="661" y="397" on="0"/>
        <pt x="626" y="397" on="1"/>
        <pt x="606" y="397" on="0"/>
        <pt x="568" y="376" on="0"/>
        <pt x="546" y="351" on="1"/>
        <pt x="546" y="347" on="0"/>
        <pt x="544" y="337" on="0"/>
        <pt x="543" y="332" on="1"/>
        <pt x="473" y="0" on="1"/>
        <pt x="314" y="0" on="1"/>
        <pt x="378" y="307" on="1"/>
        <pt x="386" y="348" on="0"/>
        <pt x="354" y="397" on="0"/>
        <pt x="318" y="397" on="1"/>
        <pt x="299" y="397" on="0"/>
        <pt x="263" y="378" on="0"/>
        <pt x="242" y="356" on="1"/>
        <pt x="165" y="0" on="1"/>
      </contour>
    </TTGlyph>
    <TTGlyph name="macron" xMin="174" yMin="626" xMax="518" yMax="726">
      <contour>
        <pt x="518" y="726" on="1"/>
        <pt x="496" y="626" on="1"/>
        <pt x="174" y="626" on="1"/>
        <pt x="196" y="726" on="1"/>
      </contour>
    </TTGlyph>
    <TTGlyph name="minus" xMin="62" yMin="297" xMax="529" yMax="421">
      <contour>
        <pt x="529" y="421" on="1"/>
        <pt x="503" y="297" on="1"/>
        <pt x="62" y="297" on="1"/>
        <pt x="88" y="421" on="1"/>
      </contour>
    </TTGlyph>
    <TTGlyph name="multiply" xMin="45" yMin="130" xMax="527" yMax="584">
      <contour>
        <pt x="103" y="130" on="1"/>
        <pt x="45" y="209" on="1"/>
        <pt x="216" y="360" on="1"/>
        <pt x="110" y="511" on="1"/>
        <pt x="193" y="584" on="1"/>
        <pt x="299" y="433" on="1"/>
        <pt x="470" y="584" on="1"/>
        <pt x="527" y="505" on="1"/>
        <pt x="356" y="354" on="1"/>
        <pt x="461" y="205" on="1"/>
        <pt x="377" y="132" on="1"/>
        <pt x="273" y="280" on="1"/>
      </contour>
    </TTGlyph>
    <TTGlyph name="n" xMin="6" yMin="0" xMax="570" yMax="522">
      <contour>
        <pt x="6" y="0" on="1"/>
        <pt x="118" y="516" on="1"/>
        <pt x="277" y="516" on="1"/>
        <pt x="260" y="436" on="1"/>
        <pt x="296" y="478" on="0"/>
        <pt x="382" y="522" on="0"/>
        <pt x="429" y="522" on="1"/>
        <pt x="507" y="522" on="0"/>
        <pt x="582" y="419" on="0"/>
        <pt x="564" y="337" on="1"/>
        <pt x="492" y="0" on="1"/>
        <pt x="333" y="0" on="1"/>
        <pt x="397" y="297" on="1"/>
        <pt x="407" y="341" on="0"/>
        <pt x="368" y="397" on="0"/>
        <pt x="328" y="397" on="1"/>
        <pt x="305" y="397" on="0"/>
        <pt x="263" y="378" on="0"/>
        <pt x="243" y="358" on="1"/>
        <pt x="165" y="0" on="1"/>
      </contour>
    </TTGlyph>
    <TTGlyph name="nacute" xMin="6" yMin="0" xMax="643" yMax="747">
      <component glyphName="n" x="0" y="0" flags="0x204"/>
      <component glyphName="acute" x="75" y="0" flags="0x4"/>
    </TTGlyph>
    <TTGlyph name="ncaron" xMin="6" yMin="0" xMax="608" yMax="755">
      <component glyphName="n" x="0" y="0" flags="0x204"/>
      <component glyphName="caron" x="47" y="0" flags="0x4"/>
    </TTGlyph>
    <TTGlyph name="ncommaaccent" xMin="6" yMin="-305" xMax="570" yMax="522">
      <component glyphName="n" x="0" y="0" flags="0x204"/>
      <component glyphName="commaaccent" x="156" y="0" flags="0x4"/>
    </TTGlyph>
    <TTGlyph name="nine" xMin="14" yMin="-12" xMax="617" yMax="708">
      <contour>
        <pt x="356" y="708" on="1"/>
        <pt x="475" y="708" on="0"/>
        <pt x="617" y="554" on="0"/>
        <pt x="617" y="423" on="1"/>
        <pt x="617" y="334" on="0"/>
        <pt x="555" y="175" on="0"/>
        <pt x="449" y="57" on="0"/>
        <pt x="306" y="-12" on="0"/>
        <pt x="226" y="-12" on="1"/>
        <pt x="163" y="-12" on="0"/>
        <pt x="51" y="35" on="0"/>
        <pt x="14" y="77" on="1"/>
        <pt x="117" y="178" on="1"/>
        <pt x="142" y="150" on="0"/>
        <pt x="207" y="123" on="0"/>
        <pt x="250" y="123" on="1"/>
        <pt x="289" y="123" on="0"/>
        <pt x="360" y="159" on="0"/>
        <pt x="417" y="223" on="0"/>
        <pt x="456" y="312" on="0"/>
        <pt x="464" y="363" on="1"/>
        <pt x="425" y="317" on="0"/>
        <pt x="330" y="267" on="0"/>
        <pt x="280" y="267" on="1"/>
        <pt x="193" y="267" on="0"/>
        <pt x="81" y="372" on="0"/>
        <pt x="81" y="453" on="1"/>
        <pt x="81" y="505" on="0"/>
        <pt x="125" y="598" on="0"/>
        <pt x="199" y="668" on="0"/>
        <pt x="300" y="708" on="0"/>
      </contour>
      <contour>
        <pt x="326" y="384" on="1"/>
        <pt x="364" y="384" on="0"/>
        <pt x="437" y="411" on="0"/>
        <pt x="469" y="437" on="1"/>
        <pt x="466" y="500" on="0"/>
        <pt x="399" y="575" on="0"/>
        <pt x="345" y="575" on="1"/>
        <pt x="296" y="575" on="0"/>
        <pt x="228" y="515" on="0"/>
        <pt x="228" y="472" on="1"/>
        <pt x="228" y="434" on="0"/>
        <pt x="283" y="384" on="0"/>
      </contour>
    </TTGlyph>
    <TTGlyph name="notequal" xMin="20" yMin="81" xMax="563" yMax="621">
      <contour>
        <pt x="20" y="81" on="1"/>
        <pt x="105" y="189" on="1"/>
        <pt x="39" y="189" on="1"/>
        <pt x="65" y="313" on="1"/>
        <pt x="203" y="313" on="1"/>
        <pt x="265" y="391" on="1"/>
        <pt x="82" y="391" on="1"/>
        <pt x="108" y="515" on="1"/>
        <pt x="363" y="515" on="1"/>
        <pt x="447" y="621" on="1"/>
        <pt x="563" y="621" on="1"/>
        <pt x="480" y="515" on="1"/>
        <pt x="549" y="515" on="1"/>
        <pt x="523" y="391" on="1"/>
        <pt x="382" y="391" on="1"/>
        <pt x="321" y="313" on="1"/>
        <pt x="506" y="313" on="1"/>
        <pt x="480" y="189" on="1"/>
        <pt x="223" y="189" on="1"/>
        <pt x="138" y="81" on="1"/>
      </contour>
    </TTGlyph>
    <TTGlyph name="ntilde" xMin="6" yMin="0" xMax="601" yMax="760">
      <component glyphName="n" x="0" y="0" flags="0x204"/>
      <component glyphName="tilde" x="48" y="0" flags="0x4"/>
    </TTGlyph>
    <TTGlyph name="numbersign" xMin="-3" yMin="0" xMax="774" yMax="700">
      <contour>
        <pt x="-3" y="0" on="1"/>
        <pt x="98" y="184" on="1"/>
        <pt x="25" y="184" on="1"/>
        <pt x="49" y="298" on="1"/>
        <pt x="161" y="298" on="1"/>
        <pt x="218" y="402" on="1"/>
        <pt x="117" y="402" on="1"/>
        <pt x="142" y="516" on="1"/>
        <pt x="281" y="516" on="1"/>
        <pt x="382" y="700" on="1"/>
        <pt x="517" y="700" on="1"/>
        <pt x="416" y="516" on="1"/>
        <pt x="539" y="516" on="1"/>
        <pt x="640" y="700" on="1"/>
        <pt x="774" y="700" on="1"/>
        <pt x="673" y="516" on="1"/>
        <pt x="746" y="516" on="1"/>
        <pt x="721" y="402" on="1"/>
        <pt x="610" y="402" on="1"/>
        <pt x="553" y="298" on="1"/>
        <pt x="652" y="298" on="1"/>
        <pt x="628" y="184" on="1"/>
        <pt x="490" y="184" on="1"/>
        <pt x="389" y="0" on="1"/>
        <pt x="255" y="0" on="1"/>
        <pt x="356" y="184" on="1"/>
        <pt x="233" y="184" on="1"/>
        <pt x="132" y="0" on="1"/>
      </contour>
      <contour>
        <pt x="296" y="298" on="1"/>
        <pt x="419" y="298" on="1"/>
        <pt x="476" y="402" on="1"/>
        <pt x="353" y="402" on="1"/>
      </contour>
    </TTGlyph>
    <TTGlyph name="o" xMin="40" yMin="-10" xMax="570" yMax="524">
      <contour>
        <pt x="40" y="231" on="1"/>
        <pt x="40" y="291" on="0"/>
        <pt x="85" y="399" on="0"/>
        <pt x="163" y="478" on="0"/>
        <pt x="268" y="524" on="0"/>
        <pt x="328" y="524" on="1"/>
        <pt x="380" y="524" on="0"/>
        <pt x="469" y="488" on="0"/>
        <pt x="534" y="424" on="0"/>
        <pt x="570" y="336" on="0"/>
        <pt x="570" y="284" on="1"/>
        <pt x="570" y="224" on="0"/>
        <pt x="524" y="116" on="0"/>
        <pt x="446" y="37" on="0"/>
        <pt x="341" y="-10" on="0"/>
        <pt x="282" y="-10" on="1"/>
        <pt x="230" y="-10" on="0"/>
        <pt x="141" y="26" on="0"/>
        <pt x="77" y="90" on="0"/>
        <pt x="40" y="179" on="0"/>
      </contour>
      <contour>
        <pt x="291" y="127" on="1"/>
        <pt x="344" y="127" on="0"/>
        <pt x="414" y="214" on="0"/>
        <pt x="414" y="280" on="1"/>
        <pt x="414" y="330" on="0"/>
        <pt x="362" y="389" on="0"/>
        <pt x="318" y="389" on="1"/>
        <pt x="267" y="389" on="0"/>
        <pt x="196" y="302" on="0"/>
        <pt x="196" y="239" on="1"/>
        <pt x="196" y="188" on="0"/>
        <pt x="248" y="127" on="0"/>
      </contour>
    </TTGlyph>
    <TTGlyph name="oacute" xMin="40" yMin="-10" xMax="618" yMax="747">
      <component glyphName="o" x="0" y="0" flags="0x204"/>
      <component glyphName="acute" x="50" y="0" flags="0x4"/>
    </TTGlyph>
    <TTGlyph name="obreve" xMin="40" yMin="-10" xMax="570" yMax="772">
      <component glyphName="o" x="0" y="0" flags="0x204"/>
      <component glyphName="breve" x="20" y="0" flags="0x4"/>
    </TTGlyph>
    <TTGlyph name="ocircumflex" xMin="40" yMin="-10" xMax="570" yMax="750">
      <component glyphName="o" x="0" y="0" flags="0x204"/>
      <component glyphName="circumflex" x="18" y="0" flags="0x4"/>
    </TTGlyph>
    <TTGlyph name="odieresis" xMin="40" yMin="-10" xMax="570" yMax="766">
      <component glyphName="o" x="0" y="0" flags="0x204"/>
      <component glyphName="dieresis" x="-23" y="0" flags="0x4"/>
    </TTGlyph>
    <TTGlyph name="oe" xMin="40" yMin="-11" xMax="921" yMax="524">
      <contour>
        <pt x="40" y="231" on="1"/>
        <pt x="40" y="291" on="0"/>
        <pt x="85" y="399" on="0"/>
        <pt x="163" y="478" on="0"/>
        <pt x="268" y="524" on="0"/>
        <pt x="328" y="524" on="1"/>
        <pt x="383" y="524" on="0"/>
        <pt x="476" y="481" on="0"/>
        <pt x="508" y="444" on="1"/>
        <pt x="545" y="481" on="0"/>
        <pt x="642" y="524" on="0"/>
        <pt x="696" y="524" on="1"/>
        <pt x="796" y="524" on="0"/>
        <pt x="921" y="395" on="0"/>
        <pt x="921" y="293" on="1"/>
        <pt x="921" y="270" on="0"/>
        <pt x="918" y="233" on="0"/>
        <pt x="915" y="217" on="1"/>
        <pt x="569" y="217" on="1"/>
        <pt x="576" y="172" on="0"/>
        <pt x="639" y="117" on="0"/>
        <pt x="685" y="117" on="1"/>
        <pt x="714" y="117" on="0"/>
        <pt x="764" y="136" on="0"/>
        <pt x="782" y="155" on="1"/>
        <pt x="869" y="57" on="1"/>
        <pt x="820" y="21" on="0"/>
        <pt x="724" y="-11" on="0"/>
        <pt x="668" y="-11" on="1"/>
        <pt x="608" y="-11" on="0"/>
        <pt x="509" y="33" on="0"/>
        <pt x="476" y="72" on="1"/>
        <pt x="438" y="34" on="0"/>
        <pt x="338" y="-10" on="0"/>
        <pt x="282" y="-10" on="1"/>
        <pt x="230" y="-10" on="0"/>
        <pt x="141" y="26" on="0"/>
        <pt x="77" y="90" on="0"/>
        <pt x="40" y="179" on="0"/>
      </contour>
      <contour>
        <pt x="687" y="397" on="1"/>
        <pt x="650" y="397" on="0"/>
        <pt x="593" y="348" on="0"/>
        <pt x="579" y="308" on="1"/>
        <pt x="781" y="308" on="1"/>
        <pt x="775" y="349" on="0"/>
        <pt x="725" y="397" on="0"/>
      </contour>
      <contour>
        <pt x="291" y="127" on="1"/>
        <pt x="344" y="127" on="0"/>
        <pt x="414" y="214" on="0"/>
        <pt x="414" y="280" on="1"/>
        <pt x="414" y="330" on="0"/>
        <pt x="362" y="389" on="0"/>
        <pt x="318" y="389" on="1"/>
        <pt x="267" y="389" on="0"/>
        <pt x="196" y="302" on="0"/>
        <pt x="196" y="239" on="1"/>
        <pt x="196" y="188" on="0"/>
        <pt x="248" y="127" on="0"/>
      </contour>
    </TTGlyph>
    <TTGlyph name="ogonek" xMin="70" yMin="-231" xMax="267" yMax="22">
      <contour>
        <pt x="267" y="0" on="1"/>
        <pt x="215" y="-28" on="0"/>
        <pt x="162" y="-85" on="0"/>
        <pt x="162" y="-113" on="1"/>
        <pt x="162" y="-130" on="0"/>
        <pt x="183" y="-149" on="0"/>
        <pt x="202" y="-149" on="1"/>
        <pt x="215" y="-149" on="0"/>
        <pt x="241" y="-143" on="0"/>
        <pt x="249" y="-138" on="1"/>
        <pt x="254" y="-208" on="1"/>
        <pt x="235" y="-218" on="0"/>
        <pt x="184" y="-231" on="0"/>
        <pt x="158" y="-231" on="1"/>
        <pt x="118" y="-231" on="0"/>
        <pt x="70" y="-189" on="0"/>
        <pt x="70" y="-153" on="1"/>
        <pt x="70" y="-104" on="0"/>
        <pt x="148" y="-18" on="0"/>
        <pt x="226" y="22" on="1"/>
      </contour>
    </TTGlyph>
    <TTGlyph name="ograve" xMin="40" yMin="-10" xMax="570" yMax="747">
      <component glyphName="o" x="0" y="0" flags="0x204"/>
      <component glyphName="grave" x="-8" y="0" flags="0x4"/>
    </TTGlyph>
    <TTGlyph name="ohungarumlaut" xMin="40" yMin="-10" xMax="684" yMax="746">
      <component glyphName="o" x="0" y="0" flags="0x204"/>
      <component glyphName="hungarumlaut" x="27" y="0" flags="0x4"/>
    </TTGlyph>
    <TTGlyph name="omacron" xMin="40" yMin="-10" xMax="570" yMax="726">
      <component glyphName="o" x="0" y="0" flags="0x204"/>
      <component glyphName="macron" x="20" y="0" flags="0x4"/>
    </TTGlyph>
    <TTGlyph name="one" xMin="78" yMin="0" xMax="411" yMax="700">
      <contour>
        <pt x="411" y="700" on="1"/>
        <pt x="262" y="0" on="1"/>
        <pt x="111" y="0" on="1"/>
        <pt x="225" y="540" on="1"/>
        <pt x="78" y="483" on="1"/>
        <pt x="107" y="619" on="1"/>
        <pt x="316" y="700" on="1"/>
      </contour>
    </TTGlyph>
    <TTGlyph name="onehalf" xMin="7" yMin="0" xMax="683" yMax="700">
      <component glyphName="onesuperior" x="0" y="0" flags="0x4"/>
      <component glyphName="fraction" x="46" y="0" flags="0x4"/>
      <component glyphName="uni2082" x="402" y="0" flags="0x4"/>
    </TTGlyph>
    <TTGlyph name="onequarter" xMin="7" yMin="0" xMax="653" yMax="700">
      <component glyphName="uni2084" x="323" y="0" flags="0x4"/>
      <component glyphName="onesuperior" x="0" y="0" flags="0x4"/>
      <component glyphName="fraction" x="46" y="0" flags="0x4"/>
    </TTGlyph>
    <TTGlyph name="onesuperior" xMin="87" yMin="350" xMax="279" yMax="700">
      <component glyphName="uni2081" x="74" y="350" flags="0x4"/>
    </TTGlyph>
    <TTGlyph name="ordfeminine" xMin="63" yMin="301" xMax="462" yMax="710">
      <contour>
        <pt x="193" y="301" on="1"/>
        <pt x="133" y="301" on="0"/>
        <pt x="63" y="361" on="0"/>
        <pt x="63" y="412" on="1"/>
        <pt x="63" y="474" on="0"/>
        <pt x="154" y="544" on="0"/>
        <pt x="233" y="544" on="1"/>
        <pt x="257" y="544" on="0"/>
        <pt x="308" y="535" on="0"/>
        <pt x="333" y="527" on="1"/>
        <pt x="335" y="538" on="1"/>
        <pt x="342" y="572" on="0"/>
        <pt x="304" y="606" on="0"/>
        <pt x="260" y="606" on="1"/>
        <pt x="241" y="606" on="0"/>
        <pt x="189" y="595" on="0"/>
        <pt x="151" y="582" on="1"/>
        <pt x="121" y="676" on="1"/>
        <pt x="167" y="693" on="0"/>
        <pt x="251" y="710" on="0"/>
        <pt x="289" y="710" on="1"/>
        <pt x="385" y="710" on="0"/>
        <pt x="474" y="618" on="0"/>
        <pt x="458" y="538" on="1"/>
        <pt x="408" y="305" on="1"/>
        <pt x="285" y="305" on="1"/>
        <pt x="290" y="329" on="1"/>
        <pt x="265" y="314" on="0"/>
        <pt x="218" y="301" on="0"/>
      </contour>
      <contour>
        <pt x="181" y="422" on="1"/>
        <pt x="181" y="406" on="0"/>
        <pt x="213" y="388" on="0"/>
        <pt x="243" y="388" on="1"/>
        <pt x="259" y="388" on="0"/>
        <pt x="291" y="395" on="0"/>
        <pt x="306" y="402" on="1"/>
        <pt x="317" y="452" on="1"/>
        <pt x="299" y="457" on="0"/>
        <pt x="262" y="463" on="0"/>
        <pt x="246" y="463" on="1"/>
        <pt x="215" y="463" on="0"/>
        <pt x="181" y="442" on="0"/>
      </contour>
    </TTGlyph>
    <TTGlyph name="ordmasculine" xMin="79" yMin="297" xMax="506" yMax="710">
      <contour>
        <pt x="79" y="489" on="1"/>
        <pt x="79" y="534" on="0"/>
        <pt x="115" y="615" on="0"/>
        <pt x="176" y="675" on="0"/>
        <pt x="259" y="710" on="0"/>
        <pt x="306" y="710" on="1"/>
        <pt x="349" y="710" on="0"/>
        <pt x="422" y="681" on="0"/>
        <pt x="475" y="630" on="0"/>
        <pt x="506" y="559" on="0"/>
        <pt x="506" y="518" on="1"/>
        <pt x="506" y="473" on="0"/>
        <pt x="470" y="393" on="0"/>
        <pt x="408" y="332" on="0"/>
        <pt x="326" y="297" on="0"/>
        <pt x="280" y="297" on="1"/>
        <pt x="194" y="297" on="0"/>
        <pt x="79" y="408" on="0"/>
      </contour>
      <contour>
        <pt x="384" y="513" on="1"/>
        <pt x="384" y="551" on="0"/>
        <pt x="336" y="601" on="0"/>
        <pt x="299" y="601" on="1"/>
        <pt x="259" y="601" on="0"/>
        <pt x="201" y="538" on="0"/>
        <pt x="201" y="495" on="1"/>
        <pt x="201" y="456" on="0"/>
        <pt x="249" y="406" on="0"/>
        <pt x="286" y="406" on="1"/>
        <pt x="326" y="406" on="0"/>
        <pt x="384" y="469" on="0"/>
      </contour>
    </TTGlyph>
    <TTGlyph name="oslash" xMin="-17" yMin="-10" xMax="628" yMax="524">
      <contour>
        <pt x="-17" y="-5" on="1"/>
        <pt x="81" y="92" on="1"/>
        <pt x="62" y="120" on="0"/>
        <pt x="40" y="191" on="0"/>
        <pt x="40" y="231" on="1"/>
        <pt x="40" y="291" on="0"/>
        <pt x="85" y="399" on="0"/>
        <pt x="163" y="478" on="0"/>
        <pt x="268" y="524" on="0"/>
        <pt x="328" y="524" on="1"/>
        <pt x="370" y="524" on="0"/>
        <pt x="445" y="501" on="0"/>
        <pt x="474" y="479" on="1"/>
        <pt x="517" y="521" on="1"/>
        <pt x="628" y="521" on="1"/>
        <pt x="529" y="424" on="1"/>
        <pt x="548" y="395" on="0"/>
        <pt x="570" y="324" on="0"/>
        <pt x="570" y="284" on="1"/>
        <pt x="570" y="224" on="0"/>
        <pt x="524" y="116" on="0"/>
        <pt x="446" y="37" on="0"/>
        <pt x="341" y="-10" on="0"/>
        <pt x="282" y="-10" on="1"/>
        <pt x="239" y="-10" on="0"/>
        <pt x="165" y="15" on="0"/>
        <pt x="134" y="37" on="1"/>
        <pt x="92" y="-5" on="1"/>
      </contour>
      <contour>
        <pt x="196" y="239" on="1"/>
        <pt x="196" y="231" on="0"/>
        <pt x="198" y="215" on="0"/>
        <pt x="199" y="208" on="1"/>
        <pt x="369" y="375" on="1"/>
        <pt x="359" y="382" on="0"/>
        <pt x="333" y="389" on="0"/>
        <pt x="318" y="389" on="1"/>
        <pt x="267" y="389" on="0"/>
        <pt x="196" y="302" on="0"/>
      </contour>
      <contour>
        <pt x="291" y="127" on="1"/>
        <pt x="344" y="127" on="0"/>
        <pt x="414" y="214" on="0"/>
        <pt x="414" y="280" on="1"/>
        <pt x="414" y="287" on="0"/>
        <pt x="413" y="302" on="0"/>
        <pt x="412" y="309" on="1"/>
        <pt x="241" y="141" on="1"/>
        <pt x="251" y="134" on="0"/>
        <pt x="277" y="127" on="0"/>
      </contour>
    </TTGlyph>
    <TTGlyph name="otilde" xMin="40" yMin="-10" xMax="576" yMax="760">
      <component glyphName="o" x="0" y="0" flags="0x204"/>
      <component glyphName="tilde" x="23" y="0" flags="0x4"/>
    </TTGlyph>
    <TTGlyph name="p" xMin="-39" yMin="-215" xMax="591" yMax="519">
      <contour>
        <pt x="-39" y="-215" on="1"/>
        <pt x="118" y="516" on="1"/>
        <pt x="275" y="516" on="1"/>
        <pt x="265" y="464" on="1"/>
        <pt x="291" y="490" on="0"/>
        <pt x="360" y="519" on="0"/>
        <pt x="397" y="519" on="1"/>
        <pt x="438" y="519" on="0"/>
        <pt x="509" y="482" on="0"/>
        <pt x="561" y="419" on="0"/>
        <pt x="591" y="332" on="0"/>
        <pt x="591" y="283" on="1"/>
        <pt x="591" y="224" on="0"/>
        <pt x="550" y="119" on="0"/>
        <pt x="479" y="42" on="0"/>
        <pt x="384" y="-3" on="0"/>
        <pt x="330" y="-3" on="1"/>
        <pt x="281" y="-3" on="0"/>
        <pt x="206" y="38" on="0"/>
        <pt x="183" y="78" on="1"/>
        <pt x="120" y="-215" on="1"/>
      </contour>
      <contour>
        <pt x="327" y="386" on="1"/>
        <pt x="303" y="386" on="0"/>
        <pt x="261" y="369" on="0"/>
        <pt x="242" y="352" on="1"/>
        <pt x="205" y="180" on="1"/>
        <pt x="221" y="158" on="0"/>
        <pt x="274" y="131" on="0"/>
        <pt x="305" y="131" on="1"/>
        <pt x="361" y="131" on="0"/>
        <pt x="436" y="211" on="0"/>
        <pt x="436" y="270" on="1"/>
        <pt x="436" y="321" on="0"/>
        <pt x="374" y="386" on="0"/>
      </contour>
    </TTGlyph>
    <TTGlyph name="paragraph" xMin="82" yMin="0" xMax="725" yMax="700">
      <contour>
        <pt x="252" y="0" on="1"/>
        <pt x="303" y="238" on="1"/>
        <pt x="301" y="238" on="1"/>
        <pt x="203" y="238" on="0"/>
        <pt x="82" y="348" on="0"/>
        <pt x="82" y="437" on="1"/>
        <pt x="82" y="494" on="0"/>
        <pt x="122" y="591" on="0"/>
        <pt x="194" y="660" on="0"/>
        <pt x="293" y="700" on="0"/>
        <pt x="351" y="700" on="1"/>
        <pt x="725" y="700" on="1"/>
        <pt x="576" y="0" on="1"/>
        <pt x="455" y="0" on="1"/>
        <pt x="506" y="238" on="1"/>
        <pt x="425" y="238" on="1"/>
        <pt x="374" y="0" on="1"/>
      </contour>
      <contour>
        <pt x="533" y="365" on="1"/>
        <pt x="576" y="570" on="1"/>
        <pt x="495" y="570" on="1"/>
        <pt x="451" y="365" on="1"/>
      </contour>
      <contour>
        <pt x="308" y="365" on="1"/>
        <pt x="329" y="365" on="1"/>
        <pt x="373" y="570" on="1"/>
        <pt x="329" y="570" on="1"/>
        <pt x="280" y="570" on="0"/>
        <pt x="214" y="505" on="0"/>
        <pt x="214" y="456" on="1"/>
        <pt x="214" y="414" on="0"/>
        <pt x="265" y="365" on="0"/>
      </contour>
    </TTGlyph>
    <TTGlyph name="parenleft" xMin="48" yMin="-221" xMax="465" yMax="711">
      <contour>
        <pt x="48" y="135" on="1"/>
        <pt x="48" y="228" on="0"/>
        <pt x="98" y="402" on="0"/>
        <pt x="190" y="552" on="0"/>
        <pt x="321" y="672" on="0"/>
        <pt x="402" y="711" on="1"/>
        <pt x="465" y="605" on="1"/>
        <pt x="400" y="572" on="0"/>
        <pt x="297" y="476" on="0"/>
        <pt x="226" y="359" on="0"/>
        <pt x="188" y="223" on="0"/>
        <pt x="188" y="151" on="1"/>
        <pt x="188" y="67" on="0"/>
        <pt x="249" y="-76" on="0"/>
        <pt x="309" y="-130" on="1"/>
        <pt x="206" y="-221" on="1"/>
        <pt x="129" y="-158" on="0"/>
        <pt x="48" y="25" on="0"/>
      </contour>
    </TTGlyph>
    <TTGlyph name="parenright" xMin="-44" yMin="-220" xMax="373" yMax="712">
      <contour>
        <pt x="373" y="356" on="1"/>
        <pt x="373" y="263" on="0"/>
        <pt x="323" y="89" on="0"/>
        <pt x="231" y="-61" on="0"/>
        <pt x="100" y="-181" on="0"/>
        <pt x="19" y="-220" on="1"/>
        <pt x="-44" y="-114" on="1"/>
        <pt x="21" y="-81" on="0"/>
        <pt x="124" y="15" on="0"/>
        <pt x="195" y="132" on="0"/>
        <pt x="233" y="268" on="0"/>
        <pt x="233" y="340" on="1"/>
        <pt x="233" y="424" on="0"/>
        <pt x="172" y="567" on="0"/>
        <pt x="112" y="621" on="1"/>
        <pt x="215" y="712" on="1"/>
        <pt x="292" y="649" on="0"/>
        <pt x="373" y="466" on="0"/>
      </contour>
    </TTGlyph>
    <TTGlyph name="percent" xMin="77" yMin="-5" xMax="775" yMax="706">
      <component glyphName="uni2070" x="0" y="0" flags="0x4"/>
      <component glyphName="fraction" x="135" y="0" flags="0x4"/>
      <component glyphName="uni2080" x="456" y="0" flags="0x4"/>
    </TTGlyph>
    <TTGlyph name="period" xMin="6" yMin="-11" xMax="185" yMax="178">
      <contour>
        <pt x="108" y="178" on="1"/>
        <pt x="141" y="178" on="0"/>
        <pt x="185" y="130" on="0"/>
        <pt x="185" y="95" on="1"/>
        <pt x="185" y="53" on="0"/>
        <pt x="125" y="-11" on="0"/>
        <pt x="86" y="-11" on="1"/>
        <pt x="52" y="-11" on="0"/>
        <pt x="6" y="37" on="0"/>
        <pt x="6" y="72" on="1"/>
        <pt x="6" y="115" on="0"/>
        <pt x="67" y="178" on="0"/>
      </contour>
    </TTGlyph>
    <TTGlyph name="periodcentered" xMin="68" yMin="194" xMax="247" yMax="383">
      <component glyphName="period" x="62" y="205" flags="0x4"/>
    </TTGlyph>
    <TTGlyph name="periodcentered.cap" xMin="68" yMin="259" xMax="247" yMax="448">
      <component glyphName="periodcentered" x="0" y="65" flags="0x4"/>
    </TTGlyph>
    <TTGlyph name="perthousand" xMin="77" yMin="-5" xMax="1134" yMax="706">
      <component glyphName="uni2070" x="0" y="0" flags="0x4"/>
      <component glyphName="fraction" x="135" y="0" flags="0x4"/>
      <component glyphName="uni2080" x="456" y="0" flags="0x4"/>
      <component glyphName="uni2080" x="815" y="0" flags="0x4"/>
    </TTGlyph>
    <TTGlyph name="plus" xMin="62" yMin="123" xMax="529" yMax="591">
      <contour>
        <pt x="304" y="123" on="1"/>
        <pt x="188" y="123" on="1"/>
        <pt x="225" y="297" on="1"/>
        <pt x="62" y="297" on="1"/>
        <pt x="88" y="421" on="1"/>
        <pt x="252" y="421" on="1"/>
        <pt x="288" y="591" on="1"/>
        <pt x="404" y="591" on="1"/>
        <pt x="368" y="421" on="1"/>
        <pt x="529" y="421" on="1"/>
        <pt x="503" y="297" on="1"/>
        <pt x="341" y="297" on="1"/>
      </contour>
    </TTGlyph>
    <TTGlyph name="plusminus" xMin="-1" yMin="-1" xMax="542" yMax="629">
      <contour>
        <pt x="322" y="209" on="1"/>
        <pt x="206" y="209" on="1"/>
        <pt x="238" y="359" on="1"/>
        <pt x="75" y="359" on="1"/>
        <pt x="101" y="482" on="1"/>
        <pt x="265" y="482" on="1"/>
        <pt x="296" y="629" on="1"/>
        <pt x="412" y="629" on="1"/>
        <pt x="381" y="482" on="1"/>
        <pt x="542" y="482" on="1"/>
        <pt x="516" y="359" on="1"/>
        <pt x="354" y="359" on="1"/>
      </contour>
      <contour>
        <pt x="466" y="123" on="1"/>
        <pt x="440" y="-1" on="1"/>
        <pt x="-1" y="-1" on="1"/>
        <pt x="25" y="123" on="1"/>
      </contour>
    </TTGlyph>
    <TTGlyph name="q" xMin="41" yMin="-215" xMax="624" yMax="519">
      <contour>
        <pt x="235" y="-3" on="1"/>
        <pt x="194" y="-3" on="0"/>
        <pt x="123" y="34" on="0"/>
        <pt x="71" y="97" on="0"/>
        <pt x="41" y="184" on="0"/>
        <pt x="41" y="233" on="1"/>
        <pt x="41" y="292" on="0"/>
        <pt x="82" y="397" on="0"/>
        <pt x="153" y="474" on="0"/>
        <pt x="248" y="519" on="0"/>
        <pt x="302" y="519" on="1"/>
        <pt x="351" y="519" on="0"/>
        <pt x="427" y="478" on="0"/>
        <pt x="451" y="438" on="1"/>
        <pt x="467" y="516" on="1"/>
        <pt x="624" y="516" on="1"/>
        <pt x="467" y="-215" on="1"/>
        <pt x="308" y="-215" on="1"/>
        <pt x="364" y="47" on="1"/>
        <pt x="339" y="24" on="0"/>
        <pt x="272" y="-3" on="0"/>
      </contour>
      <contour>
        <pt x="197" y="246" on="1"/>
        <pt x="197" y="196" on="0"/>
        <pt x="258" y="130" on="0"/>
        <pt x="305" y="130" on="1"/>
        <pt x="329" y="130" on="0"/>
        <pt x="371" y="147" on="0"/>
        <pt x="390" y="164" on="1"/>
        <pt x="428" y="340" on="1"/>
        <pt x="410" y="361" on="0"/>
        <pt x="358" y="385" on="0"/>
        <pt x="327" y="385" on="1"/>
        <pt x="272" y="385" on="0"/>
        <pt x="197" y="305" on="0"/>
      </contour>
    </TTGlyph>
    <TTGlyph name="question" xMin="78" yMin="-11" xMax="548" yMax="710">
      <contour>
        <pt x="389" y="329" on="1"/>
        <pt x="362" y="313" on="1"/>
        <pt x="329" y="295" on="0"/>
        <pt x="301" y="260" on="0"/>
        <pt x="295" y="230" on="1"/>
        <pt x="168" y="230" on="1"/>
        <pt x="179" y="294" on="0"/>
        <pt x="226" y="368" on="0"/>
        <pt x="276" y="399" on="1"/>
        <pt x="335" y="437" on="1"/>
        <pt x="365" y="456" on="0"/>
        <pt x="396" y="496" on="0"/>
        <pt x="396" y="515" on="1"/>
        <pt x="396" y="543" on="0"/>
        <pt x="352" y="575" on="0"/>
        <pt x="315" y="575" on="1"/>
        <pt x="277" y="575" on="0"/>
        <pt x="208" y="533" on="0"/>
        <pt x="189" y="499" on="1"/>
        <pt x="78" y="554" on="1"/>
        <pt x="118" y="626" on="0"/>
        <pt x="258" y="710" on="0"/>
        <pt x="336" y="710" on="1"/>
        <pt x="429" y="710" on="0"/>
        <pt x="548" y="614" on="0"/>
        <pt x="548" y="539" on="1"/>
        <pt x="548" y="478" on="0"/>
        <pt x="473" y="379" on="0"/>
      </contour>
      <contour>
        <pt x="216" y="170" on="1"/>
        <pt x="249" y="170" on="0"/>
        <pt x="292" y="125" on="0"/>
        <pt x="292" y="91" on="1"/>
        <pt x="292" y="51" on="0"/>
        <pt x="233" y="-11" on="0"/>
        <pt x="194" y="-11" on="1"/>
        <pt x="160" y="-11" on="0"/>
        <pt x="116" y="34" on="0"/>
        <pt x="116" y="68" on="1"/>
        <pt x="116" y="110" on="0"/>
        <pt x="176" y="170" on="0"/>
      </contour>
    </TTGlyph>
    <TTGlyph name="questiondown" xMin="29" yMin="-10" xMax="499" yMax="711">
      <contour>
        <pt x="188" y="371" on="1"/>
        <pt x="215" y="387" on="1"/>
        <pt x="248" y="405" on="0"/>
        <pt x="276" y="440" on="0"/>
        <pt x="282" y="470" on="1"/>
        <pt x="409" y="470" on="1"/>
        <pt x="398" y="406" on="0"/>
        <pt x="351" y="332" on="0"/>
        <pt x="301" y="301" on="1"/>
        <pt x="242" y="263" on="1"/>
        <pt x="212" y="244" on="0"/>
        <pt x="181" y="204" on="0"/>
        <pt x="181" y="185" on="1"/>
        <pt x="181" y="157" on="0"/>
        <pt x="225" y="125" on="0"/>
        <pt x="262" y="125" on="1"/>
        <pt x="300" y="125" on="0"/>
        <pt x="369" y="167" on="0"/>
        <pt x="388" y="201" on="1"/>
        <pt x="499" y="146" on="1"/>
        <pt x="459" y="74" on="0"/>
        <pt x="319" y="-10" on="0"/>
        <pt x="241" y="-10" on="1"/>
        <pt x="148" y="-10" on="0"/>
        <pt x="29" y="86" on="0"/>
        <pt x="29" y="161" on="1"/>
        <pt x="29" y="222" on="0"/>
        <pt x="104" y="321" on="0"/>
      </contour>
      <contour>
        <pt x="361" y="530" on="1"/>
        <pt x="328" y="530" on="0"/>
        <pt x="285" y="575" on="0"/>
        <pt x="285" y="609" on="1"/>
        <pt x="285" y="649" on="0"/>
        <pt x="344" y="711" on="0"/>
        <pt x="383" y="711" on="1"/>
        <pt x="417" y="711" on="0"/>
        <pt x="461" y="666" on="0"/>
        <pt x="461" y="632" on="1"/>
        <pt x="461" y="590" on="0"/>
        <pt x="401" y="530" on="0"/>
      </contour>
    </TTGlyph>
    <TTGlyph name="quotedbl" xMin="116" yMin="440" xMax="528" yMax="750">
      <component glyphName="quotesingle" x="0" y="0" flags="0x4"/>
      <component glyphName="quotesingle" x="217" y="0" flags="0x4"/>
    </TTGlyph>
    <TTGlyph name="quotedblbase" xMin="-89" yMin="-177" xMax="429" yMax="127">
      <component glyphName="comma" x="229" y="0" flags="0x4"/>
      <component glyphName="comma" x="0" y="0" flags="0x4"/>
    </TTGlyph>
    <TTGlyph name="quotedblleft" xMin="68" yMin="446" xMax="586" yMax="750">
      <contour>
        <pt x="223" y="446" on="1"/>
        <pt x="68" y="446" on="1"/>
        <pt x="243" y="750" on="1"/>
        <pt x="357" y="750" on="1"/>
      </contour>
      <contour>
        <pt x="452" y="446" on="1"/>
        <pt x="297" y="446" on="1"/>
        <pt x="472" y="750" on="1"/>
        <pt x="586" y="750" on="1"/>
      </contour>
    </TTGlyph>
    <TTGlyph name="quotedblright" xMin="85" yMin="446" xMax="603" yMax="750">
      <component glyphName="comma" x="403" y="623" flags="0x4"/>
      <component glyphName="comma" x="174" y="623" flags="0x4"/>
    </TTGlyph>
    <TTGlyph name="quoteleft" xMin="73" yMin="446" xMax="362" yMax="750">
      <contour>
        <pt x="228" y="446" on="1"/>
        <pt x="73" y="446" on="1"/>
        <pt x="248" y="750" on="1"/>
        <pt x="362" y="750" on="1"/>
      </contour>
    </TTGlyph>
    <TTGlyph name="quoteright" xMin="85" yMin="446" xMax="374" yMax="750">
      <component glyphName="comma" x="174" y="623" flags="0x4"/>
    </TTGlyph>
    <TTGlyph name="quotesinglbase" xMin="-89" yMin="-177" xMax="200" yMax="127">
      <component glyphName="comma" x="0" y="0" flags="0x4"/>
    </TTGlyph>
    <TTGlyph name="quotesingle" xMin="116" yMin="440" xMax="311" yMax="750">
      <contour>
        <pt x="116" y="440" on="1"/>
        <pt x="165" y="750" on="1"/>
        <pt x="311" y="750" on="1"/>
        <pt x="227" y="440" on="1"/>
      </contour>
    </TTGlyph>
    <TTGlyph name="r" xMin="6" yMin="0" xMax="466" yMax="524">
      <contour>
        <pt x="6" y="0" on="1"/>
        <pt x="118" y="516" on="1"/>
        <pt x="277" y="516" on="1"/>
        <pt x="253" y="405" on="1"/>
        <pt x="289" y="465" on="0"/>
        <pt x="363" y="524" on="0"/>
        <pt x="404" y="524" on="1"/>
        <pt x="422" y="524" on="0"/>
        <pt x="453" y="515" on="0"/>
        <pt x="466" y="507" on="1"/>
        <pt x="437" y="369" on="1"/>
        <pt x="427" y="377" on="0"/>
        <pt x="379" y="389" on="0"/>
        <pt x="357" y="389" on="1"/>
        <pt x="324" y="389" on="0"/>
        <pt x="259" y="359" on="0"/>
        <pt x="237" y="333" on="1"/>
        <pt x="165" y="0" on="1"/>
      </contour>
    </TTGlyph>
    <TTGlyph name="racute" xMin="6" yMin="0" xMax="598" yMax="747">
      <component glyphName="r" x="0" y="0" flags="0x204"/>
      <component glyphName="acute" x="30" y="0" flags="0x4"/>
    </TTGlyph>
    <TTGlyph name="rcaron" xMin="6" yMin="0" xMax="563" yMax="755">
      <component glyphName="r" x="0" y="0" flags="0x204"/>
      <component glyphName="caron" x="2" y="0" flags="0x4"/>
    </TTGlyph>
    <TTGlyph name="rcommaaccent" xMin="-94" yMin="-305" xMax="466" yMax="524">
      <component glyphName="r" x="0" y="0" flags="0x204"/>
      <component glyphName="commaaccent" x="0" y="0" flags="0x4"/>
    </TTGlyph>
</ttFont>
